G04 PROTEUS GERBER X2 FILE*
%TF.GenerationSoftware,Labcenter,Proteus,8.6-SP2-Build23525*%
%TF.CreationDate,2018-12-10T17:09:55+00:00*%
%TF.FileFunction,Plated,1,2,PTH*%
%TF.FilePolarity,Positive*%
%TF.Part,Single*%
%FSLAX45Y45*%
%MOMM*%
G01*
%TA.AperFunction,ViaDrill*%
%ADD83C,0.381000*%
%ADD84C,0.508000*%
%TA.AperFunction,ComponentDrill*%
%ADD85C,1.651000*%
%TA.AperFunction,ComponentDrill*%
%ADD86C,0.762000*%
%ADD87C,0.381000*%
%TA.AperFunction,ComponentDrill*%
%ADD88C,1.016000*%
%TA.AperFunction,ComponentDrill*%
%ADD89C,1.524000*%
%ADD90C,1.143000*%
%TA.AperFunction,ComponentDrill*%
%ADD91C,0.850000*%
%ADD92C,1.270000*%
%TD.AperFunction*%
D83*
X+4826000Y+7112000D03*
X+5016500Y+7620000D03*
X+4953000Y+6985000D03*
X+4381500Y+3937000D03*
X+4699000Y+7493000D03*
X+5334000Y+7366000D03*
X+4826000Y+4826000D03*
X+4826000Y+5334000D03*
X+5207000Y+5080000D03*
X+4508500Y+4826000D03*
X+4953000Y+5334000D03*
X+4953000Y+7112000D03*
X+4699000Y+7366000D03*
X+3111500Y+7874000D03*
X+3937000Y+7937500D03*
X+4000500Y+7747000D03*
X+4127500Y+6985000D03*
X+3556000Y+7747000D03*
X+3873500Y+7366000D03*
X+4191000Y+7366000D03*
X+3810000Y+5080000D03*
X+3873500Y+4064000D03*
X+3683000Y+4953000D03*
X+7620000Y+6604000D03*
X+7175500Y+6477000D03*
X+7493000Y+5207000D03*
X+6604000Y+5588000D03*
X+3302000Y+6985000D03*
X+4572000Y+7048500D03*
X+3302000Y+4508500D03*
X+4445000Y+7366000D03*
X+4191000Y+5207000D03*
X+3937000Y+10096500D03*
X+5651500Y+4953000D03*
X+5334000Y+5334000D03*
X+5397500Y+6985000D03*
X-6223000Y+5969000D03*
X-7239000Y+6032500D03*
X+6858000Y+4953000D03*
X+7493000Y+6858000D03*
X+7239000Y+6731000D03*
X+6477000Y+6477000D03*
X+6604000Y+6858000D03*
X-8699500Y+8382000D03*
X-1079500Y+8763000D03*
X-1651000Y+3111500D03*
X+6096000Y+2921000D03*
X+6096000Y+4889500D03*
X+4064000Y+3238500D03*
X+5905500Y+3238500D03*
X+7874000Y+3873500D03*
X+3429000Y+3048000D03*
X-1841500Y+2921000D03*
X+8001000Y+7112000D03*
X+8509000Y+7366000D03*
X+9017000Y+5080000D03*
X+6159500Y+5016500D03*
X+5715000Y+5207000D03*
X+5588000Y+5842000D03*
X-5588000Y+4826000D03*
X-8255000Y+5588000D03*
X-1397000Y+6794500D03*
X-7874000Y+3365500D03*
X-2730500Y+4635500D03*
X-5334000Y+4381500D03*
X-1778000Y+8636000D03*
X-1587500Y+8445500D03*
X-2984500Y+6032500D03*
X-4445000Y+6032500D03*
X-4826000Y+5334000D03*
X-5080000Y+5334000D03*
X-5461000Y+5334000D03*
X-4699000Y+5334000D03*
X-5334000Y+5334000D03*
X-5207000Y+5334000D03*
X-4953000Y+5334000D03*
D84*
X-2032000Y+8699500D03*
D83*
X-2286000Y+8699500D03*
X-2540000Y+8699500D03*
X+5080415Y+8272026D03*
X+5334191Y+8509000D03*
D84*
X-4746450Y+8636000D03*
D83*
X-7366000Y+9652000D03*
X-7620000Y+9652000D03*
X-6858000Y+9652000D03*
X-7112000Y+9652000D03*
X-4445000Y+8255000D03*
X-4699000Y+8382000D03*
D84*
X-4744743Y+8921821D03*
D83*
X-8191500Y+8128000D03*
X+9733796Y+9017000D03*
X+7620000Y+7493000D03*
X+9733796Y+8763000D03*
D84*
X+9724673Y+8128781D03*
X+9733796Y+8470957D03*
X+9719194Y+7747860D03*
X+5334264Y+8265835D03*
X+5334115Y+8763000D03*
D83*
X-6096000Y+3937000D03*
X-7556500Y+3365500D03*
X-6477000Y+3175000D03*
X-5397500Y+3619500D03*
X+254000Y+3429000D03*
X+508000Y+7239000D03*
X+2984500Y+7112000D03*
X+2159000Y+7112000D03*
X+2159000Y+6477000D03*
X-2857500Y+6032500D03*
X+2540000Y+6223000D03*
X+3302000Y+7747000D03*
X+2413000Y+7747000D03*
X+2413000Y+6096000D03*
D85*
X-7620000Y+10414000D03*
X-7073900Y+10414000D03*
X-6527800Y+10414000D03*
X-9398000Y+8128000D03*
X-9398000Y+8674100D03*
X-9398000Y+9220200D03*
X-5461000Y+10414000D03*
X-4914900Y+10414000D03*
X-4368800Y+10414000D03*
X-9398000Y+6096000D03*
X-9398000Y+6642100D03*
X-9398000Y+7188200D03*
X-3429000Y+10414000D03*
X-2882900Y+10414000D03*
X-2336800Y+10414000D03*
X-9398000Y+4064000D03*
X-9398000Y+4610100D03*
X-9398000Y+5156200D03*
D86*
X-5969000Y+7239000D03*
X-6223000Y+7239000D03*
X-6477000Y+7239000D03*
X-6731000Y+7239000D03*
X-6985000Y+7239000D03*
X-7239000Y+7239000D03*
X-7493000Y+7239000D03*
X-7493000Y+6477000D03*
X-7239000Y+6477000D03*
X-6985000Y+6477000D03*
X-6731000Y+6477000D03*
X-6477000Y+6477000D03*
X-6223000Y+6477000D03*
X-5969000Y+6477000D03*
X-3683000Y+7239000D03*
D87*
X-3937000Y+7239000D03*
X-4191000Y+7239000D03*
X-4445000Y+7239000D03*
X-4699000Y+7239000D03*
X-4953000Y+7239000D03*
X-5207000Y+7239000D03*
X-5207000Y+6477000D03*
X-4953000Y+6477000D03*
X-4699000Y+6477000D03*
X-4445000Y+6477000D03*
X-4191000Y+6477000D03*
X-3937000Y+6477000D03*
X-3683000Y+6477000D03*
D86*
X-1397000Y+7239000D03*
X-1651000Y+7239000D03*
X-1905000Y+7239000D03*
X-2159000Y+7239000D03*
X-2413000Y+7239000D03*
X-2667000Y+7239000D03*
X-2921000Y+7239000D03*
X-2921000Y+6477000D03*
X-2667000Y+6477000D03*
X-2413000Y+6477000D03*
X-2159000Y+6477000D03*
X-1905000Y+6477000D03*
X-1651000Y+6477000D03*
X-1397000Y+6477000D03*
D88*
X-5842000Y+7747000D03*
X-6858000Y+7747000D03*
X-3683000Y+7747000D03*
X-4699000Y+7747000D03*
X-1397000Y+7747000D03*
X-2413000Y+7747000D03*
D86*
X-7493000Y+7747000D03*
X-7239000Y+7747000D03*
X-5334000Y+7747000D03*
X-5080000Y+7747000D03*
X-3048000Y+7747000D03*
X-2794000Y+7747000D03*
D89*
X+9271000Y+4826000D03*
X+9271000Y+5334000D03*
X+9271000Y+5842000D03*
X+9271000Y+6350000D03*
X+7620000Y+11303000D03*
X+7112000Y+11303000D03*
X+6604000Y+11303000D03*
X+5588000Y+11303000D03*
X+5080000Y+11303000D03*
D90*
X+1484000Y+10414000D03*
X-1016000Y+10414000D03*
X+484000Y+10414000D03*
X-266000Y+10414000D03*
D88*
X+3683000Y+10414000D03*
X+3937000Y+10414000D03*
X+4191000Y+10414000D03*
X+2413000Y+10414000D03*
X+2667000Y+10414000D03*
X+2921000Y+10414000D03*
D86*
X+2921000Y+9779000D03*
X+2667000Y+9779000D03*
D91*
X+3687000Y+9398000D03*
X+4187000Y+9398000D03*
D88*
X+5842000Y+9906000D03*
X+4826000Y+9906000D03*
X+4445000Y+8636000D03*
X+3429000Y+8636000D03*
X+4826000Y+9525000D03*
X+5842000Y+9525000D03*
X+5842000Y+8763000D03*
X+4826000Y+8763000D03*
D86*
X-8890000Y+3175000D03*
X-8636000Y+3175000D03*
X-8382000Y+3175000D03*
X-8128000Y+3175000D03*
X-7874000Y+3175000D03*
X-7620000Y+3175000D03*
X-7366000Y+3175000D03*
X-7112000Y+3175000D03*
D92*
X-502000Y+6985000D03*
D89*
X+248000Y+6985000D03*
D92*
X-502000Y+4953000D03*
D89*
X+248000Y+4953000D03*
D92*
X-502000Y+8890000D03*
D89*
X+248000Y+8890000D03*
X+1274000Y+8890000D03*
X+1774000Y+8890000D03*
X+1147000Y+6985000D03*
X+1647000Y+6985000D03*
X+1147000Y+4953000D03*
X+1647000Y+4953000D03*
X-7239000Y+5715000D03*
X-4191000Y+5715000D03*
X-7239000Y+4826000D03*
X-4191000Y+4826000D03*
X-7239000Y+3937000D03*
X-4191000Y+3937000D03*
D86*
X-2413000Y+5842000D03*
X-1397000Y+5842000D03*
X-1397000Y+5334000D03*
X-2413000Y+5334000D03*
X-2413000Y+4699000D03*
X-1397000Y+4699000D03*
X-1397000Y+4191000D03*
X-2413000Y+4191000D03*
X-2413000Y+3810000D03*
X-1397000Y+3810000D03*
X-6604000Y+9017000D03*
D89*
X-7620000Y+9017000D03*
D86*
X-4318000Y+9017000D03*
D89*
X-5334000Y+9017000D03*
D86*
X-2286000Y+9017000D03*
D89*
X-3302000Y+9017000D03*
D86*
X-8001000Y+5080000D03*
X-8001000Y+4064000D03*
X-8128000Y+7112000D03*
D89*
X-8128000Y+6096000D03*
D86*
X-7874000Y+9144000D03*
D89*
X-7874000Y+8128000D03*
D86*
X-6223000Y+3175000D03*
X-5969000Y+3175000D03*
X-5715000Y+3175000D03*
X-5461000Y+3175000D03*
X-5207000Y+3175000D03*
X-4953000Y+3175000D03*
X-4699000Y+3175000D03*
X-4445000Y+3175000D03*
X+5334000Y+6604000D03*
X+5080000Y+6604000D03*
X+4826000Y+6604000D03*
X+4572000Y+6604000D03*
X+4318000Y+6604000D03*
X+4064000Y+6604000D03*
X+3810000Y+6604000D03*
X+3810000Y+5842000D03*
X+4064000Y+5842000D03*
X+4318000Y+5842000D03*
X+4572000Y+5842000D03*
X+4826000Y+5842000D03*
X+5080000Y+5842000D03*
X+5334000Y+5842000D03*
X+8128000Y+6223000D03*
X+7874000Y+6223000D03*
X+7620000Y+6223000D03*
X+7366000Y+6223000D03*
X+7112000Y+6223000D03*
X+6858000Y+6223000D03*
X+6604000Y+6223000D03*
X+6604000Y+5461000D03*
X+6858000Y+5461000D03*
X+7112000Y+5461000D03*
X+7366000Y+5461000D03*
X+7620000Y+5461000D03*
X+7874000Y+5461000D03*
X+8128000Y+5461000D03*
D88*
X+4699000Y+8001000D03*
X+4953000Y+8001000D03*
X+5334000Y+7747000D03*
X+5588000Y+7747000D03*
X+3683000Y+8128000D03*
X+3937000Y+8128000D03*
X+3048000Y+6604000D03*
X+3302000Y+6604000D03*
X+4191000Y+7874000D03*
X+4445000Y+7874000D03*
X+3683000Y+4572000D03*
X+3937000Y+4572000D03*
X+4699000Y+4572000D03*
X+4953000Y+4572000D03*
X+5207000Y+4572000D03*
X+5461000Y+4572000D03*
X+5715000Y+6985000D03*
X+5969000Y+6985000D03*
X+5842000Y+6350000D03*
X+6096000Y+6350000D03*
X+3048000Y+6096000D03*
X+3302000Y+6096000D03*
X+3048000Y+5588000D03*
X+3302000Y+5588000D03*
X+5842000Y+5842000D03*
X+6096000Y+5842000D03*
X+5842000Y+5461000D03*
X+6096000Y+5461000D03*
D86*
X+9017000Y+8763000D03*
X+10033000Y+8763000D03*
X+10033000Y+8509000D03*
X+9017000Y+8509000D03*
X+9017000Y+8255000D03*
X+10033000Y+8255000D03*
X+10033000Y+8001000D03*
X+9017000Y+8001000D03*
X+9017000Y+7747000D03*
X+10033000Y+7747000D03*
X+6350000Y+3429000D03*
X+6604000Y+3429000D03*
X+6858000Y+3429000D03*
X+7112000Y+3429000D03*
X+7366000Y+3429000D03*
X+7620000Y+3429000D03*
X+7874000Y+3429000D03*
X+8128000Y+3429000D03*
X+3937000Y+3429000D03*
X+4191000Y+3429000D03*
X+4445000Y+3429000D03*
X+4699000Y+3429000D03*
X+4953000Y+3429000D03*
X+5207000Y+3429000D03*
X+5461000Y+3429000D03*
X+5715000Y+3429000D03*
D89*
X+2032000Y+9652000D03*
X+1016000Y+9652000D03*
D86*
X+8509000Y+8763000D03*
X+7493000Y+8763000D03*
X+7493000Y+8509000D03*
X+8509000Y+8509000D03*
X+8509000Y+8255000D03*
X+7493000Y+8255000D03*
X+7493000Y+8001000D03*
X+8509000Y+8001000D03*
X+8509000Y+7747000D03*
X+7493000Y+7747000D03*
X+7112000Y+8763000D03*
X+6096000Y+8763000D03*
X+6096000Y+8509000D03*
X+7112000Y+8509000D03*
X+7112000Y+8255000D03*
X+6096000Y+8255000D03*
X+6096000Y+8001000D03*
X+7112000Y+8001000D03*
X+7112000Y+7747000D03*
X+6096000Y+7747000D03*
X-3683000Y+6223000D03*
X-3683000Y+5207000D03*
M02*
