G04 PROTEUS GERBER X2 FILE*
%TF.GenerationSoftware,Labcenter,Proteus,8.6-SP2-Build23525*%
%TF.CreationDate,2018-12-10T17:09:55+00:00*%
%TF.FileFunction,AssemblyDrawing,Top*%
%TF.FilePolarity,Positive*%
%TF.Part,Single*%
%FSLAX45Y45*%
%MOMM*%
G01*
%TA.AperFunction,Profile*%
%ADD32C,0.203200*%
%TA.AperFunction,Material*%
%ADD33C,0.203200*%
%ADD62C,0.316990*%
%ADD63C,0.533400*%
%ADD64C,0.172210*%
%ADD65C,0.176100*%
%ADD66C,0.621790*%
%ADD67C,0.514770*%
%ADD68C,0.345440*%
%ADD69C,0.342190*%
%ADD74C,0.240790*%
%ADD75C,0.050000*%
%ADD76C,0.263750*%
%ADD77C,0.393190*%
%ADD78C,0.413750*%
%ADD79C,0.106680*%
%ADD80C,0.078750*%
%ADD81C,0.164590*%
%ADD82C,0.132080*%
%TD.AperFunction*%
D32*
X-11811000Y+2667000D02*
X+10287000Y+2667000D01*
X+10287000Y+12573000D01*
X-11811000Y+12573000D01*
X-11811000Y+2667000D01*
X-10794444Y+3302000D02*
X-10795647Y+3332279D01*
X-10805415Y+3392839D01*
X-10825767Y+3453399D01*
X-10858733Y+3513959D01*
X-10908917Y+3574492D01*
X-10969477Y+3622832D01*
X-11030037Y+3654533D01*
X-11090597Y+3673875D01*
X-11151157Y+3682746D01*
X-11176000Y+3683556D01*
X-11557556Y+3302000D02*
X-11556353Y+3332279D01*
X-11546585Y+3392839D01*
X-11526233Y+3453399D01*
X-11493267Y+3513959D01*
X-11443083Y+3574492D01*
X-11382523Y+3622832D01*
X-11321963Y+3654533D01*
X-11261403Y+3673875D01*
X-11200843Y+3682746D01*
X-11176000Y+3683556D01*
X-11557556Y+3302000D02*
X-11556353Y+3271721D01*
X-11546585Y+3211161D01*
X-11526233Y+3150601D01*
X-11493267Y+3090041D01*
X-11443083Y+3029508D01*
X-11382523Y+2981168D01*
X-11321963Y+2949467D01*
X-11261403Y+2930125D01*
X-11200843Y+2921254D01*
X-11176000Y+2920444D01*
X-10794444Y+3302000D02*
X-10795647Y+3271721D01*
X-10805415Y+3211161D01*
X-10825767Y+3150601D01*
X-10858733Y+3090041D01*
X-10908917Y+3029508D01*
X-10969477Y+2981168D01*
X-11030037Y+2949467D01*
X-11090597Y+2930125D01*
X-11151157Y+2921254D01*
X-11176000Y+2920444D01*
X+9799609Y+3302000D02*
X+9798349Y+3333791D01*
X+9788120Y+3397374D01*
X+9766812Y+3460957D01*
X+9732314Y+3524540D01*
X+9679838Y+3588107D01*
X+9616255Y+3639127D01*
X+9552672Y+3672630D01*
X+9489089Y+3693143D01*
X+9425506Y+3702666D01*
X+9398000Y+3703609D01*
X+8996391Y+3302000D02*
X+8997651Y+3333791D01*
X+9007880Y+3397374D01*
X+9029188Y+3460957D01*
X+9063686Y+3524540D01*
X+9116162Y+3588107D01*
X+9179745Y+3639127D01*
X+9243328Y+3672630D01*
X+9306911Y+3693143D01*
X+9370494Y+3702666D01*
X+9398000Y+3703609D01*
X+8996391Y+3302000D02*
X+8997651Y+3270209D01*
X+9007880Y+3206626D01*
X+9029188Y+3143043D01*
X+9063686Y+3079460D01*
X+9116162Y+3015893D01*
X+9179745Y+2964873D01*
X+9243328Y+2931370D01*
X+9306911Y+2910857D01*
X+9370494Y+2901334D01*
X+9398000Y+2900391D01*
X+9799609Y+3302000D02*
X+9798349Y+3270209D01*
X+9788120Y+3206626D01*
X+9766812Y+3143043D01*
X+9732314Y+3079460D01*
X+9679838Y+3015893D01*
X+9616255Y+2964873D01*
X+9552672Y+2931370D01*
X+9489089Y+2910857D01*
X+9425506Y+2901334D01*
X+9398000Y+2900391D01*
X+9672609Y+11303000D02*
X+9671349Y+11334791D01*
X+9661120Y+11398374D01*
X+9639812Y+11461957D01*
X+9605314Y+11525540D01*
X+9552838Y+11589107D01*
X+9489255Y+11640127D01*
X+9425672Y+11673630D01*
X+9362089Y+11694143D01*
X+9298506Y+11703666D01*
X+9271000Y+11704609D01*
X+8869391Y+11303000D02*
X+8870651Y+11334791D01*
X+8880880Y+11398374D01*
X+8902188Y+11461957D01*
X+8936686Y+11525540D01*
X+8989162Y+11589107D01*
X+9052745Y+11640127D01*
X+9116328Y+11673630D01*
X+9179911Y+11694143D01*
X+9243494Y+11703666D01*
X+9271000Y+11704609D01*
X+8869391Y+11303000D02*
X+8870651Y+11271209D01*
X+8880880Y+11207626D01*
X+8902188Y+11144043D01*
X+8936686Y+11080460D01*
X+8989162Y+11016893D01*
X+9052745Y+10965873D01*
X+9116328Y+10932370D01*
X+9179911Y+10911857D01*
X+9243494Y+10902334D01*
X+9271000Y+10901391D01*
X+9672609Y+11303000D02*
X+9671349Y+11271209D01*
X+9661120Y+11207626D01*
X+9639812Y+11144043D01*
X+9605314Y+11080460D01*
X+9552838Y+11016893D01*
X+9489255Y+10965873D01*
X+9425672Y+10932370D01*
X+9362089Y+10911857D01*
X+9298506Y+10902334D01*
X+9271000Y+10901391D01*
X+2433609Y+3429000D02*
X+2432719Y+3451087D01*
X+2425494Y+3495263D01*
X+2410423Y+3539439D01*
X+2385946Y+3583615D01*
X+2348565Y+3627684D01*
X+2304389Y+3661964D01*
X+2260213Y+3684276D01*
X+2216037Y+3697620D01*
X+2171861Y+3703308D01*
X+2159000Y+3703609D01*
X+1884391Y+3429000D02*
X+1885281Y+3451087D01*
X+1892506Y+3495263D01*
X+1907577Y+3539439D01*
X+1932054Y+3583615D01*
X+1969435Y+3627684D01*
X+2013611Y+3661964D01*
X+2057787Y+3684276D01*
X+2101963Y+3697620D01*
X+2146139Y+3703308D01*
X+2159000Y+3703609D01*
X+1884391Y+3429000D02*
X+1885281Y+3406913D01*
X+1892506Y+3362737D01*
X+1907577Y+3318561D01*
X+1932054Y+3274385D01*
X+1969435Y+3230316D01*
X+2013611Y+3196036D01*
X+2057787Y+3173724D01*
X+2101963Y+3160380D01*
X+2146139Y+3154692D01*
X+2159000Y+3154391D01*
X+2433609Y+3429000D02*
X+2432719Y+3406913D01*
X+2425494Y+3362737D01*
X+2410423Y+3318561D01*
X+2385946Y+3274385D01*
X+2348565Y+3230316D01*
X+2304389Y+3196036D01*
X+2260213Y+3173724D01*
X+2216037Y+3160380D01*
X+2171861Y+3154692D01*
X+2159000Y+3154391D01*
D33*
X-7868660Y+10148440D02*
X-6273540Y+10148440D01*
X-6273540Y+10676760D01*
X-7868660Y+10676760D01*
X-7868660Y+10148440D01*
D62*
X-7324693Y+10444299D02*
X-7261295Y+10507697D01*
X-7197897Y+10507697D01*
X-7134499Y+10444299D01*
X-7134499Y+10380900D01*
X-7197897Y+10317502D01*
X-7261295Y+10317502D01*
X-7324693Y+10380900D01*
X-7324693Y+10444299D01*
X-7197897Y+10380900D02*
X-7134499Y+10317502D01*
X-7007702Y+10444299D02*
X-6944304Y+10507697D01*
X-6944304Y+10317502D01*
D33*
X-9660760Y+7879340D02*
X-9132440Y+7879340D01*
X-9132440Y+9474460D01*
X-9660760Y+9474460D01*
X-9660760Y+7879340D01*
D62*
X-9428299Y+8423307D02*
X-9491697Y+8486705D01*
X-9491697Y+8550103D01*
X-9428299Y+8613501D01*
X-9364900Y+8613501D01*
X-9301502Y+8550103D01*
X-9301502Y+8486705D01*
X-9364900Y+8423307D01*
X-9428299Y+8423307D01*
X-9364900Y+8550103D02*
X-9301502Y+8613501D01*
X-9459998Y+8708599D02*
X-9491697Y+8740298D01*
X-9491697Y+8835395D01*
X-9459998Y+8867094D01*
X-9428299Y+8867094D01*
X-9396600Y+8835395D01*
X-9396600Y+8740298D01*
X-9364900Y+8708599D01*
X-9301502Y+8708599D01*
X-9301502Y+8867094D01*
D33*
X-5709660Y+10148440D02*
X-4114540Y+10148440D01*
X-4114540Y+10676760D01*
X-5709660Y+10676760D01*
X-5709660Y+10148440D01*
D62*
X-5165693Y+10444299D02*
X-5102295Y+10507697D01*
X-5038897Y+10507697D01*
X-4975499Y+10444299D01*
X-4975499Y+10380900D01*
X-5038897Y+10317502D01*
X-5102295Y+10317502D01*
X-5165693Y+10380900D01*
X-5165693Y+10444299D01*
X-5038897Y+10380900D02*
X-4975499Y+10317502D01*
X-4880401Y+10475998D02*
X-4848702Y+10507697D01*
X-4753605Y+10507697D01*
X-4721906Y+10475998D01*
X-4721906Y+10444299D01*
X-4753605Y+10412600D01*
X-4721906Y+10380900D01*
X-4721906Y+10349201D01*
X-4753605Y+10317502D01*
X-4848702Y+10317502D01*
X-4880401Y+10349201D01*
X-4817003Y+10412600D02*
X-4753605Y+10412600D01*
D33*
X-9660760Y+5847340D02*
X-9132440Y+5847340D01*
X-9132440Y+7442460D01*
X-9660760Y+7442460D01*
X-9660760Y+5847340D01*
D62*
X-9428299Y+6391307D02*
X-9491697Y+6454705D01*
X-9491697Y+6518103D01*
X-9428299Y+6581501D01*
X-9364900Y+6581501D01*
X-9301502Y+6518103D01*
X-9301502Y+6454705D01*
X-9364900Y+6391307D01*
X-9428299Y+6391307D01*
X-9364900Y+6518103D02*
X-9301502Y+6581501D01*
X-9364900Y+6835094D02*
X-9364900Y+6644900D01*
X-9491697Y+6771696D01*
X-9301502Y+6771696D01*
D33*
X-3677660Y+10148440D02*
X-2082540Y+10148440D01*
X-2082540Y+10676760D01*
X-3677660Y+10676760D01*
X-3677660Y+10148440D01*
D62*
X-3133693Y+10444299D02*
X-3070295Y+10507697D01*
X-3006897Y+10507697D01*
X-2943499Y+10444299D01*
X-2943499Y+10380900D01*
X-3006897Y+10317502D01*
X-3070295Y+10317502D01*
X-3133693Y+10380900D01*
X-3133693Y+10444299D01*
X-3006897Y+10380900D02*
X-2943499Y+10317502D01*
X-2689906Y+10507697D02*
X-2848401Y+10507697D01*
X-2848401Y+10444299D01*
X-2721605Y+10444299D01*
X-2689906Y+10412600D01*
X-2689906Y+10349201D01*
X-2721605Y+10317502D01*
X-2816702Y+10317502D01*
X-2848401Y+10349201D01*
D33*
X-9660760Y+3815340D02*
X-9132440Y+3815340D01*
X-9132440Y+5410460D01*
X-9660760Y+5410460D01*
X-9660760Y+3815340D01*
D62*
X-9428299Y+4359307D02*
X-9491697Y+4422705D01*
X-9491697Y+4486103D01*
X-9428299Y+4549501D01*
X-9364900Y+4549501D01*
X-9301502Y+4486103D01*
X-9301502Y+4422705D01*
X-9364900Y+4359307D01*
X-9428299Y+4359307D01*
X-9364900Y+4486103D02*
X-9301502Y+4549501D01*
X-9459998Y+4803094D02*
X-9491697Y+4771395D01*
X-9491697Y+4676298D01*
X-9459998Y+4644599D01*
X-9333201Y+4644599D01*
X-9301502Y+4676298D01*
X-9301502Y+4771395D01*
X-9333201Y+4803094D01*
X-9364900Y+4803094D01*
X-9396600Y+4771395D01*
X-9396600Y+4644599D01*
D33*
X-7630160Y+6413500D02*
X-5831840Y+6413500D01*
X-5831840Y+7302500D01*
X-7630160Y+7302500D01*
X-7630160Y+6413500D01*
D63*
X-7157720Y+7018020D02*
X-7157720Y+6751320D01*
X-7104380Y+6697980D01*
X-6891020Y+6697980D01*
X-6837680Y+6751320D01*
X-6837680Y+7018020D01*
X-6624320Y+6911340D02*
X-6517640Y+7018020D01*
X-6517640Y+6697980D01*
D33*
X-5344160Y+6413500D02*
X-3545840Y+6413500D01*
X-3545840Y+7302500D01*
X-5344160Y+7302500D01*
X-5344160Y+6413500D01*
D63*
X-4871720Y+7018020D02*
X-4871720Y+6751320D01*
X-4818380Y+6697980D01*
X-4605020Y+6697980D01*
X-4551680Y+6751320D01*
X-4551680Y+7018020D01*
X-4391660Y+6964680D02*
X-4338320Y+7018020D01*
X-4178300Y+7018020D01*
X-4124960Y+6964680D01*
X-4124960Y+6911340D01*
X-4178300Y+6858000D01*
X-4338320Y+6858000D01*
X-4391660Y+6804660D01*
X-4391660Y+6697980D01*
X-4124960Y+6697980D01*
D33*
X-3058160Y+6413500D02*
X-1259840Y+6413500D01*
X-1259840Y+7302500D01*
X-3058160Y+7302500D01*
X-3058160Y+6413500D01*
D63*
X-2585720Y+7018020D02*
X-2585720Y+6751320D01*
X-2532380Y+6697980D01*
X-2319020Y+6697980D01*
X-2265680Y+6751320D01*
X-2265680Y+7018020D01*
X-2105660Y+6964680D02*
X-2052320Y+7018020D01*
X-1892300Y+7018020D01*
X-1838960Y+6964680D01*
X-1838960Y+6911340D01*
X-1892300Y+6858000D01*
X-1838960Y+6804660D01*
X-1838960Y+6751320D01*
X-1892300Y+6697980D01*
X-2052320Y+6697980D01*
X-2105660Y+6751320D01*
X-1998980Y+6858000D02*
X-1892300Y+6858000D01*
D33*
X-6972300Y+7604760D02*
X-5727700Y+7604760D01*
X-5727700Y+7891780D01*
X-6972300Y+7891780D01*
X-6972300Y+7604760D01*
D64*
X-6487769Y+7696606D02*
X-6487769Y+7799933D01*
X-6418885Y+7799933D01*
X-6384443Y+7765491D01*
X-6384443Y+7731048D01*
X-6418885Y+7696606D01*
X-6487769Y+7696606D01*
X-6315558Y+7765491D02*
X-6281116Y+7799933D01*
X-6281116Y+7696606D01*
D33*
X-4813300Y+7604760D02*
X-3568700Y+7604760D01*
X-3568700Y+7891780D01*
X-4813300Y+7891780D01*
X-4813300Y+7604760D01*
D64*
X-4328769Y+7696606D02*
X-4328769Y+7799933D01*
X-4259885Y+7799933D01*
X-4225443Y+7765491D01*
X-4225443Y+7731048D01*
X-4259885Y+7696606D01*
X-4328769Y+7696606D01*
X-4173779Y+7782712D02*
X-4156558Y+7799933D01*
X-4104895Y+7799933D01*
X-4087674Y+7782712D01*
X-4087674Y+7765491D01*
X-4104895Y+7748270D01*
X-4156558Y+7748270D01*
X-4173779Y+7731048D01*
X-4173779Y+7696606D01*
X-4087674Y+7696606D01*
D33*
X-2527300Y+7604760D02*
X-1282700Y+7604760D01*
X-1282700Y+7891780D01*
X-2527300Y+7891780D01*
X-2527300Y+7604760D01*
D64*
X-2042769Y+7696606D02*
X-2042769Y+7799933D01*
X-1973885Y+7799933D01*
X-1939443Y+7765491D01*
X-1939443Y+7731048D01*
X-1973885Y+7696606D01*
X-2042769Y+7696606D01*
X-1887779Y+7782712D02*
X-1870558Y+7799933D01*
X-1818895Y+7799933D01*
X-1801674Y+7782712D01*
X-1801674Y+7765491D01*
X-1818895Y+7748270D01*
X-1801674Y+7731048D01*
X-1801674Y+7713827D01*
X-1818895Y+7696606D01*
X-1870558Y+7696606D01*
X-1887779Y+7713827D01*
X-1853337Y+7748270D02*
X-1818895Y+7748270D01*
D33*
X-7630160Y+7482840D02*
X-7101840Y+7482840D01*
X-7101840Y+8011160D01*
X-7630160Y+8011160D01*
X-7630160Y+7482840D01*
D65*
X-7401221Y+7711778D02*
X-7418832Y+7694168D01*
X-7471663Y+7694168D01*
X-7506884Y+7729389D01*
X-7506884Y+7764610D01*
X-7471663Y+7799831D01*
X-7418832Y+7799831D01*
X-7401221Y+7782221D01*
X-7348390Y+7782221D02*
X-7330779Y+7799831D01*
X-7277948Y+7799831D01*
X-7260337Y+7782221D01*
X-7260337Y+7764610D01*
X-7277948Y+7747000D01*
X-7330779Y+7747000D01*
X-7348390Y+7729389D01*
X-7348390Y+7694168D01*
X-7260337Y+7694168D01*
D33*
X-5471160Y+7482840D02*
X-4942840Y+7482840D01*
X-4942840Y+8011160D01*
X-5471160Y+8011160D01*
X-5471160Y+7482840D01*
D65*
X-5242221Y+7711778D02*
X-5259832Y+7694168D01*
X-5312663Y+7694168D01*
X-5347884Y+7729389D01*
X-5347884Y+7764610D01*
X-5312663Y+7799831D01*
X-5259832Y+7799831D01*
X-5242221Y+7782221D01*
X-5101337Y+7729389D02*
X-5207000Y+7729389D01*
X-5136558Y+7799831D01*
X-5136558Y+7694168D01*
D33*
X-3185160Y+7482840D02*
X-2656840Y+7482840D01*
X-2656840Y+8011160D01*
X-3185160Y+8011160D01*
X-3185160Y+7482840D01*
D65*
X-2956221Y+7711778D02*
X-2973832Y+7694168D01*
X-3026663Y+7694168D01*
X-3061884Y+7729389D01*
X-3061884Y+7764610D01*
X-3026663Y+7799831D01*
X-2973832Y+7799831D01*
X-2956221Y+7782221D01*
X-2815337Y+7782221D02*
X-2832948Y+7799831D01*
X-2885779Y+7799831D01*
X-2903390Y+7782221D01*
X-2903390Y+7711778D01*
X-2885779Y+7694168D01*
X-2832948Y+7694168D01*
X-2815337Y+7711778D01*
X-2815337Y+7729389D01*
X-2832948Y+7747000D01*
X-2903390Y+7747000D01*
D33*
X+8752840Y+4561840D02*
X+9789160Y+4561840D01*
X+9789160Y+6614160D01*
X+8752840Y+6614160D01*
X+8752840Y+4561840D01*
D66*
X+9333180Y+5090567D02*
X+9395359Y+5090567D01*
X+9457538Y+5152746D01*
X+9457538Y+5401462D01*
X+9395359Y+5463641D01*
X+9084463Y+5463641D01*
X+9333180Y+5961074D02*
X+9333180Y+5588000D01*
X+9084463Y+5836716D01*
X+9457538Y+5836716D01*
D33*
X+6339840Y+10784840D02*
X+7884160Y+10784840D01*
X+7884160Y+11821160D01*
X+6339840Y+11821160D01*
X+6339840Y+10784840D01*
D67*
X+6700182Y+11251523D02*
X+6700182Y+11200045D01*
X+6751659Y+11148568D01*
X+6957568Y+11148568D01*
X+7009045Y+11200045D01*
X+7009045Y+11457432D01*
X+7420863Y+11457432D02*
X+7163477Y+11457432D01*
X+7163477Y+11354477D01*
X+7369386Y+11354477D01*
X+7420863Y+11303000D01*
X+7420863Y+11200045D01*
X+7369386Y+11148568D01*
X+7214954Y+11148568D01*
X+7163477Y+11200045D01*
D33*
X+4815840Y+10784840D02*
X+5852160Y+10784840D01*
X+5852160Y+11821160D01*
X+4815840Y+11821160D01*
X+4815840Y+10784840D01*
D68*
X+5057648Y+11268456D02*
X+5057648Y+11233912D01*
X+5092192Y+11199368D01*
X+5230368Y+11199368D01*
X+5264912Y+11233912D01*
X+5264912Y+11406632D01*
X+5368544Y+11372088D02*
X+5403088Y+11406632D01*
X+5506720Y+11406632D01*
X+5541264Y+11372088D01*
X+5541264Y+11337544D01*
X+5506720Y+11303000D01*
X+5403088Y+11303000D01*
X+5368544Y+11268456D01*
X+5368544Y+11199368D01*
X+5541264Y+11199368D01*
D33*
X-1276160Y+10053840D02*
X+1694160Y+10053840D01*
X+1694160Y+10624160D01*
X-1276160Y+10624160D01*
X-1276160Y+10053840D01*
D69*
X-201629Y+10236342D02*
X-201629Y+10441657D01*
X-30534Y+10441657D01*
X+3685Y+10407438D01*
X+3685Y+10373219D01*
X-30534Y+10339000D01*
X+3685Y+10304780D01*
X+3685Y+10270561D01*
X-30534Y+10236342D01*
X-201629Y+10236342D01*
X-201629Y+10339000D02*
X-30534Y+10339000D01*
X+72124Y+10236342D02*
X+72124Y+10441657D01*
X+243219Y+10441657D01*
X+277438Y+10407438D01*
X+277438Y+10373219D01*
X+243219Y+10339000D01*
X+72124Y+10339000D01*
X+243219Y+10339000D02*
X+277438Y+10304780D01*
X+277438Y+10236342D01*
X+414315Y+10373219D02*
X+482753Y+10441657D01*
X+482753Y+10236342D01*
D33*
X+3545840Y+10276840D02*
X+4328160Y+10276840D01*
X+4328160Y+10678160D01*
X+3545840Y+10678160D01*
X+3545840Y+10276840D01*
D74*
X+3744367Y+10549737D02*
X+3744367Y+10429341D01*
X+3768446Y+10405262D01*
X+3864762Y+10405262D01*
X+3888841Y+10429341D01*
X+3888841Y+10549737D01*
X+4081474Y+10453420D02*
X+3937000Y+10453420D01*
X+4033316Y+10549737D01*
X+4033316Y+10405262D01*
D33*
X+2275840Y+10276840D02*
X+3058160Y+10276840D01*
X+3058160Y+10678160D01*
X+2275840Y+10678160D01*
X+2275840Y+10276840D01*
D74*
X+2474367Y+10549737D02*
X+2474367Y+10429341D01*
X+2498446Y+10405262D01*
X+2594762Y+10405262D01*
X+2618841Y+10429341D01*
X+2618841Y+10549737D01*
X+2811474Y+10549737D02*
X+2691079Y+10549737D01*
X+2691079Y+10501579D01*
X+2787395Y+10501579D01*
X+2811474Y+10477500D01*
X+2811474Y+10429341D01*
X+2787395Y+10405262D01*
X+2715158Y+10405262D01*
X+2691079Y+10429341D01*
D33*
X+2529840Y+9514840D02*
X+3058160Y+9514840D01*
X+3058160Y+10043160D01*
X+2529840Y+10043160D01*
X+2529840Y+9514840D01*
D65*
X+2758779Y+9743778D02*
X+2741168Y+9726168D01*
X+2688337Y+9726168D01*
X+2653116Y+9761389D01*
X+2653116Y+9796610D01*
X+2688337Y+9831831D01*
X+2741168Y+9831831D01*
X+2758779Y+9814221D01*
X+2899663Y+9796610D02*
X+2882052Y+9779000D01*
X+2829221Y+9779000D01*
X+2811610Y+9796610D01*
X+2811610Y+9814221D01*
X+2829221Y+9831831D01*
X+2882052Y+9831831D01*
X+2899663Y+9814221D01*
X+2899663Y+9743778D01*
X+2882052Y+9726168D01*
X+2829221Y+9726168D01*
D75*
X+3962000Y+9398000D02*
X+3961914Y+9400076D01*
X+3961212Y+9404229D01*
X+3959742Y+9408382D01*
X+3957340Y+9412535D01*
X+3953667Y+9416634D01*
X+3949514Y+9419643D01*
X+3945361Y+9421560D01*
X+3941208Y+9422643D01*
X+3937055Y+9423000D01*
X+3937000Y+9423000D01*
X+3912000Y+9398000D02*
X+3912086Y+9400076D01*
X+3912788Y+9404229D01*
X+3914258Y+9408382D01*
X+3916660Y+9412535D01*
X+3920333Y+9416634D01*
X+3924486Y+9419643D01*
X+3928639Y+9421560D01*
X+3932792Y+9422643D01*
X+3936945Y+9423000D01*
X+3937000Y+9423000D01*
X+3912000Y+9398000D02*
X+3912086Y+9395924D01*
X+3912788Y+9391771D01*
X+3914258Y+9387618D01*
X+3916660Y+9383465D01*
X+3920333Y+9379366D01*
X+3924486Y+9376357D01*
X+3928639Y+9374440D01*
X+3932792Y+9373357D01*
X+3936945Y+9373000D01*
X+3937000Y+9373000D01*
X+3962000Y+9398000D02*
X+3961914Y+9395924D01*
X+3961212Y+9391771D01*
X+3959742Y+9387618D01*
X+3957340Y+9383465D01*
X+3953667Y+9379366D01*
X+3949514Y+9376357D01*
X+3945361Y+9374440D01*
X+3941208Y+9373357D01*
X+3937055Y+9373000D01*
X+3937000Y+9373000D01*
X+3972000Y+9398000D02*
X+3902000Y+9398000D01*
X+3937000Y+9433000D02*
X+3937000Y+9363000D01*
X+3412000Y+9923000D02*
X+3412000Y+9398000D01*
X+3414652Y+9343438D01*
X+3422446Y+9290655D01*
X+3435143Y+9239890D01*
X+3452503Y+9191384D01*
X+3474285Y+9145378D01*
X+3500248Y+9102111D01*
X+3530152Y+9061824D01*
X+3563758Y+9024758D01*
X+3600824Y+8991152D01*
X+3641111Y+8961248D01*
X+3684378Y+8935285D01*
X+3730384Y+8913503D01*
X+3778890Y+8896143D01*
X+3829655Y+8883446D01*
X+3882438Y+8875652D01*
X+3937000Y+8873000D01*
X+3991562Y+8875652D01*
X+4044345Y+8883446D01*
X+4095110Y+8896143D01*
X+4143616Y+8913503D01*
X+4189622Y+8935285D01*
X+4232889Y+8961248D01*
X+4273176Y+8991152D01*
X+4310242Y+9024758D01*
X+4343848Y+9061824D01*
X+4373752Y+9102111D01*
X+4399715Y+9145378D01*
X+4421497Y+9191384D01*
X+4438857Y+9239890D01*
X+4451554Y+9290655D01*
X+4459348Y+9343438D01*
X+4462000Y+9398000D01*
X+4459348Y+9452562D01*
X+4451554Y+9505345D01*
X+4438857Y+9556110D01*
X+4421497Y+9604616D01*
X+4399715Y+9650622D01*
X+4373752Y+9693889D01*
X+4343848Y+9734176D01*
X+4310242Y+9771242D01*
X+4273176Y+9804848D01*
X+4232889Y+9834752D01*
X+4189622Y+9860715D01*
X+4143616Y+9882497D01*
X+4095110Y+9899857D01*
X+4044345Y+9912554D01*
X+3991562Y+9920348D01*
X+3937000Y+9923000D01*
X+3412000Y+9923000D01*
D76*
X+3778750Y+9345250D02*
X+3752375Y+9318875D01*
X+3673250Y+9318875D01*
X+3620500Y+9371625D01*
X+3620500Y+9424375D01*
X+3673250Y+9477125D01*
X+3752375Y+9477125D01*
X+3778750Y+9450750D01*
X+3884250Y+9424375D02*
X+3937000Y+9477125D01*
X+3937000Y+9318875D01*
X+4095250Y+9398000D02*
X+4068875Y+9424375D01*
X+4068875Y+9450750D01*
X+4095250Y+9477125D01*
X+4174375Y+9477125D01*
X+4200750Y+9450750D01*
X+4200750Y+9424375D01*
X+4174375Y+9398000D01*
X+4095250Y+9398000D01*
X+4068875Y+9371625D01*
X+4068875Y+9345250D01*
X+4095250Y+9318875D01*
X+4174375Y+9318875D01*
X+4200750Y+9345250D01*
X+4200750Y+9371625D01*
X+4174375Y+9398000D01*
D33*
X+4711700Y+9763760D02*
X+5956300Y+9763760D01*
X+5956300Y+10050780D01*
X+4711700Y+10050780D01*
X+4711700Y+9763760D01*
D64*
X+5127347Y+9855606D02*
X+5127347Y+9958933D01*
X+5196231Y+9958933D01*
X+5230673Y+9924491D01*
X+5230673Y+9890048D01*
X+5196231Y+9855606D01*
X+5127347Y+9855606D01*
X+5299558Y+9924491D02*
X+5334000Y+9958933D01*
X+5334000Y+9855606D01*
X+5402885Y+9872827D02*
X+5402885Y+9941712D01*
X+5420106Y+9958933D01*
X+5488990Y+9958933D01*
X+5506211Y+9941712D01*
X+5506211Y+9872827D01*
X+5488990Y+9855606D01*
X+5420106Y+9855606D01*
X+5402885Y+9872827D01*
X+5402885Y+9855606D02*
X+5506211Y+9958933D01*
D33*
X+3314700Y+8493760D02*
X+4559300Y+8493760D01*
X+4559300Y+8780780D01*
X+3314700Y+8780780D01*
X+3314700Y+8493760D01*
D64*
X+3730347Y+8585606D02*
X+3730347Y+8688933D01*
X+3799231Y+8688933D01*
X+3833673Y+8654491D01*
X+3833673Y+8620048D01*
X+3799231Y+8585606D01*
X+3730347Y+8585606D01*
X+3902558Y+8654491D02*
X+3937000Y+8688933D01*
X+3937000Y+8585606D01*
X+4040327Y+8654491D02*
X+4074769Y+8688933D01*
X+4074769Y+8585606D01*
D33*
X+4711700Y+9380220D02*
X+5956300Y+9380220D01*
X+5956300Y+9667240D01*
X+4711700Y+9667240D01*
X+4711700Y+9380220D01*
D64*
X+5127347Y+9472066D02*
X+5127347Y+9575393D01*
X+5196231Y+9575393D01*
X+5230673Y+9540951D01*
X+5230673Y+9506508D01*
X+5196231Y+9472066D01*
X+5127347Y+9472066D01*
X+5299558Y+9540951D02*
X+5334000Y+9575393D01*
X+5334000Y+9472066D01*
X+5420106Y+9558172D02*
X+5437327Y+9575393D01*
X+5488990Y+9575393D01*
X+5506211Y+9558172D01*
X+5506211Y+9540951D01*
X+5488990Y+9523730D01*
X+5437327Y+9523730D01*
X+5420106Y+9506508D01*
X+5420106Y+9472066D01*
X+5506211Y+9472066D01*
D33*
X+4711700Y+8620760D02*
X+5956300Y+8620760D01*
X+5956300Y+8907780D01*
X+4711700Y+8907780D01*
X+4711700Y+8620760D01*
D64*
X+5127347Y+8712606D02*
X+5127347Y+8815933D01*
X+5196231Y+8815933D01*
X+5230673Y+8781491D01*
X+5230673Y+8747048D01*
X+5196231Y+8712606D01*
X+5127347Y+8712606D01*
X+5299558Y+8781491D02*
X+5334000Y+8815933D01*
X+5334000Y+8712606D01*
X+5420106Y+8798712D02*
X+5437327Y+8815933D01*
X+5488990Y+8815933D01*
X+5506211Y+8798712D01*
X+5506211Y+8781491D01*
X+5488990Y+8764270D01*
X+5506211Y+8747048D01*
X+5506211Y+8729827D01*
X+5488990Y+8712606D01*
X+5437327Y+8712606D01*
X+5420106Y+8729827D01*
X+5454548Y+8764270D02*
X+5488990Y+8764270D01*
D33*
X-9154160Y+2910840D02*
X-6847840Y+2910840D01*
X-6847840Y+3566160D01*
X-9154160Y+3566160D01*
X-9154160Y+2910840D01*
D77*
X-8315553Y+3199180D02*
X-8315553Y+3159861D01*
X-8276234Y+3120542D01*
X-8118958Y+3120542D01*
X-8079639Y+3159861D01*
X-8079639Y+3356457D01*
X-7922362Y+3277819D02*
X-7843724Y+3356457D01*
X-7843724Y+3120542D01*
D75*
X-102000Y+6985000D02*
X-102086Y+6987076D01*
X-102788Y+6991229D01*
X-104258Y+6995382D01*
X-106660Y+6999535D01*
X-110333Y+7003634D01*
X-114486Y+7006643D01*
X-118639Y+7008560D01*
X-122792Y+7009643D01*
X-126945Y+7010000D01*
X-127000Y+7010000D01*
X-152000Y+6985000D02*
X-151914Y+6987076D01*
X-151212Y+6991229D01*
X-149742Y+6995382D01*
X-147340Y+6999535D01*
X-143667Y+7003634D01*
X-139514Y+7006643D01*
X-135361Y+7008560D01*
X-131208Y+7009643D01*
X-127055Y+7010000D01*
X-127000Y+7010000D01*
X-152000Y+6985000D02*
X-151914Y+6982924D01*
X-151212Y+6978771D01*
X-149742Y+6974618D01*
X-147340Y+6970465D01*
X-143667Y+6966366D01*
X-139514Y+6963357D01*
X-135361Y+6961440D01*
X-131208Y+6960357D01*
X-127055Y+6960000D01*
X-127000Y+6960000D01*
X-102000Y+6985000D02*
X-102086Y+6982924D01*
X-102788Y+6978771D01*
X-104258Y+6974618D01*
X-106660Y+6970465D01*
X-110333Y+6966366D01*
X-114486Y+6963357D01*
X-118639Y+6961440D01*
X-122792Y+6960357D01*
X-126945Y+6960000D01*
X-127000Y+6960000D01*
X-92000Y+6985000D02*
X-162000Y+6985000D01*
X-127000Y+7020000D02*
X-127000Y+6950000D01*
X-952000Y+7810000D02*
X-952000Y+6985000D01*
X-947833Y+6899260D01*
X-935585Y+6816314D01*
X-915632Y+6736541D01*
X-888352Y+6660318D01*
X-854124Y+6588022D01*
X-813325Y+6520031D01*
X-766332Y+6456724D01*
X-713523Y+6398477D01*
X-655276Y+6345668D01*
X-591968Y+6298675D01*
X-523978Y+6257876D01*
X-451682Y+6223648D01*
X-375459Y+6196368D01*
X-295686Y+6176415D01*
X-212740Y+6164167D01*
X-127000Y+6160000D01*
X-41260Y+6164167D01*
X+41686Y+6176415D01*
X+121459Y+6196368D01*
X+197682Y+6223648D01*
X+269978Y+6257876D01*
X+337968Y+6298675D01*
X+401276Y+6345668D01*
X+459523Y+6398477D01*
X+512332Y+6456724D01*
X+559325Y+6520031D01*
X+600124Y+6588022D01*
X+634352Y+6660318D01*
X+661632Y+6736541D01*
X+681585Y+6816314D01*
X+693833Y+6899260D01*
X+698000Y+6985000D01*
X+693833Y+7070740D01*
X+681585Y+7153686D01*
X+661632Y+7233459D01*
X+634352Y+7309682D01*
X+600124Y+7381978D01*
X+559325Y+7449969D01*
X+512332Y+7513276D01*
X+459523Y+7571523D01*
X+401276Y+7624332D01*
X+337968Y+7671325D01*
X+269978Y+7712124D01*
X+197682Y+7746352D01*
X+121459Y+7773632D01*
X+41686Y+7793585D01*
X-41260Y+7805833D01*
X-127000Y+7810000D01*
X-952000Y+7810000D01*
D78*
X-375250Y+6902250D02*
X-416625Y+6860875D01*
X-540750Y+6860875D01*
X-623500Y+6943625D01*
X-623500Y+7026375D01*
X-540750Y+7109125D01*
X-416625Y+7109125D01*
X-375250Y+7067750D01*
X-209750Y+7026375D02*
X-127000Y+7109125D01*
X-127000Y+6860875D01*
X+121250Y+7026375D02*
X+204000Y+7109125D01*
X+204000Y+6860875D01*
D75*
X-102000Y+4953000D02*
X-102086Y+4955076D01*
X-102788Y+4959229D01*
X-104258Y+4963382D01*
X-106660Y+4967535D01*
X-110333Y+4971634D01*
X-114486Y+4974643D01*
X-118639Y+4976560D01*
X-122792Y+4977643D01*
X-126945Y+4978000D01*
X-127000Y+4978000D01*
X-152000Y+4953000D02*
X-151914Y+4955076D01*
X-151212Y+4959229D01*
X-149742Y+4963382D01*
X-147340Y+4967535D01*
X-143667Y+4971634D01*
X-139514Y+4974643D01*
X-135361Y+4976560D01*
X-131208Y+4977643D01*
X-127055Y+4978000D01*
X-127000Y+4978000D01*
X-152000Y+4953000D02*
X-151914Y+4950924D01*
X-151212Y+4946771D01*
X-149742Y+4942618D01*
X-147340Y+4938465D01*
X-143667Y+4934366D01*
X-139514Y+4931357D01*
X-135361Y+4929440D01*
X-131208Y+4928357D01*
X-127055Y+4928000D01*
X-127000Y+4928000D01*
X-102000Y+4953000D02*
X-102086Y+4950924D01*
X-102788Y+4946771D01*
X-104258Y+4942618D01*
X-106660Y+4938465D01*
X-110333Y+4934366D01*
X-114486Y+4931357D01*
X-118639Y+4929440D01*
X-122792Y+4928357D01*
X-126945Y+4928000D01*
X-127000Y+4928000D01*
X-92000Y+4953000D02*
X-162000Y+4953000D01*
X-127000Y+4988000D02*
X-127000Y+4918000D01*
X-952000Y+5778000D02*
X-952000Y+4953000D01*
X-947833Y+4867260D01*
X-935585Y+4784314D01*
X-915632Y+4704541D01*
X-888352Y+4628318D01*
X-854124Y+4556022D01*
X-813325Y+4488031D01*
X-766332Y+4424724D01*
X-713523Y+4366477D01*
X-655276Y+4313668D01*
X-591968Y+4266675D01*
X-523978Y+4225876D01*
X-451682Y+4191648D01*
X-375459Y+4164368D01*
X-295686Y+4144415D01*
X-212740Y+4132167D01*
X-127000Y+4128000D01*
X-41260Y+4132167D01*
X+41686Y+4144415D01*
X+121459Y+4164368D01*
X+197682Y+4191648D01*
X+269978Y+4225876D01*
X+337968Y+4266675D01*
X+401276Y+4313668D01*
X+459523Y+4366477D01*
X+512332Y+4424724D01*
X+559325Y+4488031D01*
X+600124Y+4556022D01*
X+634352Y+4628318D01*
X+661632Y+4704541D01*
X+681585Y+4784314D01*
X+693833Y+4867260D01*
X+698000Y+4953000D01*
X+693833Y+5038740D01*
X+681585Y+5121686D01*
X+661632Y+5201459D01*
X+634352Y+5277682D01*
X+600124Y+5349978D01*
X+559325Y+5417969D01*
X+512332Y+5481276D01*
X+459523Y+5539523D01*
X+401276Y+5592332D01*
X+337968Y+5639325D01*
X+269978Y+5680124D01*
X+197682Y+5714352D01*
X+121459Y+5741632D01*
X+41686Y+5761585D01*
X-41260Y+5773833D01*
X-127000Y+5778000D01*
X-952000Y+5778000D01*
D78*
X-375250Y+4870250D02*
X-416625Y+4828875D01*
X-540750Y+4828875D01*
X-623500Y+4911625D01*
X-623500Y+4994375D01*
X-540750Y+5077125D01*
X-416625Y+5077125D01*
X-375250Y+5035750D01*
X-209750Y+4994375D02*
X-127000Y+5077125D01*
X-127000Y+4828875D01*
X+79875Y+5035750D02*
X+121250Y+5077125D01*
X+245375Y+5077125D01*
X+286750Y+5035750D01*
X+286750Y+4994375D01*
X+245375Y+4953000D01*
X+121250Y+4953000D01*
X+79875Y+4911625D01*
X+79875Y+4828875D01*
X+286750Y+4828875D01*
D75*
X-102000Y+8890000D02*
X-102086Y+8892076D01*
X-102788Y+8896229D01*
X-104258Y+8900382D01*
X-106660Y+8904535D01*
X-110333Y+8908634D01*
X-114486Y+8911643D01*
X-118639Y+8913560D01*
X-122792Y+8914643D01*
X-126945Y+8915000D01*
X-127000Y+8915000D01*
X-152000Y+8890000D02*
X-151914Y+8892076D01*
X-151212Y+8896229D01*
X-149742Y+8900382D01*
X-147340Y+8904535D01*
X-143667Y+8908634D01*
X-139514Y+8911643D01*
X-135361Y+8913560D01*
X-131208Y+8914643D01*
X-127055Y+8915000D01*
X-127000Y+8915000D01*
X-152000Y+8890000D02*
X-151914Y+8887924D01*
X-151212Y+8883771D01*
X-149742Y+8879618D01*
X-147340Y+8875465D01*
X-143667Y+8871366D01*
X-139514Y+8868357D01*
X-135361Y+8866440D01*
X-131208Y+8865357D01*
X-127055Y+8865000D01*
X-127000Y+8865000D01*
X-102000Y+8890000D02*
X-102086Y+8887924D01*
X-102788Y+8883771D01*
X-104258Y+8879618D01*
X-106660Y+8875465D01*
X-110333Y+8871366D01*
X-114486Y+8868357D01*
X-118639Y+8866440D01*
X-122792Y+8865357D01*
X-126945Y+8865000D01*
X-127000Y+8865000D01*
X-92000Y+8890000D02*
X-162000Y+8890000D01*
X-127000Y+8925000D02*
X-127000Y+8855000D01*
X-952000Y+9715000D02*
X-952000Y+8890000D01*
X-947833Y+8804260D01*
X-935585Y+8721314D01*
X-915632Y+8641541D01*
X-888352Y+8565318D01*
X-854124Y+8493022D01*
X-813325Y+8425031D01*
X-766332Y+8361724D01*
X-713523Y+8303477D01*
X-655276Y+8250668D01*
X-591968Y+8203675D01*
X-523978Y+8162876D01*
X-451682Y+8128648D01*
X-375459Y+8101368D01*
X-295686Y+8081415D01*
X-212740Y+8069167D01*
X-127000Y+8065000D01*
X-41260Y+8069167D01*
X+41686Y+8081415D01*
X+121459Y+8101368D01*
X+197682Y+8128648D01*
X+269978Y+8162876D01*
X+337968Y+8203675D01*
X+401276Y+8250668D01*
X+459523Y+8303477D01*
X+512332Y+8361724D01*
X+559325Y+8425031D01*
X+600124Y+8493022D01*
X+634352Y+8565318D01*
X+661632Y+8641541D01*
X+681585Y+8721314D01*
X+693833Y+8804260D01*
X+698000Y+8890000D01*
X+693833Y+8975740D01*
X+681585Y+9058686D01*
X+661632Y+9138459D01*
X+634352Y+9214682D01*
X+600124Y+9286978D01*
X+559325Y+9354969D01*
X+512332Y+9418276D01*
X+459523Y+9476523D01*
X+401276Y+9529332D01*
X+337968Y+9576325D01*
X+269978Y+9617124D01*
X+197682Y+9651352D01*
X+121459Y+9678632D01*
X+41686Y+9698585D01*
X-41260Y+9710833D01*
X-127000Y+9715000D01*
X-952000Y+9715000D01*
D78*
X-375250Y+8807250D02*
X-416625Y+8765875D01*
X-540750Y+8765875D01*
X-623500Y+8848625D01*
X-623500Y+8931375D01*
X-540750Y+9014125D01*
X-416625Y+9014125D01*
X-375250Y+8972750D01*
X-209750Y+8931375D02*
X-127000Y+9014125D01*
X-127000Y+8765875D01*
X+38500Y+8807250D02*
X+38500Y+8972750D01*
X+79875Y+9014125D01*
X+245375Y+9014125D01*
X+286750Y+8972750D01*
X+286750Y+8807250D01*
X+245375Y+8765875D01*
X+79875Y+8765875D01*
X+38500Y+8807250D01*
X+38500Y+8765875D02*
X+286750Y+9014125D01*
D75*
X+1549000Y+8890000D02*
X+1548914Y+8892076D01*
X+1548212Y+8896229D01*
X+1546742Y+8900382D01*
X+1544340Y+8904535D01*
X+1540667Y+8908634D01*
X+1536514Y+8911643D01*
X+1532361Y+8913560D01*
X+1528208Y+8914643D01*
X+1524055Y+8915000D01*
X+1524000Y+8915000D01*
X+1499000Y+8890000D02*
X+1499086Y+8892076D01*
X+1499788Y+8896229D01*
X+1501258Y+8900382D01*
X+1503660Y+8904535D01*
X+1507333Y+8908634D01*
X+1511486Y+8911643D01*
X+1515639Y+8913560D01*
X+1519792Y+8914643D01*
X+1523945Y+8915000D01*
X+1524000Y+8915000D01*
X+1499000Y+8890000D02*
X+1499086Y+8887924D01*
X+1499788Y+8883771D01*
X+1501258Y+8879618D01*
X+1503660Y+8875465D01*
X+1507333Y+8871366D01*
X+1511486Y+8868357D01*
X+1515639Y+8866440D01*
X+1519792Y+8865357D01*
X+1523945Y+8865000D01*
X+1524000Y+8865000D01*
X+1549000Y+8890000D02*
X+1548914Y+8887924D01*
X+1548212Y+8883771D01*
X+1546742Y+8879618D01*
X+1544340Y+8875465D01*
X+1540667Y+8871366D01*
X+1536514Y+8868357D01*
X+1532361Y+8866440D01*
X+1528208Y+8865357D01*
X+1524055Y+8865000D01*
X+1524000Y+8865000D01*
X+1559000Y+8890000D02*
X+1489000Y+8890000D01*
X+1524000Y+8925000D02*
X+1524000Y+8855000D01*
X+999000Y+9415000D02*
X+999000Y+8890000D01*
X+1001652Y+8835438D01*
X+1009446Y+8782655D01*
X+1022143Y+8731890D01*
X+1039503Y+8683384D01*
X+1061285Y+8637378D01*
X+1087248Y+8594111D01*
X+1117152Y+8553824D01*
X+1150758Y+8516758D01*
X+1187824Y+8483152D01*
X+1228111Y+8453248D01*
X+1271378Y+8427285D01*
X+1317384Y+8405503D01*
X+1365890Y+8388143D01*
X+1416655Y+8375446D01*
X+1469438Y+8367652D01*
X+1524000Y+8365000D01*
X+1578562Y+8367652D01*
X+1631345Y+8375446D01*
X+1682110Y+8388143D01*
X+1730616Y+8405503D01*
X+1776622Y+8427285D01*
X+1819889Y+8453248D01*
X+1860176Y+8483152D01*
X+1897242Y+8516758D01*
X+1930848Y+8553824D01*
X+1960752Y+8594111D01*
X+1986715Y+8637378D01*
X+2008497Y+8683384D01*
X+2025857Y+8731890D01*
X+2038554Y+8782655D01*
X+2046348Y+8835438D01*
X+2049000Y+8890000D01*
X+2046348Y+8944562D01*
X+2038554Y+8997345D01*
X+2025857Y+9048110D01*
X+2008497Y+9096616D01*
X+1986715Y+9142622D01*
X+1960752Y+9185889D01*
X+1930848Y+9226176D01*
X+1897242Y+9263242D01*
X+1860176Y+9296848D01*
X+1819889Y+9326752D01*
X+1776622Y+9352715D01*
X+1730616Y+9374497D01*
X+1682110Y+9391857D01*
X+1631345Y+9404554D01*
X+1578562Y+9412348D01*
X+1524000Y+9415000D01*
X+999000Y+9415000D01*
D76*
X+1365750Y+8837250D02*
X+1339375Y+8810875D01*
X+1260250Y+8810875D01*
X+1207500Y+8863625D01*
X+1207500Y+8916375D01*
X+1260250Y+8969125D01*
X+1339375Y+8969125D01*
X+1365750Y+8942750D01*
X+1471250Y+8916375D02*
X+1524000Y+8969125D01*
X+1524000Y+8810875D01*
X+1787750Y+8863625D02*
X+1629500Y+8863625D01*
X+1735000Y+8969125D01*
X+1735000Y+8810875D01*
D75*
X+1422000Y+6985000D02*
X+1421914Y+6987076D01*
X+1421212Y+6991229D01*
X+1419742Y+6995382D01*
X+1417340Y+6999535D01*
X+1413667Y+7003634D01*
X+1409514Y+7006643D01*
X+1405361Y+7008560D01*
X+1401208Y+7009643D01*
X+1397055Y+7010000D01*
X+1397000Y+7010000D01*
X+1372000Y+6985000D02*
X+1372086Y+6987076D01*
X+1372788Y+6991229D01*
X+1374258Y+6995382D01*
X+1376660Y+6999535D01*
X+1380333Y+7003634D01*
X+1384486Y+7006643D01*
X+1388639Y+7008560D01*
X+1392792Y+7009643D01*
X+1396945Y+7010000D01*
X+1397000Y+7010000D01*
X+1372000Y+6985000D02*
X+1372086Y+6982924D01*
X+1372788Y+6978771D01*
X+1374258Y+6974618D01*
X+1376660Y+6970465D01*
X+1380333Y+6966366D01*
X+1384486Y+6963357D01*
X+1388639Y+6961440D01*
X+1392792Y+6960357D01*
X+1396945Y+6960000D01*
X+1397000Y+6960000D01*
X+1422000Y+6985000D02*
X+1421914Y+6982924D01*
X+1421212Y+6978771D01*
X+1419742Y+6974618D01*
X+1417340Y+6970465D01*
X+1413667Y+6966366D01*
X+1409514Y+6963357D01*
X+1405361Y+6961440D01*
X+1401208Y+6960357D01*
X+1397055Y+6960000D01*
X+1397000Y+6960000D01*
X+1432000Y+6985000D02*
X+1362000Y+6985000D01*
X+1397000Y+7020000D02*
X+1397000Y+6950000D01*
X+872000Y+7510000D02*
X+872000Y+6985000D01*
X+874652Y+6930438D01*
X+882446Y+6877655D01*
X+895143Y+6826890D01*
X+912503Y+6778384D01*
X+934285Y+6732378D01*
X+960248Y+6689111D01*
X+990152Y+6648824D01*
X+1023758Y+6611758D01*
X+1060824Y+6578152D01*
X+1101111Y+6548248D01*
X+1144378Y+6522285D01*
X+1190384Y+6500503D01*
X+1238890Y+6483143D01*
X+1289655Y+6470446D01*
X+1342438Y+6462652D01*
X+1397000Y+6460000D01*
X+1451562Y+6462652D01*
X+1504345Y+6470446D01*
X+1555110Y+6483143D01*
X+1603616Y+6500503D01*
X+1649622Y+6522285D01*
X+1692889Y+6548248D01*
X+1733176Y+6578152D01*
X+1770242Y+6611758D01*
X+1803848Y+6648824D01*
X+1833752Y+6689111D01*
X+1859715Y+6732378D01*
X+1881497Y+6778384D01*
X+1898857Y+6826890D01*
X+1911554Y+6877655D01*
X+1919348Y+6930438D01*
X+1922000Y+6985000D01*
X+1919348Y+7039562D01*
X+1911554Y+7092345D01*
X+1898857Y+7143110D01*
X+1881497Y+7191616D01*
X+1859715Y+7237622D01*
X+1833752Y+7280889D01*
X+1803848Y+7321176D01*
X+1770242Y+7358242D01*
X+1733176Y+7391848D01*
X+1692889Y+7421752D01*
X+1649622Y+7447715D01*
X+1603616Y+7469497D01*
X+1555110Y+7486857D01*
X+1504345Y+7499554D01*
X+1451562Y+7507348D01*
X+1397000Y+7510000D01*
X+872000Y+7510000D01*
D76*
X+1238750Y+6932250D02*
X+1212375Y+6905875D01*
X+1133250Y+6905875D01*
X+1080500Y+6958625D01*
X+1080500Y+7011375D01*
X+1133250Y+7064125D01*
X+1212375Y+7064125D01*
X+1238750Y+7037750D01*
X+1344250Y+7011375D02*
X+1397000Y+7064125D01*
X+1397000Y+6905875D01*
X+1660750Y+7064125D02*
X+1528875Y+7064125D01*
X+1528875Y+7011375D01*
X+1634375Y+7011375D01*
X+1660750Y+6985000D01*
X+1660750Y+6932250D01*
X+1634375Y+6905875D01*
X+1555250Y+6905875D01*
X+1528875Y+6932250D01*
D75*
X+1422000Y+4953000D02*
X+1421914Y+4955076D01*
X+1421212Y+4959229D01*
X+1419742Y+4963382D01*
X+1417340Y+4967535D01*
X+1413667Y+4971634D01*
X+1409514Y+4974643D01*
X+1405361Y+4976560D01*
X+1401208Y+4977643D01*
X+1397055Y+4978000D01*
X+1397000Y+4978000D01*
X+1372000Y+4953000D02*
X+1372086Y+4955076D01*
X+1372788Y+4959229D01*
X+1374258Y+4963382D01*
X+1376660Y+4967535D01*
X+1380333Y+4971634D01*
X+1384486Y+4974643D01*
X+1388639Y+4976560D01*
X+1392792Y+4977643D01*
X+1396945Y+4978000D01*
X+1397000Y+4978000D01*
X+1372000Y+4953000D02*
X+1372086Y+4950924D01*
X+1372788Y+4946771D01*
X+1374258Y+4942618D01*
X+1376660Y+4938465D01*
X+1380333Y+4934366D01*
X+1384486Y+4931357D01*
X+1388639Y+4929440D01*
X+1392792Y+4928357D01*
X+1396945Y+4928000D01*
X+1397000Y+4928000D01*
X+1422000Y+4953000D02*
X+1421914Y+4950924D01*
X+1421212Y+4946771D01*
X+1419742Y+4942618D01*
X+1417340Y+4938465D01*
X+1413667Y+4934366D01*
X+1409514Y+4931357D01*
X+1405361Y+4929440D01*
X+1401208Y+4928357D01*
X+1397055Y+4928000D01*
X+1397000Y+4928000D01*
X+1432000Y+4953000D02*
X+1362000Y+4953000D01*
X+1397000Y+4988000D02*
X+1397000Y+4918000D01*
X+872000Y+5478000D02*
X+872000Y+4953000D01*
X+874652Y+4898438D01*
X+882446Y+4845655D01*
X+895143Y+4794890D01*
X+912503Y+4746384D01*
X+934285Y+4700378D01*
X+960248Y+4657111D01*
X+990152Y+4616824D01*
X+1023758Y+4579758D01*
X+1060824Y+4546152D01*
X+1101111Y+4516248D01*
X+1144378Y+4490285D01*
X+1190384Y+4468503D01*
X+1238890Y+4451143D01*
X+1289655Y+4438446D01*
X+1342438Y+4430652D01*
X+1397000Y+4428000D01*
X+1451562Y+4430652D01*
X+1504345Y+4438446D01*
X+1555110Y+4451143D01*
X+1603616Y+4468503D01*
X+1649622Y+4490285D01*
X+1692889Y+4516248D01*
X+1733176Y+4546152D01*
X+1770242Y+4579758D01*
X+1803848Y+4616824D01*
X+1833752Y+4657111D01*
X+1859715Y+4700378D01*
X+1881497Y+4746384D01*
X+1898857Y+4794890D01*
X+1911554Y+4845655D01*
X+1919348Y+4898438D01*
X+1922000Y+4953000D01*
X+1919348Y+5007562D01*
X+1911554Y+5060345D01*
X+1898857Y+5111110D01*
X+1881497Y+5159616D01*
X+1859715Y+5205622D01*
X+1833752Y+5248889D01*
X+1803848Y+5289176D01*
X+1770242Y+5326242D01*
X+1733176Y+5359848D01*
X+1692889Y+5389752D01*
X+1649622Y+5415715D01*
X+1603616Y+5437497D01*
X+1555110Y+5454857D01*
X+1504345Y+5467554D01*
X+1451562Y+5475348D01*
X+1397000Y+5478000D01*
X+872000Y+5478000D01*
D76*
X+1238750Y+4900250D02*
X+1212375Y+4873875D01*
X+1133250Y+4873875D01*
X+1080500Y+4926625D01*
X+1080500Y+4979375D01*
X+1133250Y+5032125D01*
X+1212375Y+5032125D01*
X+1238750Y+5005750D01*
X+1344250Y+4979375D02*
X+1397000Y+5032125D01*
X+1397000Y+4873875D01*
X+1660750Y+5005750D02*
X+1634375Y+5032125D01*
X+1555250Y+5032125D01*
X+1528875Y+5005750D01*
X+1528875Y+4900250D01*
X+1555250Y+4873875D01*
X+1634375Y+4873875D01*
X+1660750Y+4900250D01*
X+1660750Y+4926625D01*
X+1634375Y+4953000D01*
X+1528875Y+4953000D01*
D33*
X-7353300Y+5450840D02*
X-4076700Y+5450840D01*
X-4076700Y+5979160D01*
X-7353300Y+5979160D01*
X-7353300Y+5450840D01*
D62*
X-5968593Y+5619902D02*
X-5968593Y+5810097D01*
X-5810098Y+5810097D01*
X-5778399Y+5778398D01*
X-5778399Y+5746699D01*
X-5810098Y+5715000D01*
X-5968593Y+5715000D01*
X-5810098Y+5715000D02*
X-5778399Y+5683300D01*
X-5778399Y+5619902D01*
X-5683301Y+5810097D02*
X-5524806Y+5810097D01*
X-5524806Y+5778398D01*
X-5683301Y+5619902D01*
D33*
X-7353300Y+4561840D02*
X-4076700Y+4561840D01*
X-4076700Y+5090160D01*
X-7353300Y+5090160D01*
X-7353300Y+4561840D01*
D62*
X-5968593Y+4730902D02*
X-5968593Y+4921097D01*
X-5810098Y+4921097D01*
X-5778399Y+4889398D01*
X-5778399Y+4857699D01*
X-5810098Y+4826000D01*
X-5968593Y+4826000D01*
X-5810098Y+4826000D02*
X-5778399Y+4794300D01*
X-5778399Y+4730902D01*
X-5651602Y+4826000D02*
X-5683301Y+4857699D01*
X-5683301Y+4889398D01*
X-5651602Y+4921097D01*
X-5556505Y+4921097D01*
X-5524806Y+4889398D01*
X-5524806Y+4857699D01*
X-5556505Y+4826000D01*
X-5651602Y+4826000D01*
X-5683301Y+4794300D01*
X-5683301Y+4762601D01*
X-5651602Y+4730902D01*
X-5556505Y+4730902D01*
X-5524806Y+4762601D01*
X-5524806Y+4794300D01*
X-5556505Y+4826000D01*
D33*
X-7353300Y+3672840D02*
X-4076700Y+3672840D01*
X-4076700Y+4201160D01*
X-7353300Y+4201160D01*
X-7353300Y+3672840D01*
D62*
X-5968593Y+3841902D02*
X-5968593Y+4032097D01*
X-5810098Y+4032097D01*
X-5778399Y+4000398D01*
X-5778399Y+3968699D01*
X-5810098Y+3937000D01*
X-5968593Y+3937000D01*
X-5810098Y+3937000D02*
X-5778399Y+3905300D01*
X-5778399Y+3841902D01*
X-5524806Y+3968699D02*
X-5556505Y+3937000D01*
X-5651602Y+3937000D01*
X-5683301Y+3968699D01*
X-5683301Y+4000398D01*
X-5651602Y+4032097D01*
X-5556505Y+4032097D01*
X-5524806Y+4000398D01*
X-5524806Y+3873601D01*
X-5556505Y+3841902D01*
X-5651602Y+3841902D01*
D33*
X-2501900Y+5753100D02*
X-1308100Y+5753100D01*
X-1308100Y+5930900D01*
X-2501900Y+5930900D01*
X-2501900Y+5753100D01*
D79*
X-2033016Y+5809996D02*
X-2033016Y+5874004D01*
X-1979676Y+5874004D01*
X-1969008Y+5863336D01*
X-1969008Y+5852668D01*
X-1979676Y+5842000D01*
X-2033016Y+5842000D01*
X-1979676Y+5842000D02*
X-1969008Y+5831332D01*
X-1969008Y+5809996D01*
X-1926336Y+5852668D02*
X-1905000Y+5874004D01*
X-1905000Y+5809996D01*
X-1862328Y+5820664D02*
X-1862328Y+5863336D01*
X-1851660Y+5874004D01*
X-1808988Y+5874004D01*
X-1798320Y+5863336D01*
X-1798320Y+5820664D01*
X-1808988Y+5809996D01*
X-1851660Y+5809996D01*
X-1862328Y+5820664D01*
X-1862328Y+5809996D02*
X-1798320Y+5874004D01*
D33*
X-2501900Y+5245100D02*
X-1308100Y+5245100D01*
X-1308100Y+5422900D01*
X-2501900Y+5422900D01*
X-2501900Y+5245100D01*
D79*
X-2033016Y+5301996D02*
X-2033016Y+5366004D01*
X-1979676Y+5366004D01*
X-1969008Y+5355336D01*
X-1969008Y+5344668D01*
X-1979676Y+5334000D01*
X-2033016Y+5334000D01*
X-1979676Y+5334000D02*
X-1969008Y+5323332D01*
X-1969008Y+5301996D01*
X-1926336Y+5344668D02*
X-1905000Y+5366004D01*
X-1905000Y+5301996D01*
X-1840992Y+5344668D02*
X-1819656Y+5366004D01*
X-1819656Y+5301996D01*
D33*
X-2501900Y+4610100D02*
X-1308100Y+4610100D01*
X-1308100Y+4787900D01*
X-2501900Y+4787900D01*
X-2501900Y+4610100D01*
D79*
X-2033016Y+4666996D02*
X-2033016Y+4731004D01*
X-1979676Y+4731004D01*
X-1969008Y+4720336D01*
X-1969008Y+4709668D01*
X-1979676Y+4699000D01*
X-2033016Y+4699000D01*
X-1979676Y+4699000D02*
X-1969008Y+4688332D01*
X-1969008Y+4666996D01*
X-1926336Y+4709668D02*
X-1905000Y+4731004D01*
X-1905000Y+4666996D01*
X-1851660Y+4720336D02*
X-1840992Y+4731004D01*
X-1808988Y+4731004D01*
X-1798320Y+4720336D01*
X-1798320Y+4709668D01*
X-1808988Y+4699000D01*
X-1840992Y+4699000D01*
X-1851660Y+4688332D01*
X-1851660Y+4666996D01*
X-1798320Y+4666996D01*
D33*
X-2501900Y+4102100D02*
X-1308100Y+4102100D01*
X-1308100Y+4279900D01*
X-2501900Y+4279900D01*
X-2501900Y+4102100D01*
D79*
X-2033016Y+4158996D02*
X-2033016Y+4223004D01*
X-1979676Y+4223004D01*
X-1969008Y+4212336D01*
X-1969008Y+4201668D01*
X-1979676Y+4191000D01*
X-2033016Y+4191000D01*
X-1979676Y+4191000D02*
X-1969008Y+4180332D01*
X-1969008Y+4158996D01*
X-1926336Y+4201668D02*
X-1905000Y+4223004D01*
X-1905000Y+4158996D01*
X-1851660Y+4212336D02*
X-1840992Y+4223004D01*
X-1808988Y+4223004D01*
X-1798320Y+4212336D01*
X-1798320Y+4201668D01*
X-1808988Y+4191000D01*
X-1798320Y+4180332D01*
X-1798320Y+4169664D01*
X-1808988Y+4158996D01*
X-1840992Y+4158996D01*
X-1851660Y+4169664D01*
X-1830324Y+4191000D02*
X-1808988Y+4191000D01*
D33*
X-2501900Y+3721100D02*
X-1308100Y+3721100D01*
X-1308100Y+3898900D01*
X-2501900Y+3898900D01*
X-2501900Y+3721100D01*
D79*
X-2033016Y+3777996D02*
X-2033016Y+3842004D01*
X-1979676Y+3842004D01*
X-1969008Y+3831336D01*
X-1969008Y+3820668D01*
X-1979676Y+3810000D01*
X-2033016Y+3810000D01*
X-1979676Y+3810000D02*
X-1969008Y+3799332D01*
X-1969008Y+3777996D01*
X-1926336Y+3820668D02*
X-1905000Y+3842004D01*
X-1905000Y+3777996D01*
X-1798320Y+3799332D02*
X-1862328Y+3799332D01*
X-1819656Y+3842004D01*
X-1819656Y+3777996D01*
D33*
X-7708900Y+8928100D02*
X-6515100Y+8928100D01*
X-6515100Y+9105900D01*
X-7708900Y+9105900D01*
X-7708900Y+8928100D01*
D79*
X-7240016Y+8984996D02*
X-7240016Y+9049004D01*
X-7186676Y+9049004D01*
X-7176008Y+9038336D01*
X-7176008Y+9027668D01*
X-7186676Y+9017000D01*
X-7240016Y+9017000D01*
X-7186676Y+9017000D02*
X-7176008Y+9006332D01*
X-7176008Y+8984996D01*
X-7133336Y+9027668D02*
X-7112000Y+9049004D01*
X-7112000Y+8984996D01*
X-7005320Y+9049004D02*
X-7058660Y+9049004D01*
X-7058660Y+9027668D01*
X-7015988Y+9027668D01*
X-7005320Y+9017000D01*
X-7005320Y+8995664D01*
X-7015988Y+8984996D01*
X-7047992Y+8984996D01*
X-7058660Y+8995664D01*
D33*
X-5422900Y+8928100D02*
X-4229100Y+8928100D01*
X-4229100Y+9105900D01*
X-5422900Y+9105900D01*
X-5422900Y+8928100D01*
D79*
X-4954016Y+8984996D02*
X-4954016Y+9049004D01*
X-4900676Y+9049004D01*
X-4890008Y+9038336D01*
X-4890008Y+9027668D01*
X-4900676Y+9017000D01*
X-4954016Y+9017000D01*
X-4900676Y+9017000D02*
X-4890008Y+9006332D01*
X-4890008Y+8984996D01*
X-4847336Y+9027668D02*
X-4826000Y+9049004D01*
X-4826000Y+8984996D01*
X-4719320Y+9038336D02*
X-4729988Y+9049004D01*
X-4761992Y+9049004D01*
X-4772660Y+9038336D01*
X-4772660Y+8995664D01*
X-4761992Y+8984996D01*
X-4729988Y+8984996D01*
X-4719320Y+8995664D01*
X-4719320Y+9006332D01*
X-4729988Y+9017000D01*
X-4772660Y+9017000D01*
D33*
X-3390900Y+8928100D02*
X-2197100Y+8928100D01*
X-2197100Y+9105900D01*
X-3390900Y+9105900D01*
X-3390900Y+8928100D01*
D79*
X-2922016Y+8984996D02*
X-2922016Y+9049004D01*
X-2868676Y+9049004D01*
X-2858008Y+9038336D01*
X-2858008Y+9027668D01*
X-2868676Y+9017000D01*
X-2922016Y+9017000D01*
X-2868676Y+9017000D02*
X-2858008Y+9006332D01*
X-2858008Y+8984996D01*
X-2815336Y+9027668D02*
X-2794000Y+9049004D01*
X-2794000Y+8984996D01*
X-2740660Y+9049004D02*
X-2687320Y+9049004D01*
X-2687320Y+9038336D01*
X-2740660Y+8984996D01*
D33*
X-8089900Y+3975100D02*
X-7912100Y+3975100D01*
X-7912100Y+5168900D01*
X-8089900Y+5168900D01*
X-8089900Y+3975100D01*
D79*
X-7968996Y+4443984D02*
X-8033004Y+4443984D01*
X-8033004Y+4497324D01*
X-8022336Y+4507992D01*
X-8011668Y+4507992D01*
X-8001000Y+4497324D01*
X-8001000Y+4443984D01*
X-8001000Y+4497324D02*
X-7990332Y+4507992D01*
X-7968996Y+4507992D01*
X-8011668Y+4550664D02*
X-8033004Y+4572000D01*
X-7968996Y+4572000D01*
X-8001000Y+4636008D02*
X-8011668Y+4625340D01*
X-8022336Y+4625340D01*
X-8033004Y+4636008D01*
X-8033004Y+4668012D01*
X-8022336Y+4678680D01*
X-8011668Y+4678680D01*
X-8001000Y+4668012D01*
X-8001000Y+4636008D01*
X-7990332Y+4625340D01*
X-7979664Y+4625340D01*
X-7968996Y+4636008D01*
X-7968996Y+4668012D01*
X-7979664Y+4678680D01*
X-7990332Y+4678680D01*
X-8001000Y+4668012D01*
D33*
X-8216900Y+6007100D02*
X-8039100Y+6007100D01*
X-8039100Y+7200900D01*
X-8216900Y+7200900D01*
X-8216900Y+6007100D01*
D79*
X-8095996Y+6475984D02*
X-8160004Y+6475984D01*
X-8160004Y+6529324D01*
X-8149336Y+6539992D01*
X-8138668Y+6539992D01*
X-8128000Y+6529324D01*
X-8128000Y+6475984D01*
X-8128000Y+6529324D02*
X-8117332Y+6539992D01*
X-8095996Y+6539992D01*
X-8138668Y+6582664D02*
X-8160004Y+6604000D01*
X-8095996Y+6604000D01*
X-8138668Y+6710680D02*
X-8128000Y+6700012D01*
X-8128000Y+6668008D01*
X-8138668Y+6657340D01*
X-8149336Y+6657340D01*
X-8160004Y+6668008D01*
X-8160004Y+6700012D01*
X-8149336Y+6710680D01*
X-8106664Y+6710680D01*
X-8095996Y+6700012D01*
X-8095996Y+6668008D01*
D33*
X-7962900Y+8039100D02*
X-7785100Y+8039100D01*
X-7785100Y+9232900D01*
X-7962900Y+9232900D01*
X-7962900Y+8039100D01*
D79*
X-7841996Y+8507984D02*
X-7906004Y+8507984D01*
X-7906004Y+8561324D01*
X-7895336Y+8571992D01*
X-7884668Y+8571992D01*
X-7874000Y+8561324D01*
X-7874000Y+8507984D01*
X-7874000Y+8561324D02*
X-7863332Y+8571992D01*
X-7841996Y+8571992D01*
X-7895336Y+8603996D02*
X-7906004Y+8614664D01*
X-7906004Y+8646668D01*
X-7895336Y+8657336D01*
X-7884668Y+8657336D01*
X-7874000Y+8646668D01*
X-7874000Y+8614664D01*
X-7863332Y+8603996D01*
X-7841996Y+8603996D01*
X-7841996Y+8657336D01*
X-7852664Y+8678672D02*
X-7895336Y+8678672D01*
X-7906004Y+8689340D01*
X-7906004Y+8732012D01*
X-7895336Y+8742680D01*
X-7852664Y+8742680D01*
X-7841996Y+8732012D01*
X-7841996Y+8689340D01*
X-7852664Y+8678672D01*
X-7841996Y+8678672D02*
X-7906004Y+8742680D01*
D33*
X-6487160Y+2910840D02*
X-4180840Y+2910840D01*
X-4180840Y+3566160D01*
X-6487160Y+3566160D01*
X-6487160Y+2910840D01*
D77*
X-5648553Y+3199180D02*
X-5648553Y+3159861D01*
X-5609234Y+3120542D01*
X-5451958Y+3120542D01*
X-5412639Y+3159861D01*
X-5412639Y+3356457D01*
X-5294681Y+3356457D02*
X-5098086Y+3356457D01*
X-5098086Y+3317138D01*
X-5294681Y+3120542D01*
D33*
X+3672840Y+5778500D02*
X+5471160Y+5778500D01*
X+5471160Y+6667500D01*
X+3672840Y+6667500D01*
X+3672840Y+5778500D01*
D63*
X+4145280Y+6383020D02*
X+4145280Y+6116320D01*
X+4198620Y+6062980D01*
X+4411980Y+6062980D01*
X+4465320Y+6116320D01*
X+4465320Y+6383020D01*
X+4892040Y+6329680D02*
X+4838700Y+6383020D01*
X+4678680Y+6383020D01*
X+4625340Y+6329680D01*
X+4625340Y+6116320D01*
X+4678680Y+6062980D01*
X+4838700Y+6062980D01*
X+4892040Y+6116320D01*
X+4892040Y+6169660D01*
X+4838700Y+6223000D01*
X+4625340Y+6223000D01*
D33*
X+6466840Y+5397500D02*
X+8265160Y+5397500D01*
X+8265160Y+6286500D01*
X+6466840Y+6286500D01*
X+6466840Y+5397500D01*
D63*
X+6939280Y+6002020D02*
X+6939280Y+5735320D01*
X+6992620Y+5681980D01*
X+7205980Y+5681980D01*
X+7259320Y+5735320D01*
X+7259320Y+6002020D01*
X+7419340Y+6002020D02*
X+7686040Y+6002020D01*
X+7686040Y+5948680D01*
X+7419340Y+5681980D01*
D75*
X+5005000Y+6910000D02*
X+5315000Y+6910000D01*
X+5315000Y+7060000D01*
X+5005000Y+7060000D01*
X+5005000Y+6910000D01*
X+5160000Y+7035000D02*
X+5160000Y+6935000D01*
X+5210000Y+6985000D02*
X+5110000Y+6985000D01*
D80*
X+5065500Y+6961375D02*
X+5065500Y+7008625D01*
X+5104875Y+7008625D01*
X+5112750Y+7000750D01*
X+5112750Y+6992875D01*
X+5104875Y+6985000D01*
X+5065500Y+6985000D01*
X+5104875Y+6985000D02*
X+5112750Y+6977125D01*
X+5112750Y+6961375D01*
X+5136375Y+7000750D02*
X+5144250Y+7008625D01*
X+5167875Y+7008625D01*
X+5175750Y+7000750D01*
X+5175750Y+6992875D01*
X+5167875Y+6985000D01*
X+5144250Y+6985000D01*
X+5136375Y+6977125D01*
X+5136375Y+6961375D01*
X+5175750Y+6961375D01*
X+5207250Y+6992875D02*
X+5223000Y+7008625D01*
X+5223000Y+6961375D01*
D75*
X+4751000Y+7164000D02*
X+5061000Y+7164000D01*
X+5061000Y+7314000D01*
X+4751000Y+7314000D01*
X+4751000Y+7164000D01*
X+4906000Y+7289000D02*
X+4906000Y+7189000D01*
X+4956000Y+7239000D02*
X+4856000Y+7239000D01*
D80*
X+4811500Y+7215375D02*
X+4811500Y+7262625D01*
X+4850875Y+7262625D01*
X+4858750Y+7254750D01*
X+4858750Y+7246875D01*
X+4850875Y+7239000D01*
X+4811500Y+7239000D01*
X+4850875Y+7239000D02*
X+4858750Y+7231125D01*
X+4858750Y+7215375D01*
X+4882375Y+7254750D02*
X+4890250Y+7262625D01*
X+4913875Y+7262625D01*
X+4921750Y+7254750D01*
X+4921750Y+7246875D01*
X+4913875Y+7239000D01*
X+4890250Y+7239000D01*
X+4882375Y+7231125D01*
X+4882375Y+7215375D01*
X+4921750Y+7215375D01*
X+4945375Y+7254750D02*
X+4953250Y+7262625D01*
X+4976875Y+7262625D01*
X+4984750Y+7254750D01*
X+4984750Y+7246875D01*
X+4976875Y+7239000D01*
X+4953250Y+7239000D01*
X+4945375Y+7231125D01*
X+4945375Y+7215375D01*
X+4984750Y+7215375D01*
D75*
X+4370000Y+7164000D02*
X+4680000Y+7164000D01*
X+4680000Y+7314000D01*
X+4370000Y+7314000D01*
X+4370000Y+7164000D01*
X+4525000Y+7289000D02*
X+4525000Y+7189000D01*
X+4575000Y+7239000D02*
X+4475000Y+7239000D01*
D80*
X+4430500Y+7215375D02*
X+4430500Y+7262625D01*
X+4469875Y+7262625D01*
X+4477750Y+7254750D01*
X+4477750Y+7246875D01*
X+4469875Y+7239000D01*
X+4430500Y+7239000D01*
X+4469875Y+7239000D02*
X+4477750Y+7231125D01*
X+4477750Y+7215375D01*
X+4501375Y+7254750D02*
X+4509250Y+7262625D01*
X+4532875Y+7262625D01*
X+4540750Y+7254750D01*
X+4540750Y+7246875D01*
X+4532875Y+7239000D01*
X+4509250Y+7239000D01*
X+4501375Y+7231125D01*
X+4501375Y+7215375D01*
X+4540750Y+7215375D01*
X+4564375Y+7254750D02*
X+4572250Y+7262625D01*
X+4595875Y+7262625D01*
X+4603750Y+7254750D01*
X+4603750Y+7246875D01*
X+4595875Y+7239000D01*
X+4603750Y+7231125D01*
X+4603750Y+7223250D01*
X+4595875Y+7215375D01*
X+4572250Y+7215375D01*
X+4564375Y+7223250D01*
X+4580125Y+7239000D02*
X+4595875Y+7239000D01*
D75*
X+4624000Y+7545000D02*
X+4934000Y+7545000D01*
X+4934000Y+7695000D01*
X+4624000Y+7695000D01*
X+4624000Y+7545000D01*
X+4779000Y+7670000D02*
X+4779000Y+7570000D01*
X+4829000Y+7620000D02*
X+4729000Y+7620000D01*
D80*
X+4684500Y+7596375D02*
X+4684500Y+7643625D01*
X+4723875Y+7643625D01*
X+4731750Y+7635750D01*
X+4731750Y+7627875D01*
X+4723875Y+7620000D01*
X+4684500Y+7620000D01*
X+4723875Y+7620000D02*
X+4731750Y+7612125D01*
X+4731750Y+7596375D01*
X+4755375Y+7635750D02*
X+4763250Y+7643625D01*
X+4786875Y+7643625D01*
X+4794750Y+7635750D01*
X+4794750Y+7627875D01*
X+4786875Y+7620000D01*
X+4763250Y+7620000D01*
X+4755375Y+7612125D01*
X+4755375Y+7596375D01*
X+4794750Y+7596375D01*
X+4857750Y+7612125D02*
X+4810500Y+7612125D01*
X+4842000Y+7643625D01*
X+4842000Y+7596375D01*
D75*
X+5259000Y+7164000D02*
X+5569000Y+7164000D01*
X+5569000Y+7314000D01*
X+5259000Y+7314000D01*
X+5259000Y+7164000D01*
X+5414000Y+7289000D02*
X+5414000Y+7189000D01*
X+5464000Y+7239000D02*
X+5364000Y+7239000D01*
D80*
X+5319500Y+7215375D02*
X+5319500Y+7262625D01*
X+5358875Y+7262625D01*
X+5366750Y+7254750D01*
X+5366750Y+7246875D01*
X+5358875Y+7239000D01*
X+5319500Y+7239000D01*
X+5358875Y+7239000D02*
X+5366750Y+7231125D01*
X+5366750Y+7215375D01*
X+5390375Y+7254750D02*
X+5398250Y+7262625D01*
X+5421875Y+7262625D01*
X+5429750Y+7254750D01*
X+5429750Y+7246875D01*
X+5421875Y+7239000D01*
X+5398250Y+7239000D01*
X+5390375Y+7231125D01*
X+5390375Y+7215375D01*
X+5429750Y+7215375D01*
X+5492750Y+7262625D02*
X+5453375Y+7262625D01*
X+5453375Y+7246875D01*
X+5484875Y+7246875D01*
X+5492750Y+7239000D01*
X+5492750Y+7223250D01*
X+5484875Y+7215375D01*
X+5461250Y+7215375D01*
X+5453375Y+7223250D01*
D75*
X+4624000Y+6783000D02*
X+4934000Y+6783000D01*
X+4934000Y+6933000D01*
X+4624000Y+6933000D01*
X+4624000Y+6783000D01*
X+4779000Y+6908000D02*
X+4779000Y+6808000D01*
X+4829000Y+6858000D02*
X+4729000Y+6858000D01*
D80*
X+4684500Y+6834375D02*
X+4684500Y+6881625D01*
X+4723875Y+6881625D01*
X+4731750Y+6873750D01*
X+4731750Y+6865875D01*
X+4723875Y+6858000D01*
X+4684500Y+6858000D01*
X+4723875Y+6858000D02*
X+4731750Y+6850125D01*
X+4731750Y+6834375D01*
X+4755375Y+6873750D02*
X+4763250Y+6881625D01*
X+4786875Y+6881625D01*
X+4794750Y+6873750D01*
X+4794750Y+6865875D01*
X+4786875Y+6858000D01*
X+4763250Y+6858000D01*
X+4755375Y+6850125D01*
X+4755375Y+6834375D01*
X+4794750Y+6834375D01*
X+4857750Y+6873750D02*
X+4849875Y+6881625D01*
X+4826250Y+6881625D01*
X+4818375Y+6873750D01*
X+4818375Y+6842250D01*
X+4826250Y+6834375D01*
X+4849875Y+6834375D01*
X+4857750Y+6842250D01*
X+4857750Y+6850125D01*
X+4849875Y+6858000D01*
X+4818375Y+6858000D01*
D75*
X+4078000Y+7060000D02*
X+3768000Y+7060000D01*
X+3768000Y+6910000D01*
X+4078000Y+6910000D01*
X+4078000Y+7060000D01*
X+3923000Y+6935000D02*
X+3923000Y+7035000D01*
X+3873000Y+6985000D02*
X+3973000Y+6985000D01*
D80*
X+3828500Y+6961375D02*
X+3828500Y+7008625D01*
X+3867875Y+7008625D01*
X+3875750Y+7000750D01*
X+3875750Y+6992875D01*
X+3867875Y+6985000D01*
X+3828500Y+6985000D01*
X+3867875Y+6985000D02*
X+3875750Y+6977125D01*
X+3875750Y+6961375D01*
X+3899375Y+7000750D02*
X+3907250Y+7008625D01*
X+3930875Y+7008625D01*
X+3938750Y+7000750D01*
X+3938750Y+6992875D01*
X+3930875Y+6985000D01*
X+3907250Y+6985000D01*
X+3899375Y+6977125D01*
X+3899375Y+6961375D01*
X+3938750Y+6961375D01*
X+3962375Y+7008625D02*
X+4001750Y+7008625D01*
X+4001750Y+7000750D01*
X+3962375Y+6961375D01*
D75*
X+4116000Y+6783000D02*
X+4426000Y+6783000D01*
X+4426000Y+6933000D01*
X+4116000Y+6933000D01*
X+4116000Y+6783000D01*
X+4271000Y+6908000D02*
X+4271000Y+6808000D01*
X+4321000Y+6858000D02*
X+4221000Y+6858000D01*
D80*
X+4176500Y+6834375D02*
X+4176500Y+6881625D01*
X+4215875Y+6881625D01*
X+4223750Y+6873750D01*
X+4223750Y+6865875D01*
X+4215875Y+6858000D01*
X+4176500Y+6858000D01*
X+4215875Y+6858000D02*
X+4223750Y+6850125D01*
X+4223750Y+6834375D01*
X+4247375Y+6873750D02*
X+4255250Y+6881625D01*
X+4278875Y+6881625D01*
X+4286750Y+6873750D01*
X+4286750Y+6865875D01*
X+4278875Y+6858000D01*
X+4255250Y+6858000D01*
X+4247375Y+6850125D01*
X+4247375Y+6834375D01*
X+4286750Y+6834375D01*
X+4318250Y+6858000D02*
X+4310375Y+6865875D01*
X+4310375Y+6873750D01*
X+4318250Y+6881625D01*
X+4341875Y+6881625D01*
X+4349750Y+6873750D01*
X+4349750Y+6865875D01*
X+4341875Y+6858000D01*
X+4318250Y+6858000D01*
X+4310375Y+6850125D01*
X+4310375Y+6842250D01*
X+4318250Y+6834375D01*
X+4341875Y+6834375D01*
X+4349750Y+6842250D01*
X+4349750Y+6850125D01*
X+4341875Y+6858000D01*
D75*
X+3989000Y+7164000D02*
X+4299000Y+7164000D01*
X+4299000Y+7314000D01*
X+3989000Y+7314000D01*
X+3989000Y+7164000D01*
X+4144000Y+7289000D02*
X+4144000Y+7189000D01*
X+4194000Y+7239000D02*
X+4094000Y+7239000D01*
D80*
X+4049500Y+7215375D02*
X+4049500Y+7262625D01*
X+4088875Y+7262625D01*
X+4096750Y+7254750D01*
X+4096750Y+7246875D01*
X+4088875Y+7239000D01*
X+4049500Y+7239000D01*
X+4088875Y+7239000D02*
X+4096750Y+7231125D01*
X+4096750Y+7215375D01*
X+4120375Y+7254750D02*
X+4128250Y+7262625D01*
X+4151875Y+7262625D01*
X+4159750Y+7254750D01*
X+4159750Y+7246875D01*
X+4151875Y+7239000D01*
X+4128250Y+7239000D01*
X+4120375Y+7231125D01*
X+4120375Y+7215375D01*
X+4159750Y+7215375D01*
X+4222750Y+7246875D02*
X+4214875Y+7239000D01*
X+4191250Y+7239000D01*
X+4183375Y+7246875D01*
X+4183375Y+7254750D01*
X+4191250Y+7262625D01*
X+4214875Y+7262625D01*
X+4222750Y+7254750D01*
X+4222750Y+7223250D01*
X+4214875Y+7215375D01*
X+4191250Y+7215375D01*
D75*
X+3608000Y+7672000D02*
X+3918000Y+7672000D01*
X+3918000Y+7822000D01*
X+3608000Y+7822000D01*
X+3608000Y+7672000D01*
X+3763000Y+7797000D02*
X+3763000Y+7697000D01*
X+3813000Y+7747000D02*
X+3713000Y+7747000D01*
D80*
X+3668500Y+7723375D02*
X+3668500Y+7770625D01*
X+3707875Y+7770625D01*
X+3715750Y+7762750D01*
X+3715750Y+7754875D01*
X+3707875Y+7747000D01*
X+3668500Y+7747000D01*
X+3707875Y+7747000D02*
X+3715750Y+7739125D01*
X+3715750Y+7723375D01*
X+3739375Y+7762750D02*
X+3747250Y+7770625D01*
X+3770875Y+7770625D01*
X+3778750Y+7762750D01*
X+3778750Y+7754875D01*
X+3770875Y+7747000D01*
X+3778750Y+7739125D01*
X+3778750Y+7731250D01*
X+3770875Y+7723375D01*
X+3747250Y+7723375D01*
X+3739375Y+7731250D01*
X+3755125Y+7747000D02*
X+3770875Y+7747000D01*
X+3794500Y+7731250D02*
X+3794500Y+7762750D01*
X+3802375Y+7770625D01*
X+3833875Y+7770625D01*
X+3841750Y+7762750D01*
X+3841750Y+7731250D01*
X+3833875Y+7723375D01*
X+3802375Y+7723375D01*
X+3794500Y+7731250D01*
X+3794500Y+7723375D02*
X+3841750Y+7770625D01*
D75*
X+3354000Y+6783000D02*
X+3664000Y+6783000D01*
X+3664000Y+6933000D01*
X+3354000Y+6933000D01*
X+3354000Y+6783000D01*
X+3509000Y+6908000D02*
X+3509000Y+6808000D01*
X+3559000Y+6858000D02*
X+3459000Y+6858000D01*
D80*
X+3414500Y+6834375D02*
X+3414500Y+6881625D01*
X+3453875Y+6881625D01*
X+3461750Y+6873750D01*
X+3461750Y+6865875D01*
X+3453875Y+6858000D01*
X+3414500Y+6858000D01*
X+3453875Y+6858000D02*
X+3461750Y+6850125D01*
X+3461750Y+6834375D01*
X+3485375Y+6873750D02*
X+3493250Y+6881625D01*
X+3516875Y+6881625D01*
X+3524750Y+6873750D01*
X+3524750Y+6865875D01*
X+3516875Y+6858000D01*
X+3524750Y+6850125D01*
X+3524750Y+6842250D01*
X+3516875Y+6834375D01*
X+3493250Y+6834375D01*
X+3485375Y+6842250D01*
X+3501125Y+6858000D02*
X+3516875Y+6858000D01*
X+3556250Y+6865875D02*
X+3572000Y+6881625D01*
X+3572000Y+6834375D01*
D75*
X+3227000Y+7164000D02*
X+3537000Y+7164000D01*
X+3537000Y+7314000D01*
X+3227000Y+7314000D01*
X+3227000Y+7164000D01*
X+3382000Y+7289000D02*
X+3382000Y+7189000D01*
X+3432000Y+7239000D02*
X+3332000Y+7239000D01*
D80*
X+3287500Y+7215375D02*
X+3287500Y+7262625D01*
X+3326875Y+7262625D01*
X+3334750Y+7254750D01*
X+3334750Y+7246875D01*
X+3326875Y+7239000D01*
X+3287500Y+7239000D01*
X+3326875Y+7239000D02*
X+3334750Y+7231125D01*
X+3334750Y+7215375D01*
X+3358375Y+7254750D02*
X+3366250Y+7262625D01*
X+3389875Y+7262625D01*
X+3397750Y+7254750D01*
X+3397750Y+7246875D01*
X+3389875Y+7239000D01*
X+3397750Y+7231125D01*
X+3397750Y+7223250D01*
X+3389875Y+7215375D01*
X+3366250Y+7215375D01*
X+3358375Y+7223250D01*
X+3374125Y+7239000D02*
X+3389875Y+7239000D01*
X+3421375Y+7254750D02*
X+3429250Y+7262625D01*
X+3452875Y+7262625D01*
X+3460750Y+7254750D01*
X+3460750Y+7246875D01*
X+3452875Y+7239000D01*
X+3429250Y+7239000D01*
X+3421375Y+7231125D01*
X+3421375Y+7215375D01*
X+3460750Y+7215375D01*
D75*
X+3608000Y+7164000D02*
X+3918000Y+7164000D01*
X+3918000Y+7314000D01*
X+3608000Y+7314000D01*
X+3608000Y+7164000D01*
X+3763000Y+7289000D02*
X+3763000Y+7189000D01*
X+3813000Y+7239000D02*
X+3713000Y+7239000D01*
D80*
X+3668500Y+7215375D02*
X+3668500Y+7262625D01*
X+3707875Y+7262625D01*
X+3715750Y+7254750D01*
X+3715750Y+7246875D01*
X+3707875Y+7239000D01*
X+3668500Y+7239000D01*
X+3707875Y+7239000D02*
X+3715750Y+7231125D01*
X+3715750Y+7215375D01*
X+3739375Y+7254750D02*
X+3747250Y+7262625D01*
X+3770875Y+7262625D01*
X+3778750Y+7254750D01*
X+3778750Y+7246875D01*
X+3770875Y+7239000D01*
X+3778750Y+7231125D01*
X+3778750Y+7223250D01*
X+3770875Y+7215375D01*
X+3747250Y+7215375D01*
X+3739375Y+7223250D01*
X+3755125Y+7239000D02*
X+3770875Y+7239000D01*
X+3802375Y+7254750D02*
X+3810250Y+7262625D01*
X+3833875Y+7262625D01*
X+3841750Y+7254750D01*
X+3841750Y+7246875D01*
X+3833875Y+7239000D01*
X+3841750Y+7231125D01*
X+3841750Y+7223250D01*
X+3833875Y+7215375D01*
X+3810250Y+7215375D01*
X+3802375Y+7223250D01*
X+3818125Y+7239000D02*
X+3833875Y+7239000D01*
D75*
X+4045000Y+5536000D02*
X+3735000Y+5536000D01*
X+3735000Y+5386000D01*
X+4045000Y+5386000D01*
X+4045000Y+5536000D01*
X+3890000Y+5411000D02*
X+3890000Y+5511000D01*
X+3840000Y+5461000D02*
X+3940000Y+5461000D01*
D80*
X+3795500Y+5437375D02*
X+3795500Y+5484625D01*
X+3834875Y+5484625D01*
X+3842750Y+5476750D01*
X+3842750Y+5468875D01*
X+3834875Y+5461000D01*
X+3795500Y+5461000D01*
X+3834875Y+5461000D02*
X+3842750Y+5453125D01*
X+3842750Y+5437375D01*
X+3866375Y+5476750D02*
X+3874250Y+5484625D01*
X+3897875Y+5484625D01*
X+3905750Y+5476750D01*
X+3905750Y+5468875D01*
X+3897875Y+5461000D01*
X+3905750Y+5453125D01*
X+3905750Y+5445250D01*
X+3897875Y+5437375D01*
X+3874250Y+5437375D01*
X+3866375Y+5445250D01*
X+3882125Y+5461000D02*
X+3897875Y+5461000D01*
X+3968750Y+5453125D02*
X+3921500Y+5453125D01*
X+3953000Y+5484625D01*
X+3953000Y+5437375D01*
D75*
X+4243000Y+5386000D02*
X+4553000Y+5386000D01*
X+4553000Y+5536000D01*
X+4243000Y+5536000D01*
X+4243000Y+5386000D01*
X+4398000Y+5511000D02*
X+4398000Y+5411000D01*
X+4448000Y+5461000D02*
X+4348000Y+5461000D01*
D80*
X+4303500Y+5437375D02*
X+4303500Y+5484625D01*
X+4342875Y+5484625D01*
X+4350750Y+5476750D01*
X+4350750Y+5468875D01*
X+4342875Y+5461000D01*
X+4303500Y+5461000D01*
X+4342875Y+5461000D02*
X+4350750Y+5453125D01*
X+4350750Y+5437375D01*
X+4374375Y+5476750D02*
X+4382250Y+5484625D01*
X+4405875Y+5484625D01*
X+4413750Y+5476750D01*
X+4413750Y+5468875D01*
X+4405875Y+5461000D01*
X+4413750Y+5453125D01*
X+4413750Y+5445250D01*
X+4405875Y+5437375D01*
X+4382250Y+5437375D01*
X+4374375Y+5445250D01*
X+4390125Y+5461000D02*
X+4405875Y+5461000D01*
X+4476750Y+5484625D02*
X+4437375Y+5484625D01*
X+4437375Y+5468875D01*
X+4468875Y+5468875D01*
X+4476750Y+5461000D01*
X+4476750Y+5445250D01*
X+4468875Y+5437375D01*
X+4445250Y+5437375D01*
X+4437375Y+5445250D01*
D75*
X+4243000Y+5132000D02*
X+4553000Y+5132000D01*
X+4553000Y+5282000D01*
X+4243000Y+5282000D01*
X+4243000Y+5132000D01*
X+4398000Y+5257000D02*
X+4398000Y+5157000D01*
X+4448000Y+5207000D02*
X+4348000Y+5207000D01*
D80*
X+4303500Y+5183375D02*
X+4303500Y+5230625D01*
X+4342875Y+5230625D01*
X+4350750Y+5222750D01*
X+4350750Y+5214875D01*
X+4342875Y+5207000D01*
X+4303500Y+5207000D01*
X+4342875Y+5207000D02*
X+4350750Y+5199125D01*
X+4350750Y+5183375D01*
X+4374375Y+5222750D02*
X+4382250Y+5230625D01*
X+4405875Y+5230625D01*
X+4413750Y+5222750D01*
X+4413750Y+5214875D01*
X+4405875Y+5207000D01*
X+4413750Y+5199125D01*
X+4413750Y+5191250D01*
X+4405875Y+5183375D01*
X+4382250Y+5183375D01*
X+4374375Y+5191250D01*
X+4390125Y+5207000D02*
X+4405875Y+5207000D01*
X+4476750Y+5222750D02*
X+4468875Y+5230625D01*
X+4445250Y+5230625D01*
X+4437375Y+5222750D01*
X+4437375Y+5191250D01*
X+4445250Y+5183375D01*
X+4468875Y+5183375D01*
X+4476750Y+5191250D01*
X+4476750Y+5199125D01*
X+4468875Y+5207000D01*
X+4437375Y+5207000D01*
D75*
X+3735000Y+4878000D02*
X+4045000Y+4878000D01*
X+4045000Y+5028000D01*
X+3735000Y+5028000D01*
X+3735000Y+4878000D01*
X+3890000Y+5003000D02*
X+3890000Y+4903000D01*
X+3940000Y+4953000D02*
X+3840000Y+4953000D01*
D80*
X+3795500Y+4929375D02*
X+3795500Y+4976625D01*
X+3834875Y+4976625D01*
X+3842750Y+4968750D01*
X+3842750Y+4960875D01*
X+3834875Y+4953000D01*
X+3795500Y+4953000D01*
X+3834875Y+4953000D02*
X+3842750Y+4945125D01*
X+3842750Y+4929375D01*
X+3866375Y+4968750D02*
X+3874250Y+4976625D01*
X+3897875Y+4976625D01*
X+3905750Y+4968750D01*
X+3905750Y+4960875D01*
X+3897875Y+4953000D01*
X+3905750Y+4945125D01*
X+3905750Y+4937250D01*
X+3897875Y+4929375D01*
X+3874250Y+4929375D01*
X+3866375Y+4937250D01*
X+3882125Y+4953000D02*
X+3897875Y+4953000D01*
X+3929375Y+4976625D02*
X+3968750Y+4976625D01*
X+3968750Y+4968750D01*
X+3929375Y+4929375D01*
D75*
X+3735000Y+5132000D02*
X+4045000Y+5132000D01*
X+4045000Y+5282000D01*
X+3735000Y+5282000D01*
X+3735000Y+5132000D01*
X+3890000Y+5257000D02*
X+3890000Y+5157000D01*
X+3940000Y+5207000D02*
X+3840000Y+5207000D01*
D80*
X+3795500Y+5183375D02*
X+3795500Y+5230625D01*
X+3834875Y+5230625D01*
X+3842750Y+5222750D01*
X+3842750Y+5214875D01*
X+3834875Y+5207000D01*
X+3795500Y+5207000D01*
X+3834875Y+5207000D02*
X+3842750Y+5199125D01*
X+3842750Y+5183375D01*
X+3866375Y+5222750D02*
X+3874250Y+5230625D01*
X+3897875Y+5230625D01*
X+3905750Y+5222750D01*
X+3905750Y+5214875D01*
X+3897875Y+5207000D01*
X+3905750Y+5199125D01*
X+3905750Y+5191250D01*
X+3897875Y+5183375D01*
X+3874250Y+5183375D01*
X+3866375Y+5191250D01*
X+3882125Y+5207000D02*
X+3897875Y+5207000D01*
X+3937250Y+5207000D02*
X+3929375Y+5214875D01*
X+3929375Y+5222750D01*
X+3937250Y+5230625D01*
X+3960875Y+5230625D01*
X+3968750Y+5222750D01*
X+3968750Y+5214875D01*
X+3960875Y+5207000D01*
X+3937250Y+5207000D01*
X+3929375Y+5199125D01*
X+3929375Y+5191250D01*
X+3937250Y+5183375D01*
X+3960875Y+5183375D01*
X+3968750Y+5191250D01*
X+3968750Y+5199125D01*
X+3960875Y+5207000D01*
D75*
X+3608000Y+7418000D02*
X+3918000Y+7418000D01*
X+3918000Y+7568000D01*
X+3608000Y+7568000D01*
X+3608000Y+7418000D01*
X+3763000Y+7543000D02*
X+3763000Y+7443000D01*
X+3813000Y+7493000D02*
X+3713000Y+7493000D01*
D80*
X+3668500Y+7469375D02*
X+3668500Y+7516625D01*
X+3707875Y+7516625D01*
X+3715750Y+7508750D01*
X+3715750Y+7500875D01*
X+3707875Y+7493000D01*
X+3668500Y+7493000D01*
X+3707875Y+7493000D02*
X+3715750Y+7485125D01*
X+3715750Y+7469375D01*
X+3739375Y+7508750D02*
X+3747250Y+7516625D01*
X+3770875Y+7516625D01*
X+3778750Y+7508750D01*
X+3778750Y+7500875D01*
X+3770875Y+7493000D01*
X+3778750Y+7485125D01*
X+3778750Y+7477250D01*
X+3770875Y+7469375D01*
X+3747250Y+7469375D01*
X+3739375Y+7477250D01*
X+3755125Y+7493000D02*
X+3770875Y+7493000D01*
X+3841750Y+7500875D02*
X+3833875Y+7493000D01*
X+3810250Y+7493000D01*
X+3802375Y+7500875D01*
X+3802375Y+7508750D01*
X+3810250Y+7516625D01*
X+3833875Y+7516625D01*
X+3841750Y+7508750D01*
X+3841750Y+7477250D01*
X+3833875Y+7469375D01*
X+3810250Y+7469375D01*
D75*
X+5028000Y+5536000D02*
X+4718000Y+5536000D01*
X+4718000Y+5386000D01*
X+5028000Y+5386000D01*
X+5028000Y+5536000D01*
X+4873000Y+5411000D02*
X+4873000Y+5511000D01*
X+4823000Y+5461000D02*
X+4923000Y+5461000D01*
D80*
X+4778500Y+5437375D02*
X+4778500Y+5484625D01*
X+4817875Y+5484625D01*
X+4825750Y+5476750D01*
X+4825750Y+5468875D01*
X+4817875Y+5461000D01*
X+4778500Y+5461000D01*
X+4817875Y+5461000D02*
X+4825750Y+5453125D01*
X+4825750Y+5437375D01*
X+4888750Y+5453125D02*
X+4841500Y+5453125D01*
X+4873000Y+5484625D01*
X+4873000Y+5437375D01*
X+4920250Y+5468875D02*
X+4936000Y+5484625D01*
X+4936000Y+5437375D01*
D33*
X+4561840Y+7863840D02*
X+5090160Y+7863840D01*
X+5090160Y+8138160D01*
X+4561840Y+8138160D01*
X+4561840Y+7863840D01*
D81*
X+4694327Y+7984540D02*
X+4694327Y+7968081D01*
X+4710786Y+7951622D01*
X+4776622Y+7951622D01*
X+4793081Y+7968081D01*
X+4793081Y+8050377D01*
X+4924754Y+8033918D02*
X+4908295Y+8050377D01*
X+4858918Y+8050377D01*
X+4842459Y+8033918D01*
X+4842459Y+7968081D01*
X+4858918Y+7951622D01*
X+4908295Y+7951622D01*
X+4924754Y+7968081D01*
X+4924754Y+7984540D01*
X+4908295Y+8001000D01*
X+4842459Y+8001000D01*
D33*
X+5196840Y+7609840D02*
X+5725160Y+7609840D01*
X+5725160Y+7884160D01*
X+5196840Y+7884160D01*
X+5196840Y+7609840D01*
D81*
X+5329327Y+7730540D02*
X+5329327Y+7714081D01*
X+5345786Y+7697622D01*
X+5411622Y+7697622D01*
X+5428081Y+7714081D01*
X+5428081Y+7796377D01*
X+5493918Y+7747000D02*
X+5477459Y+7763459D01*
X+5477459Y+7779918D01*
X+5493918Y+7796377D01*
X+5543295Y+7796377D01*
X+5559754Y+7779918D01*
X+5559754Y+7763459D01*
X+5543295Y+7747000D01*
X+5493918Y+7747000D01*
X+5477459Y+7730540D01*
X+5477459Y+7714081D01*
X+5493918Y+7697622D01*
X+5543295Y+7697622D01*
X+5559754Y+7714081D01*
X+5559754Y+7730540D01*
X+5543295Y+7747000D01*
D33*
X+3545840Y+7990840D02*
X+4074160Y+7990840D01*
X+4074160Y+8265160D01*
X+3545840Y+8265160D01*
X+3545840Y+7990840D01*
D81*
X+3678327Y+8111540D02*
X+3678327Y+8095081D01*
X+3694786Y+8078622D01*
X+3760622Y+8078622D01*
X+3777081Y+8095081D01*
X+3777081Y+8177377D01*
X+3908754Y+8144459D02*
X+3892295Y+8128000D01*
X+3842918Y+8128000D01*
X+3826459Y+8144459D01*
X+3826459Y+8160918D01*
X+3842918Y+8177377D01*
X+3892295Y+8177377D01*
X+3908754Y+8160918D01*
X+3908754Y+8095081D01*
X+3892295Y+8078622D01*
X+3842918Y+8078622D01*
D33*
X+2910840Y+6466840D02*
X+3439160Y+6466840D01*
X+3439160Y+6741160D01*
X+2910840Y+6741160D01*
X+2910840Y+6466840D01*
D82*
X+3016504Y+6590792D02*
X+3016504Y+6577584D01*
X+3029712Y+6564376D01*
X+3082544Y+6564376D01*
X+3095752Y+6577584D01*
X+3095752Y+6643624D01*
X+3148584Y+6617208D02*
X+3175000Y+6643624D01*
X+3175000Y+6564376D01*
X+3227832Y+6577584D02*
X+3227832Y+6630416D01*
X+3241040Y+6643624D01*
X+3293872Y+6643624D01*
X+3307080Y+6630416D01*
X+3307080Y+6577584D01*
X+3293872Y+6564376D01*
X+3241040Y+6564376D01*
X+3227832Y+6577584D01*
X+3227832Y+6564376D02*
X+3307080Y+6643624D01*
D33*
X+4053840Y+7736840D02*
X+4582160Y+7736840D01*
X+4582160Y+8011160D01*
X+4053840Y+8011160D01*
X+4053840Y+7736840D01*
D82*
X+4159504Y+7860792D02*
X+4159504Y+7847584D01*
X+4172712Y+7834376D01*
X+4225544Y+7834376D01*
X+4238752Y+7847584D01*
X+4238752Y+7913624D01*
X+4291584Y+7887208D02*
X+4318000Y+7913624D01*
X+4318000Y+7834376D01*
X+4397248Y+7887208D02*
X+4423664Y+7913624D01*
X+4423664Y+7834376D01*
D33*
X+3545840Y+4434840D02*
X+4074160Y+4434840D01*
X+4074160Y+4709160D01*
X+3545840Y+4709160D01*
X+3545840Y+4434840D01*
D82*
X+3651504Y+4558792D02*
X+3651504Y+4545584D01*
X+3664712Y+4532376D01*
X+3717544Y+4532376D01*
X+3730752Y+4545584D01*
X+3730752Y+4611624D01*
X+3783584Y+4585208D02*
X+3810000Y+4611624D01*
X+3810000Y+4532376D01*
X+3876040Y+4598416D02*
X+3889248Y+4611624D01*
X+3928872Y+4611624D01*
X+3942080Y+4598416D01*
X+3942080Y+4585208D01*
X+3928872Y+4572000D01*
X+3889248Y+4572000D01*
X+3876040Y+4558792D01*
X+3876040Y+4532376D01*
X+3942080Y+4532376D01*
D75*
X+4553000Y+5028000D02*
X+4243000Y+5028000D01*
X+4243000Y+4878000D01*
X+4553000Y+4878000D01*
X+4553000Y+5028000D01*
X+4398000Y+4903000D02*
X+4398000Y+5003000D01*
X+4348000Y+4953000D02*
X+4448000Y+4953000D01*
D80*
X+4303500Y+4929375D02*
X+4303500Y+4976625D01*
X+4342875Y+4976625D01*
X+4350750Y+4968750D01*
X+4350750Y+4960875D01*
X+4342875Y+4953000D01*
X+4303500Y+4953000D01*
X+4342875Y+4953000D02*
X+4350750Y+4945125D01*
X+4350750Y+4929375D01*
X+4413750Y+4945125D02*
X+4366500Y+4945125D01*
X+4398000Y+4976625D01*
X+4398000Y+4929375D01*
X+4437375Y+4968750D02*
X+4445250Y+4976625D01*
X+4468875Y+4976625D01*
X+4476750Y+4968750D01*
X+4476750Y+4960875D01*
X+4468875Y+4953000D01*
X+4445250Y+4953000D01*
X+4437375Y+4945125D01*
X+4437375Y+4929375D01*
X+4476750Y+4929375D01*
D75*
X+4878000Y+5132000D02*
X+5188000Y+5132000D01*
X+5188000Y+5282000D01*
X+4878000Y+5282000D01*
X+4878000Y+5132000D01*
X+5033000Y+5257000D02*
X+5033000Y+5157000D01*
X+5083000Y+5207000D02*
X+4983000Y+5207000D01*
D80*
X+4938500Y+5183375D02*
X+4938500Y+5230625D01*
X+4977875Y+5230625D01*
X+4985750Y+5222750D01*
X+4985750Y+5214875D01*
X+4977875Y+5207000D01*
X+4938500Y+5207000D01*
X+4977875Y+5207000D02*
X+4985750Y+5199125D01*
X+4985750Y+5183375D01*
X+5048750Y+5199125D02*
X+5001500Y+5199125D01*
X+5033000Y+5230625D01*
X+5033000Y+5183375D01*
X+5111750Y+5199125D02*
X+5064500Y+5199125D01*
X+5096000Y+5230625D01*
X+5096000Y+5183375D01*
D75*
X+4243000Y+4624000D02*
X+4553000Y+4624000D01*
X+4553000Y+4774000D01*
X+4243000Y+4774000D01*
X+4243000Y+4624000D01*
X+4398000Y+4749000D02*
X+4398000Y+4649000D01*
X+4448000Y+4699000D02*
X+4348000Y+4699000D01*
D80*
X+4303500Y+4675375D02*
X+4303500Y+4722625D01*
X+4342875Y+4722625D01*
X+4350750Y+4714750D01*
X+4350750Y+4706875D01*
X+4342875Y+4699000D01*
X+4303500Y+4699000D01*
X+4342875Y+4699000D02*
X+4350750Y+4691125D01*
X+4350750Y+4675375D01*
X+4413750Y+4691125D02*
X+4366500Y+4691125D01*
X+4398000Y+4722625D01*
X+4398000Y+4675375D01*
X+4476750Y+4714750D02*
X+4468875Y+4722625D01*
X+4445250Y+4722625D01*
X+4437375Y+4714750D01*
X+4437375Y+4683250D01*
X+4445250Y+4675375D01*
X+4468875Y+4675375D01*
X+4476750Y+4683250D01*
X+4476750Y+4691125D01*
X+4468875Y+4699000D01*
X+4437375Y+4699000D01*
D75*
X+4718000Y+4878000D02*
X+5028000Y+4878000D01*
X+5028000Y+5028000D01*
X+4718000Y+5028000D01*
X+4718000Y+4878000D01*
X+4873000Y+5003000D02*
X+4873000Y+4903000D01*
X+4923000Y+4953000D02*
X+4823000Y+4953000D01*
D80*
X+4778500Y+4929375D02*
X+4778500Y+4976625D01*
X+4817875Y+4976625D01*
X+4825750Y+4968750D01*
X+4825750Y+4960875D01*
X+4817875Y+4953000D01*
X+4778500Y+4953000D01*
X+4817875Y+4953000D02*
X+4825750Y+4945125D01*
X+4825750Y+4929375D01*
X+4888750Y+4945125D02*
X+4841500Y+4945125D01*
X+4873000Y+4976625D01*
X+4873000Y+4929375D01*
X+4912375Y+4976625D02*
X+4951750Y+4976625D01*
X+4951750Y+4968750D01*
X+4912375Y+4929375D01*
D75*
X+5132000Y+4878000D02*
X+5442000Y+4878000D01*
X+5442000Y+5028000D01*
X+5132000Y+5028000D01*
X+5132000Y+4878000D01*
X+5287000Y+5003000D02*
X+5287000Y+4903000D01*
X+5337000Y+4953000D02*
X+5237000Y+4953000D01*
D80*
X+5192500Y+4929375D02*
X+5192500Y+4976625D01*
X+5231875Y+4976625D01*
X+5239750Y+4968750D01*
X+5239750Y+4960875D01*
X+5231875Y+4953000D01*
X+5192500Y+4953000D01*
X+5231875Y+4953000D02*
X+5239750Y+4945125D01*
X+5239750Y+4929375D01*
X+5302750Y+4945125D02*
X+5255500Y+4945125D01*
X+5287000Y+4976625D01*
X+5287000Y+4929375D01*
X+5334250Y+4953000D02*
X+5326375Y+4960875D01*
X+5326375Y+4968750D01*
X+5334250Y+4976625D01*
X+5357875Y+4976625D01*
X+5365750Y+4968750D01*
X+5365750Y+4960875D01*
X+5357875Y+4953000D01*
X+5334250Y+4953000D01*
X+5326375Y+4945125D01*
X+5326375Y+4937250D01*
X+5334250Y+4929375D01*
X+5357875Y+4929375D01*
X+5365750Y+4937250D01*
X+5365750Y+4945125D01*
X+5357875Y+4953000D01*
D75*
X+3227000Y+5132000D02*
X+3537000Y+5132000D01*
X+3537000Y+5282000D01*
X+3227000Y+5282000D01*
X+3227000Y+5132000D01*
X+3382000Y+5257000D02*
X+3382000Y+5157000D01*
X+3432000Y+5207000D02*
X+3332000Y+5207000D01*
D80*
X+3287500Y+5183375D02*
X+3287500Y+5230625D01*
X+3326875Y+5230625D01*
X+3334750Y+5222750D01*
X+3334750Y+5214875D01*
X+3326875Y+5207000D01*
X+3287500Y+5207000D01*
X+3326875Y+5207000D02*
X+3334750Y+5199125D01*
X+3334750Y+5183375D01*
X+3397750Y+5199125D02*
X+3350500Y+5199125D01*
X+3382000Y+5230625D01*
X+3382000Y+5183375D01*
X+3460750Y+5214875D02*
X+3452875Y+5207000D01*
X+3429250Y+5207000D01*
X+3421375Y+5214875D01*
X+3421375Y+5222750D01*
X+3429250Y+5230625D01*
X+3452875Y+5230625D01*
X+3460750Y+5222750D01*
X+3460750Y+5191250D01*
X+3452875Y+5183375D01*
X+3429250Y+5183375D01*
D33*
X+4561840Y+4434840D02*
X+5090160Y+4434840D01*
X+5090160Y+4709160D01*
X+4561840Y+4709160D01*
X+4561840Y+4434840D01*
D82*
X+4667504Y+4558792D02*
X+4667504Y+4545584D01*
X+4680712Y+4532376D01*
X+4733544Y+4532376D01*
X+4746752Y+4545584D01*
X+4746752Y+4611624D01*
X+4799584Y+4585208D02*
X+4826000Y+4611624D01*
X+4826000Y+4532376D01*
X+4892040Y+4598416D02*
X+4905248Y+4611624D01*
X+4944872Y+4611624D01*
X+4958080Y+4598416D01*
X+4958080Y+4585208D01*
X+4944872Y+4572000D01*
X+4958080Y+4558792D01*
X+4958080Y+4545584D01*
X+4944872Y+4532376D01*
X+4905248Y+4532376D01*
X+4892040Y+4545584D01*
X+4918456Y+4572000D02*
X+4944872Y+4572000D01*
D33*
X+5069840Y+4434840D02*
X+5598160Y+4434840D01*
X+5598160Y+4709160D01*
X+5069840Y+4709160D01*
X+5069840Y+4434840D01*
D82*
X+5175504Y+4558792D02*
X+5175504Y+4545584D01*
X+5188712Y+4532376D01*
X+5241544Y+4532376D01*
X+5254752Y+4545584D01*
X+5254752Y+4611624D01*
X+5307584Y+4585208D02*
X+5334000Y+4611624D01*
X+5334000Y+4532376D01*
X+5466080Y+4558792D02*
X+5386832Y+4558792D01*
X+5439664Y+4611624D01*
X+5439664Y+4532376D01*
D33*
X+5577840Y+6847840D02*
X+6106160Y+6847840D01*
X+6106160Y+7122160D01*
X+5577840Y+7122160D01*
X+5577840Y+6847840D01*
D82*
X+5683504Y+6971792D02*
X+5683504Y+6958584D01*
X+5696712Y+6945376D01*
X+5749544Y+6945376D01*
X+5762752Y+6958584D01*
X+5762752Y+7024624D01*
X+5815584Y+6998208D02*
X+5842000Y+7024624D01*
X+5842000Y+6945376D01*
X+5974080Y+7024624D02*
X+5908040Y+7024624D01*
X+5908040Y+6998208D01*
X+5960872Y+6998208D01*
X+5974080Y+6985000D01*
X+5974080Y+6958584D01*
X+5960872Y+6945376D01*
X+5921248Y+6945376D01*
X+5908040Y+6958584D01*
D33*
X+5704840Y+6212840D02*
X+6233160Y+6212840D01*
X+6233160Y+6487160D01*
X+5704840Y+6487160D01*
X+5704840Y+6212840D01*
D82*
X+5810504Y+6336792D02*
X+5810504Y+6323584D01*
X+5823712Y+6310376D01*
X+5876544Y+6310376D01*
X+5889752Y+6323584D01*
X+5889752Y+6389624D01*
X+5942584Y+6363208D02*
X+5969000Y+6389624D01*
X+5969000Y+6310376D01*
X+6101080Y+6376416D02*
X+6087872Y+6389624D01*
X+6048248Y+6389624D01*
X+6035040Y+6376416D01*
X+6035040Y+6323584D01*
X+6048248Y+6310376D01*
X+6087872Y+6310376D01*
X+6101080Y+6323584D01*
X+6101080Y+6336792D01*
X+6087872Y+6350000D01*
X+6035040Y+6350000D01*
D33*
X+2910840Y+5958840D02*
X+3439160Y+5958840D01*
X+3439160Y+6233160D01*
X+2910840Y+6233160D01*
X+2910840Y+5958840D01*
D82*
X+3016504Y+6082792D02*
X+3016504Y+6069584D01*
X+3029712Y+6056376D01*
X+3082544Y+6056376D01*
X+3095752Y+6069584D01*
X+3095752Y+6135624D01*
X+3148584Y+6109208D02*
X+3175000Y+6135624D01*
X+3175000Y+6056376D01*
X+3241040Y+6135624D02*
X+3307080Y+6135624D01*
X+3307080Y+6122416D01*
X+3241040Y+6056376D01*
D33*
X+2910840Y+5450840D02*
X+3439160Y+5450840D01*
X+3439160Y+5725160D01*
X+2910840Y+5725160D01*
X+2910840Y+5450840D01*
D82*
X+3016504Y+5574792D02*
X+3016504Y+5561584D01*
X+3029712Y+5548376D01*
X+3082544Y+5548376D01*
X+3095752Y+5561584D01*
X+3095752Y+5627624D01*
X+3148584Y+5601208D02*
X+3175000Y+5627624D01*
X+3175000Y+5548376D01*
X+3254248Y+5588000D02*
X+3241040Y+5601208D01*
X+3241040Y+5614416D01*
X+3254248Y+5627624D01*
X+3293872Y+5627624D01*
X+3307080Y+5614416D01*
X+3307080Y+5601208D01*
X+3293872Y+5588000D01*
X+3254248Y+5588000D01*
X+3241040Y+5574792D01*
X+3241040Y+5561584D01*
X+3254248Y+5548376D01*
X+3293872Y+5548376D01*
X+3307080Y+5561584D01*
X+3307080Y+5574792D01*
X+3293872Y+5588000D01*
D33*
X+5704840Y+5704840D02*
X+6233160Y+5704840D01*
X+6233160Y+5979160D01*
X+5704840Y+5979160D01*
X+5704840Y+5704840D01*
D82*
X+5810504Y+5828792D02*
X+5810504Y+5815584D01*
X+5823712Y+5802376D01*
X+5876544Y+5802376D01*
X+5889752Y+5815584D01*
X+5889752Y+5881624D01*
X+5942584Y+5855208D02*
X+5969000Y+5881624D01*
X+5969000Y+5802376D01*
X+6101080Y+5855208D02*
X+6087872Y+5842000D01*
X+6048248Y+5842000D01*
X+6035040Y+5855208D01*
X+6035040Y+5868416D01*
X+6048248Y+5881624D01*
X+6087872Y+5881624D01*
X+6101080Y+5868416D01*
X+6101080Y+5815584D01*
X+6087872Y+5802376D01*
X+6048248Y+5802376D01*
D33*
X+5704840Y+5323840D02*
X+6233160Y+5323840D01*
X+6233160Y+5598160D01*
X+5704840Y+5598160D01*
X+5704840Y+5323840D01*
D82*
X+5810504Y+5447792D02*
X+5810504Y+5434584D01*
X+5823712Y+5421376D01*
X+5876544Y+5421376D01*
X+5889752Y+5434584D01*
X+5889752Y+5500624D01*
X+5929376Y+5487416D02*
X+5942584Y+5500624D01*
X+5982208Y+5500624D01*
X+5995416Y+5487416D01*
X+5995416Y+5474208D01*
X+5982208Y+5461000D01*
X+5942584Y+5461000D01*
X+5929376Y+5447792D01*
X+5929376Y+5421376D01*
X+5995416Y+5421376D01*
X+6021832Y+5434584D02*
X+6021832Y+5487416D01*
X+6035040Y+5500624D01*
X+6087872Y+5500624D01*
X+6101080Y+5487416D01*
X+6101080Y+5434584D01*
X+6087872Y+5421376D01*
X+6035040Y+5421376D01*
X+6021832Y+5434584D01*
X+6021832Y+5421376D02*
X+6101080Y+5500624D01*
D75*
X+5767000Y+5005000D02*
X+6077000Y+5005000D01*
X+6077000Y+5155000D01*
X+5767000Y+5155000D01*
X+5767000Y+5005000D01*
X+5922000Y+5130000D02*
X+5922000Y+5030000D01*
X+5972000Y+5080000D02*
X+5872000Y+5080000D01*
D80*
X+5827500Y+5056375D02*
X+5827500Y+5103625D01*
X+5866875Y+5103625D01*
X+5874750Y+5095750D01*
X+5874750Y+5087875D01*
X+5866875Y+5080000D01*
X+5827500Y+5080000D01*
X+5866875Y+5080000D02*
X+5874750Y+5072125D01*
X+5874750Y+5056375D01*
X+5937750Y+5072125D02*
X+5890500Y+5072125D01*
X+5922000Y+5103625D01*
X+5922000Y+5056375D01*
X+5953500Y+5064250D02*
X+5953500Y+5095750D01*
X+5961375Y+5103625D01*
X+5992875Y+5103625D01*
X+6000750Y+5095750D01*
X+6000750Y+5064250D01*
X+5992875Y+5056375D01*
X+5961375Y+5056375D01*
X+5953500Y+5064250D01*
X+5953500Y+5056375D02*
X+6000750Y+5103625D01*
D75*
X+4116000Y+4116000D02*
X+4426000Y+4116000D01*
X+4426000Y+4266000D01*
X+4116000Y+4266000D01*
X+4116000Y+4116000D01*
X+4271000Y+4241000D02*
X+4271000Y+4141000D01*
X+4321000Y+4191000D02*
X+4221000Y+4191000D01*
D80*
X+4176500Y+4167375D02*
X+4176500Y+4214625D01*
X+4215875Y+4214625D01*
X+4223750Y+4206750D01*
X+4223750Y+4198875D01*
X+4215875Y+4191000D01*
X+4176500Y+4191000D01*
X+4215875Y+4191000D02*
X+4223750Y+4183125D01*
X+4223750Y+4167375D01*
X+4286750Y+4183125D02*
X+4239500Y+4183125D01*
X+4271000Y+4214625D01*
X+4271000Y+4167375D01*
X+4310375Y+4206750D02*
X+4318250Y+4214625D01*
X+4341875Y+4214625D01*
X+4349750Y+4206750D01*
X+4349750Y+4198875D01*
X+4341875Y+4191000D01*
X+4349750Y+4183125D01*
X+4349750Y+4175250D01*
X+4341875Y+4167375D01*
X+4318250Y+4167375D01*
X+4310375Y+4175250D01*
X+4326125Y+4191000D02*
X+4341875Y+4191000D01*
D75*
X+3608000Y+4116000D02*
X+3918000Y+4116000D01*
X+3918000Y+4266000D01*
X+3608000Y+4266000D01*
X+3608000Y+4116000D01*
X+3763000Y+4241000D02*
X+3763000Y+4141000D01*
X+3813000Y+4191000D02*
X+3713000Y+4191000D01*
D80*
X+3668500Y+4167375D02*
X+3668500Y+4214625D01*
X+3707875Y+4214625D01*
X+3715750Y+4206750D01*
X+3715750Y+4198875D01*
X+3707875Y+4191000D01*
X+3668500Y+4191000D01*
X+3707875Y+4191000D02*
X+3715750Y+4183125D01*
X+3715750Y+4167375D01*
X+3778750Y+4183125D02*
X+3731500Y+4183125D01*
X+3763000Y+4214625D01*
X+3763000Y+4167375D01*
X+3841750Y+4214625D02*
X+3802375Y+4214625D01*
X+3802375Y+4198875D01*
X+3833875Y+4198875D01*
X+3841750Y+4191000D01*
X+3841750Y+4175250D01*
X+3833875Y+4167375D01*
X+3810250Y+4167375D01*
X+3802375Y+4175250D01*
D75*
X+3608000Y+3862000D02*
X+3918000Y+3862000D01*
X+3918000Y+4012000D01*
X+3608000Y+4012000D01*
X+3608000Y+3862000D01*
X+3763000Y+3987000D02*
X+3763000Y+3887000D01*
X+3813000Y+3937000D02*
X+3713000Y+3937000D01*
D80*
X+3668500Y+3913375D02*
X+3668500Y+3960625D01*
X+3707875Y+3960625D01*
X+3715750Y+3952750D01*
X+3715750Y+3944875D01*
X+3707875Y+3937000D01*
X+3668500Y+3937000D01*
X+3707875Y+3937000D02*
X+3715750Y+3929125D01*
X+3715750Y+3913375D01*
X+3778750Y+3960625D02*
X+3739375Y+3960625D01*
X+3739375Y+3944875D01*
X+3770875Y+3944875D01*
X+3778750Y+3937000D01*
X+3778750Y+3921250D01*
X+3770875Y+3913375D01*
X+3747250Y+3913375D01*
X+3739375Y+3921250D01*
X+3794500Y+3921250D02*
X+3794500Y+3952750D01*
X+3802375Y+3960625D01*
X+3833875Y+3960625D01*
X+3841750Y+3952750D01*
X+3841750Y+3921250D01*
X+3833875Y+3913375D01*
X+3802375Y+3913375D01*
X+3794500Y+3921250D01*
X+3794500Y+3913375D02*
X+3841750Y+3960625D01*
D75*
X+5767000Y+4624000D02*
X+6077000Y+4624000D01*
X+6077000Y+4774000D01*
X+5767000Y+4774000D01*
X+5767000Y+4624000D01*
X+5922000Y+4749000D02*
X+5922000Y+4649000D01*
X+5972000Y+4699000D02*
X+5872000Y+4699000D01*
D80*
X+5827500Y+4675375D02*
X+5827500Y+4722625D01*
X+5866875Y+4722625D01*
X+5874750Y+4714750D01*
X+5874750Y+4706875D01*
X+5866875Y+4699000D01*
X+5827500Y+4699000D01*
X+5866875Y+4699000D02*
X+5874750Y+4691125D01*
X+5874750Y+4675375D01*
X+5937750Y+4722625D02*
X+5898375Y+4722625D01*
X+5898375Y+4706875D01*
X+5929875Y+4706875D01*
X+5937750Y+4699000D01*
X+5937750Y+4683250D01*
X+5929875Y+4675375D01*
X+5906250Y+4675375D01*
X+5898375Y+4683250D01*
X+5969250Y+4706875D02*
X+5985000Y+4722625D01*
X+5985000Y+4675375D01*
D33*
X+8928100Y+8674100D02*
X+10121900Y+8674100D01*
X+10121900Y+8851900D01*
X+8928100Y+8851900D01*
X+8928100Y+8674100D01*
D79*
X+9396984Y+8730996D02*
X+9396984Y+8795004D01*
X+9450324Y+8795004D01*
X+9460992Y+8784336D01*
X+9460992Y+8773668D01*
X+9450324Y+8763000D01*
X+9396984Y+8763000D01*
X+9450324Y+8763000D02*
X+9460992Y+8752332D01*
X+9460992Y+8730996D01*
X+9546336Y+8795004D02*
X+9492996Y+8795004D01*
X+9492996Y+8773668D01*
X+9535668Y+8773668D01*
X+9546336Y+8763000D01*
X+9546336Y+8741664D01*
X+9535668Y+8730996D01*
X+9503664Y+8730996D01*
X+9492996Y+8741664D01*
X+9578340Y+8784336D02*
X+9589008Y+8795004D01*
X+9621012Y+8795004D01*
X+9631680Y+8784336D01*
X+9631680Y+8773668D01*
X+9621012Y+8763000D01*
X+9631680Y+8752332D01*
X+9631680Y+8741664D01*
X+9621012Y+8730996D01*
X+9589008Y+8730996D01*
X+9578340Y+8741664D01*
X+9599676Y+8763000D02*
X+9621012Y+8763000D01*
D33*
X+8928100Y+8420100D02*
X+10121900Y+8420100D01*
X+10121900Y+8597900D01*
X+8928100Y+8597900D01*
X+8928100Y+8420100D01*
D79*
X+9396984Y+8476996D02*
X+9396984Y+8541004D01*
X+9450324Y+8541004D01*
X+9460992Y+8530336D01*
X+9460992Y+8519668D01*
X+9450324Y+8509000D01*
X+9396984Y+8509000D01*
X+9450324Y+8509000D02*
X+9460992Y+8498332D01*
X+9460992Y+8476996D01*
X+9546336Y+8541004D02*
X+9492996Y+8541004D01*
X+9492996Y+8519668D01*
X+9535668Y+8519668D01*
X+9546336Y+8509000D01*
X+9546336Y+8487664D01*
X+9535668Y+8476996D01*
X+9503664Y+8476996D01*
X+9492996Y+8487664D01*
X+9631680Y+8498332D02*
X+9567672Y+8498332D01*
X+9610344Y+8541004D01*
X+9610344Y+8476996D01*
D33*
X+8928100Y+8166100D02*
X+10121900Y+8166100D01*
X+10121900Y+8343900D01*
X+8928100Y+8343900D01*
X+8928100Y+8166100D01*
D79*
X+9396984Y+8222996D02*
X+9396984Y+8287004D01*
X+9450324Y+8287004D01*
X+9460992Y+8276336D01*
X+9460992Y+8265668D01*
X+9450324Y+8255000D01*
X+9396984Y+8255000D01*
X+9450324Y+8255000D02*
X+9460992Y+8244332D01*
X+9460992Y+8222996D01*
X+9546336Y+8287004D02*
X+9492996Y+8287004D01*
X+9492996Y+8265668D01*
X+9535668Y+8265668D01*
X+9546336Y+8255000D01*
X+9546336Y+8233664D01*
X+9535668Y+8222996D01*
X+9503664Y+8222996D01*
X+9492996Y+8233664D01*
X+9631680Y+8287004D02*
X+9578340Y+8287004D01*
X+9578340Y+8265668D01*
X+9621012Y+8265668D01*
X+9631680Y+8255000D01*
X+9631680Y+8233664D01*
X+9621012Y+8222996D01*
X+9589008Y+8222996D01*
X+9578340Y+8233664D01*
D33*
X+8928100Y+7912100D02*
X+10121900Y+7912100D01*
X+10121900Y+8089900D01*
X+8928100Y+8089900D01*
X+8928100Y+7912100D01*
D79*
X+9396984Y+7968996D02*
X+9396984Y+8033004D01*
X+9450324Y+8033004D01*
X+9460992Y+8022336D01*
X+9460992Y+8011668D01*
X+9450324Y+8001000D01*
X+9396984Y+8001000D01*
X+9450324Y+8001000D02*
X+9460992Y+7990332D01*
X+9460992Y+7968996D01*
X+9546336Y+8033004D02*
X+9492996Y+8033004D01*
X+9492996Y+8011668D01*
X+9535668Y+8011668D01*
X+9546336Y+8001000D01*
X+9546336Y+7979664D01*
X+9535668Y+7968996D01*
X+9503664Y+7968996D01*
X+9492996Y+7979664D01*
X+9631680Y+8022336D02*
X+9621012Y+8033004D01*
X+9589008Y+8033004D01*
X+9578340Y+8022336D01*
X+9578340Y+7979664D01*
X+9589008Y+7968996D01*
X+9621012Y+7968996D01*
X+9631680Y+7979664D01*
X+9631680Y+7990332D01*
X+9621012Y+8001000D01*
X+9578340Y+8001000D01*
D33*
X+8928100Y+7658100D02*
X+10121900Y+7658100D01*
X+10121900Y+7835900D01*
X+8928100Y+7835900D01*
X+8928100Y+7658100D01*
D79*
X+9396984Y+7714996D02*
X+9396984Y+7779004D01*
X+9450324Y+7779004D01*
X+9460992Y+7768336D01*
X+9460992Y+7757668D01*
X+9450324Y+7747000D01*
X+9396984Y+7747000D01*
X+9450324Y+7747000D02*
X+9460992Y+7736332D01*
X+9460992Y+7714996D01*
X+9546336Y+7779004D02*
X+9492996Y+7779004D01*
X+9492996Y+7757668D01*
X+9535668Y+7757668D01*
X+9546336Y+7747000D01*
X+9546336Y+7725664D01*
X+9535668Y+7714996D01*
X+9503664Y+7714996D01*
X+9492996Y+7725664D01*
X+9578340Y+7779004D02*
X+9631680Y+7779004D01*
X+9631680Y+7768336D01*
X+9578340Y+7714996D01*
D33*
X+6085840Y+3164840D02*
X+8392160Y+3164840D01*
X+8392160Y+3820160D01*
X+6085840Y+3820160D01*
X+6085840Y+3164840D01*
D77*
X+6767171Y+3453180D02*
X+6767171Y+3413861D01*
X+6806490Y+3374542D01*
X+6963766Y+3374542D01*
X+7003085Y+3413861D01*
X+7003085Y+3610457D01*
X+7121043Y+3571138D02*
X+7160362Y+3610457D01*
X+7278319Y+3610457D01*
X+7317638Y+3571138D01*
X+7317638Y+3531819D01*
X+7278319Y+3492500D01*
X+7160362Y+3492500D01*
X+7121043Y+3453180D01*
X+7121043Y+3374542D01*
X+7317638Y+3374542D01*
X+7474915Y+3531819D02*
X+7553553Y+3610457D01*
X+7553553Y+3374542D01*
D33*
X+3672840Y+3164840D02*
X+5979160Y+3164840D01*
X+5979160Y+3820160D01*
X+3672840Y+3820160D01*
X+3672840Y+3164840D01*
D77*
X+4354171Y+3453180D02*
X+4354171Y+3413861D01*
X+4393490Y+3374542D01*
X+4550766Y+3374542D01*
X+4590085Y+3413861D01*
X+4590085Y+3610457D01*
X+4708043Y+3571138D02*
X+4747362Y+3610457D01*
X+4865319Y+3610457D01*
X+4904638Y+3571138D01*
X+4904638Y+3531819D01*
X+4865319Y+3492500D01*
X+4747362Y+3492500D01*
X+4708043Y+3453180D01*
X+4708043Y+3374542D01*
X+4904638Y+3374542D01*
X+5022596Y+3571138D02*
X+5061915Y+3610457D01*
X+5179872Y+3610457D01*
X+5219191Y+3571138D01*
X+5219191Y+3531819D01*
X+5179872Y+3492500D01*
X+5061915Y+3492500D01*
X+5022596Y+3453180D01*
X+5022596Y+3374542D01*
X+5219191Y+3374542D01*
D33*
X+927100Y+9563100D02*
X+2120900Y+9563100D01*
X+2120900Y+9740900D01*
X+927100Y+9740900D01*
X+927100Y+9563100D01*
D79*
X+1395984Y+9619996D02*
X+1395984Y+9684004D01*
X+1449324Y+9684004D01*
X+1459992Y+9673336D01*
X+1459992Y+9662668D01*
X+1449324Y+9652000D01*
X+1395984Y+9652000D01*
X+1449324Y+9652000D02*
X+1459992Y+9641332D01*
X+1459992Y+9619996D01*
X+1545336Y+9684004D02*
X+1491996Y+9684004D01*
X+1491996Y+9662668D01*
X+1534668Y+9662668D01*
X+1545336Y+9652000D01*
X+1545336Y+9630664D01*
X+1534668Y+9619996D01*
X+1502664Y+9619996D01*
X+1491996Y+9630664D01*
X+1588008Y+9652000D02*
X+1577340Y+9662668D01*
X+1577340Y+9673336D01*
X+1588008Y+9684004D01*
X+1620012Y+9684004D01*
X+1630680Y+9673336D01*
X+1630680Y+9662668D01*
X+1620012Y+9652000D01*
X+1588008Y+9652000D01*
X+1577340Y+9641332D01*
X+1577340Y+9630664D01*
X+1588008Y+9619996D01*
X+1620012Y+9619996D01*
X+1630680Y+9630664D01*
X+1630680Y+9641332D01*
X+1620012Y+9652000D01*
D33*
X+7404100Y+8674100D02*
X+8597900Y+8674100D01*
X+8597900Y+8851900D01*
X+7404100Y+8851900D01*
X+7404100Y+8674100D01*
D79*
X+7872984Y+8730996D02*
X+7872984Y+8795004D01*
X+7926324Y+8795004D01*
X+7936992Y+8784336D01*
X+7936992Y+8773668D01*
X+7926324Y+8763000D01*
X+7872984Y+8763000D01*
X+7926324Y+8763000D02*
X+7936992Y+8752332D01*
X+7936992Y+8730996D01*
X+8022336Y+8795004D02*
X+7968996Y+8795004D01*
X+7968996Y+8773668D01*
X+8011668Y+8773668D01*
X+8022336Y+8763000D01*
X+8022336Y+8741664D01*
X+8011668Y+8730996D01*
X+7979664Y+8730996D01*
X+7968996Y+8741664D01*
X+8107680Y+8773668D02*
X+8097012Y+8763000D01*
X+8065008Y+8763000D01*
X+8054340Y+8773668D01*
X+8054340Y+8784336D01*
X+8065008Y+8795004D01*
X+8097012Y+8795004D01*
X+8107680Y+8784336D01*
X+8107680Y+8741664D01*
X+8097012Y+8730996D01*
X+8065008Y+8730996D01*
D33*
X+7404100Y+8420100D02*
X+8597900Y+8420100D01*
X+8597900Y+8597900D01*
X+7404100Y+8597900D01*
X+7404100Y+8420100D01*
D79*
X+7872984Y+8476996D02*
X+7872984Y+8541004D01*
X+7926324Y+8541004D01*
X+7936992Y+8530336D01*
X+7936992Y+8519668D01*
X+7926324Y+8509000D01*
X+7872984Y+8509000D01*
X+7926324Y+8509000D02*
X+7936992Y+8498332D01*
X+7936992Y+8476996D01*
X+8022336Y+8530336D02*
X+8011668Y+8541004D01*
X+7979664Y+8541004D01*
X+7968996Y+8530336D01*
X+7968996Y+8487664D01*
X+7979664Y+8476996D01*
X+8011668Y+8476996D01*
X+8022336Y+8487664D01*
X+8022336Y+8498332D01*
X+8011668Y+8509000D01*
X+7968996Y+8509000D01*
X+8043672Y+8487664D02*
X+8043672Y+8530336D01*
X+8054340Y+8541004D01*
X+8097012Y+8541004D01*
X+8107680Y+8530336D01*
X+8107680Y+8487664D01*
X+8097012Y+8476996D01*
X+8054340Y+8476996D01*
X+8043672Y+8487664D01*
X+8043672Y+8476996D02*
X+8107680Y+8541004D01*
D33*
X+7404100Y+8166100D02*
X+8597900Y+8166100D01*
X+8597900Y+8343900D01*
X+7404100Y+8343900D01*
X+7404100Y+8166100D01*
D79*
X+7872984Y+8222996D02*
X+7872984Y+8287004D01*
X+7926324Y+8287004D01*
X+7936992Y+8276336D01*
X+7936992Y+8265668D01*
X+7926324Y+8255000D01*
X+7872984Y+8255000D01*
X+7926324Y+8255000D02*
X+7936992Y+8244332D01*
X+7936992Y+8222996D01*
X+8022336Y+8276336D02*
X+8011668Y+8287004D01*
X+7979664Y+8287004D01*
X+7968996Y+8276336D01*
X+7968996Y+8233664D01*
X+7979664Y+8222996D01*
X+8011668Y+8222996D01*
X+8022336Y+8233664D01*
X+8022336Y+8244332D01*
X+8011668Y+8255000D01*
X+7968996Y+8255000D01*
X+8065008Y+8265668D02*
X+8086344Y+8287004D01*
X+8086344Y+8222996D01*
D33*
X+7404100Y+7912100D02*
X+8597900Y+7912100D01*
X+8597900Y+8089900D01*
X+7404100Y+8089900D01*
X+7404100Y+7912100D01*
D79*
X+7872984Y+7968996D02*
X+7872984Y+8033004D01*
X+7926324Y+8033004D01*
X+7936992Y+8022336D01*
X+7936992Y+8011668D01*
X+7926324Y+8001000D01*
X+7872984Y+8001000D01*
X+7926324Y+8001000D02*
X+7936992Y+7990332D01*
X+7936992Y+7968996D01*
X+8022336Y+8022336D02*
X+8011668Y+8033004D01*
X+7979664Y+8033004D01*
X+7968996Y+8022336D01*
X+7968996Y+7979664D01*
X+7979664Y+7968996D01*
X+8011668Y+7968996D01*
X+8022336Y+7979664D01*
X+8022336Y+7990332D01*
X+8011668Y+8001000D01*
X+7968996Y+8001000D01*
X+8054340Y+8022336D02*
X+8065008Y+8033004D01*
X+8097012Y+8033004D01*
X+8107680Y+8022336D01*
X+8107680Y+8011668D01*
X+8097012Y+8001000D01*
X+8065008Y+8001000D01*
X+8054340Y+7990332D01*
X+8054340Y+7968996D01*
X+8107680Y+7968996D01*
D33*
X+7404100Y+7658100D02*
X+8597900Y+7658100D01*
X+8597900Y+7835900D01*
X+7404100Y+7835900D01*
X+7404100Y+7658100D01*
D79*
X+7872984Y+7714996D02*
X+7872984Y+7779004D01*
X+7926324Y+7779004D01*
X+7936992Y+7768336D01*
X+7936992Y+7757668D01*
X+7926324Y+7747000D01*
X+7872984Y+7747000D01*
X+7926324Y+7747000D02*
X+7936992Y+7736332D01*
X+7936992Y+7714996D01*
X+8022336Y+7768336D02*
X+8011668Y+7779004D01*
X+7979664Y+7779004D01*
X+7968996Y+7768336D01*
X+7968996Y+7725664D01*
X+7979664Y+7714996D01*
X+8011668Y+7714996D01*
X+8022336Y+7725664D01*
X+8022336Y+7736332D01*
X+8011668Y+7747000D01*
X+7968996Y+7747000D01*
X+8054340Y+7768336D02*
X+8065008Y+7779004D01*
X+8097012Y+7779004D01*
X+8107680Y+7768336D01*
X+8107680Y+7757668D01*
X+8097012Y+7747000D01*
X+8107680Y+7736332D01*
X+8107680Y+7725664D01*
X+8097012Y+7714996D01*
X+8065008Y+7714996D01*
X+8054340Y+7725664D01*
X+8075676Y+7747000D02*
X+8097012Y+7747000D01*
D33*
X+6007100Y+8674100D02*
X+7200900Y+8674100D01*
X+7200900Y+8851900D01*
X+6007100Y+8851900D01*
X+6007100Y+8674100D01*
D79*
X+6475984Y+8730996D02*
X+6475984Y+8795004D01*
X+6529324Y+8795004D01*
X+6539992Y+8784336D01*
X+6539992Y+8773668D01*
X+6529324Y+8763000D01*
X+6475984Y+8763000D01*
X+6529324Y+8763000D02*
X+6539992Y+8752332D01*
X+6539992Y+8730996D01*
X+6625336Y+8784336D02*
X+6614668Y+8795004D01*
X+6582664Y+8795004D01*
X+6571996Y+8784336D01*
X+6571996Y+8741664D01*
X+6582664Y+8730996D01*
X+6614668Y+8730996D01*
X+6625336Y+8741664D01*
X+6625336Y+8752332D01*
X+6614668Y+8763000D01*
X+6571996Y+8763000D01*
X+6710680Y+8752332D02*
X+6646672Y+8752332D01*
X+6689344Y+8795004D01*
X+6689344Y+8730996D01*
D33*
X+6007100Y+8420100D02*
X+7200900Y+8420100D01*
X+7200900Y+8597900D01*
X+6007100Y+8597900D01*
X+6007100Y+8420100D01*
D79*
X+6475984Y+8476996D02*
X+6475984Y+8541004D01*
X+6529324Y+8541004D01*
X+6539992Y+8530336D01*
X+6539992Y+8519668D01*
X+6529324Y+8509000D01*
X+6475984Y+8509000D01*
X+6529324Y+8509000D02*
X+6539992Y+8498332D01*
X+6539992Y+8476996D01*
X+6625336Y+8530336D02*
X+6614668Y+8541004D01*
X+6582664Y+8541004D01*
X+6571996Y+8530336D01*
X+6571996Y+8487664D01*
X+6582664Y+8476996D01*
X+6614668Y+8476996D01*
X+6625336Y+8487664D01*
X+6625336Y+8498332D01*
X+6614668Y+8509000D01*
X+6571996Y+8509000D01*
X+6710680Y+8541004D02*
X+6657340Y+8541004D01*
X+6657340Y+8519668D01*
X+6700012Y+8519668D01*
X+6710680Y+8509000D01*
X+6710680Y+8487664D01*
X+6700012Y+8476996D01*
X+6668008Y+8476996D01*
X+6657340Y+8487664D01*
D33*
X+6007100Y+8166100D02*
X+7200900Y+8166100D01*
X+7200900Y+8343900D01*
X+6007100Y+8343900D01*
X+6007100Y+8166100D01*
D79*
X+6475984Y+8222996D02*
X+6475984Y+8287004D01*
X+6529324Y+8287004D01*
X+6539992Y+8276336D01*
X+6539992Y+8265668D01*
X+6529324Y+8255000D01*
X+6475984Y+8255000D01*
X+6529324Y+8255000D02*
X+6539992Y+8244332D01*
X+6539992Y+8222996D01*
X+6625336Y+8276336D02*
X+6614668Y+8287004D01*
X+6582664Y+8287004D01*
X+6571996Y+8276336D01*
X+6571996Y+8233664D01*
X+6582664Y+8222996D01*
X+6614668Y+8222996D01*
X+6625336Y+8233664D01*
X+6625336Y+8244332D01*
X+6614668Y+8255000D01*
X+6571996Y+8255000D01*
X+6710680Y+8276336D02*
X+6700012Y+8287004D01*
X+6668008Y+8287004D01*
X+6657340Y+8276336D01*
X+6657340Y+8233664D01*
X+6668008Y+8222996D01*
X+6700012Y+8222996D01*
X+6710680Y+8233664D01*
X+6710680Y+8244332D01*
X+6700012Y+8255000D01*
X+6657340Y+8255000D01*
D33*
X+6007100Y+7912100D02*
X+7200900Y+7912100D01*
X+7200900Y+8089900D01*
X+6007100Y+8089900D01*
X+6007100Y+7912100D01*
D79*
X+6475984Y+7968996D02*
X+6475984Y+8033004D01*
X+6529324Y+8033004D01*
X+6539992Y+8022336D01*
X+6539992Y+8011668D01*
X+6529324Y+8001000D01*
X+6475984Y+8001000D01*
X+6529324Y+8001000D02*
X+6539992Y+7990332D01*
X+6539992Y+7968996D01*
X+6625336Y+8022336D02*
X+6614668Y+8033004D01*
X+6582664Y+8033004D01*
X+6571996Y+8022336D01*
X+6571996Y+7979664D01*
X+6582664Y+7968996D01*
X+6614668Y+7968996D01*
X+6625336Y+7979664D01*
X+6625336Y+7990332D01*
X+6614668Y+8001000D01*
X+6571996Y+8001000D01*
X+6657340Y+8033004D02*
X+6710680Y+8033004D01*
X+6710680Y+8022336D01*
X+6657340Y+7968996D01*
D33*
X+6007100Y+7658100D02*
X+7200900Y+7658100D01*
X+7200900Y+7835900D01*
X+6007100Y+7835900D01*
X+6007100Y+7658100D01*
D79*
X+6475984Y+7714996D02*
X+6475984Y+7779004D01*
X+6529324Y+7779004D01*
X+6539992Y+7768336D01*
X+6539992Y+7757668D01*
X+6529324Y+7747000D01*
X+6475984Y+7747000D01*
X+6529324Y+7747000D02*
X+6539992Y+7736332D01*
X+6539992Y+7714996D01*
X+6625336Y+7768336D02*
X+6614668Y+7779004D01*
X+6582664Y+7779004D01*
X+6571996Y+7768336D01*
X+6571996Y+7725664D01*
X+6582664Y+7714996D01*
X+6614668Y+7714996D01*
X+6625336Y+7725664D01*
X+6625336Y+7736332D01*
X+6614668Y+7747000D01*
X+6571996Y+7747000D01*
X+6668008Y+7747000D02*
X+6657340Y+7757668D01*
X+6657340Y+7768336D01*
X+6668008Y+7779004D01*
X+6700012Y+7779004D01*
X+6710680Y+7768336D01*
X+6710680Y+7757668D01*
X+6700012Y+7747000D01*
X+6668008Y+7747000D01*
X+6657340Y+7736332D01*
X+6657340Y+7725664D01*
X+6668008Y+7714996D01*
X+6700012Y+7714996D01*
X+6710680Y+7725664D01*
X+6710680Y+7736332D01*
X+6700012Y+7747000D01*
D75*
X+7418000Y+6656000D02*
X+7728000Y+6656000D01*
X+7728000Y+6806000D01*
X+7418000Y+6806000D01*
X+7418000Y+6656000D01*
X+7573000Y+6781000D02*
X+7573000Y+6681000D01*
X+7623000Y+6731000D02*
X+7523000Y+6731000D01*
D80*
X+7478500Y+6707375D02*
X+7478500Y+6754625D01*
X+7517875Y+6754625D01*
X+7525750Y+6746750D01*
X+7525750Y+6738875D01*
X+7517875Y+6731000D01*
X+7478500Y+6731000D01*
X+7517875Y+6731000D02*
X+7525750Y+6723125D01*
X+7525750Y+6707375D01*
X+7588750Y+6746750D02*
X+7580875Y+6754625D01*
X+7557250Y+6754625D01*
X+7549375Y+6746750D01*
X+7549375Y+6715250D01*
X+7557250Y+6707375D01*
X+7580875Y+6707375D01*
X+7588750Y+6715250D01*
X+7588750Y+6723125D01*
X+7580875Y+6731000D01*
X+7549375Y+6731000D01*
X+7651750Y+6738875D02*
X+7643875Y+6731000D01*
X+7620250Y+6731000D01*
X+7612375Y+6738875D01*
X+7612375Y+6746750D01*
X+7620250Y+6754625D01*
X+7643875Y+6754625D01*
X+7651750Y+6746750D01*
X+7651750Y+6715250D01*
X+7643875Y+6707375D01*
X+7620250Y+6707375D01*
D75*
X+7418000Y+7037000D02*
X+7728000Y+7037000D01*
X+7728000Y+7187000D01*
X+7418000Y+7187000D01*
X+7418000Y+7037000D01*
X+7573000Y+7162000D02*
X+7573000Y+7062000D01*
X+7623000Y+7112000D02*
X+7523000Y+7112000D01*
D80*
X+7478500Y+7088375D02*
X+7478500Y+7135625D01*
X+7517875Y+7135625D01*
X+7525750Y+7127750D01*
X+7525750Y+7119875D01*
X+7517875Y+7112000D01*
X+7478500Y+7112000D01*
X+7517875Y+7112000D02*
X+7525750Y+7104125D01*
X+7525750Y+7088375D01*
X+7549375Y+7135625D02*
X+7588750Y+7135625D01*
X+7588750Y+7127750D01*
X+7549375Y+7088375D01*
X+7604500Y+7096250D02*
X+7604500Y+7127750D01*
X+7612375Y+7135625D01*
X+7643875Y+7135625D01*
X+7651750Y+7127750D01*
X+7651750Y+7096250D01*
X+7643875Y+7088375D01*
X+7612375Y+7088375D01*
X+7604500Y+7096250D01*
X+7604500Y+7088375D02*
X+7651750Y+7135625D01*
D75*
X+6839000Y+7060000D02*
X+6529000Y+7060000D01*
X+6529000Y+6910000D01*
X+6839000Y+6910000D01*
X+6839000Y+7060000D01*
X+6684000Y+6935000D02*
X+6684000Y+7035000D01*
X+6634000Y+6985000D02*
X+6734000Y+6985000D01*
D80*
X+6589500Y+6961375D02*
X+6589500Y+7008625D01*
X+6628875Y+7008625D01*
X+6636750Y+7000750D01*
X+6636750Y+6992875D01*
X+6628875Y+6985000D01*
X+6589500Y+6985000D01*
X+6628875Y+6985000D02*
X+6636750Y+6977125D01*
X+6636750Y+6961375D01*
X+6660375Y+7008625D02*
X+6699750Y+7008625D01*
X+6699750Y+7000750D01*
X+6660375Y+6961375D01*
X+6731250Y+6992875D02*
X+6747000Y+7008625D01*
X+6747000Y+6961375D01*
D75*
X+6910000Y+7037000D02*
X+7220000Y+7037000D01*
X+7220000Y+7187000D01*
X+6910000Y+7187000D01*
X+6910000Y+7037000D01*
X+7065000Y+7162000D02*
X+7065000Y+7062000D01*
X+7115000Y+7112000D02*
X+7015000Y+7112000D01*
D80*
X+6970500Y+7088375D02*
X+6970500Y+7135625D01*
X+7009875Y+7135625D01*
X+7017750Y+7127750D01*
X+7017750Y+7119875D01*
X+7009875Y+7112000D01*
X+6970500Y+7112000D01*
X+7009875Y+7112000D02*
X+7017750Y+7104125D01*
X+7017750Y+7088375D01*
X+7041375Y+7135625D02*
X+7080750Y+7135625D01*
X+7080750Y+7127750D01*
X+7041375Y+7088375D01*
X+7104375Y+7127750D02*
X+7112250Y+7135625D01*
X+7135875Y+7135625D01*
X+7143750Y+7127750D01*
X+7143750Y+7119875D01*
X+7135875Y+7112000D01*
X+7112250Y+7112000D01*
X+7104375Y+7104125D01*
X+7104375Y+7088375D01*
X+7143750Y+7088375D01*
D75*
X+6910000Y+4878000D02*
X+7220000Y+4878000D01*
X+7220000Y+5028000D01*
X+6910000Y+5028000D01*
X+6910000Y+4878000D01*
X+7065000Y+5003000D02*
X+7065000Y+4903000D01*
X+7115000Y+4953000D02*
X+7015000Y+4953000D01*
D80*
X+6970500Y+4929375D02*
X+6970500Y+4976625D01*
X+7009875Y+4976625D01*
X+7017750Y+4968750D01*
X+7017750Y+4960875D01*
X+7009875Y+4953000D01*
X+6970500Y+4953000D01*
X+7009875Y+4953000D02*
X+7017750Y+4945125D01*
X+7017750Y+4929375D01*
X+7041375Y+4976625D02*
X+7080750Y+4976625D01*
X+7080750Y+4968750D01*
X+7041375Y+4929375D01*
X+7104375Y+4968750D02*
X+7112250Y+4976625D01*
X+7135875Y+4976625D01*
X+7143750Y+4968750D01*
X+7143750Y+4960875D01*
X+7135875Y+4953000D01*
X+7143750Y+4945125D01*
X+7143750Y+4937250D01*
X+7135875Y+4929375D01*
X+7112250Y+4929375D01*
X+7104375Y+4937250D01*
X+7120125Y+4953000D02*
X+7135875Y+4953000D01*
D75*
X+6783000Y+6402000D02*
X+7093000Y+6402000D01*
X+7093000Y+6552000D01*
X+6783000Y+6552000D01*
X+6783000Y+6402000D01*
X+6938000Y+6527000D02*
X+6938000Y+6427000D01*
X+6988000Y+6477000D02*
X+6888000Y+6477000D01*
D80*
X+6843500Y+6453375D02*
X+6843500Y+6500625D01*
X+6882875Y+6500625D01*
X+6890750Y+6492750D01*
X+6890750Y+6484875D01*
X+6882875Y+6477000D01*
X+6843500Y+6477000D01*
X+6882875Y+6477000D02*
X+6890750Y+6469125D01*
X+6890750Y+6453375D01*
X+6914375Y+6500625D02*
X+6953750Y+6500625D01*
X+6953750Y+6492750D01*
X+6914375Y+6453375D01*
X+7016750Y+6469125D02*
X+6969500Y+6469125D01*
X+7001000Y+6500625D01*
X+7001000Y+6453375D01*
D33*
X-3771900Y+5118100D02*
X-3594100Y+5118100D01*
X-3594100Y+6311900D01*
X-3771900Y+6311900D01*
X-3771900Y+5118100D01*
D79*
X-3650996Y+5629656D02*
X-3715004Y+5629656D01*
X-3715004Y+5682996D01*
X-3704336Y+5693664D01*
X-3693668Y+5693664D01*
X-3683000Y+5682996D01*
X-3683000Y+5629656D01*
X-3683000Y+5682996D02*
X-3672332Y+5693664D01*
X-3650996Y+5693664D01*
X-3693668Y+5736336D02*
X-3715004Y+5757672D01*
X-3650996Y+5757672D01*
D32*
X-10520391Y+11811000D02*
X-10521651Y+11842791D01*
X-10531880Y+11906374D01*
X-10553188Y+11969957D01*
X-10587686Y+12033540D01*
X-10640162Y+12097107D01*
X-10703745Y+12148127D01*
X-10767328Y+12181630D01*
X-10830911Y+12202143D01*
X-10894494Y+12211666D01*
X-10922000Y+12212609D01*
X-11323609Y+11811000D02*
X-11322349Y+11842791D01*
X-11312120Y+11906374D01*
X-11290812Y+11969957D01*
X-11256314Y+12033540D01*
X-11203838Y+12097107D01*
X-11140255Y+12148127D01*
X-11076672Y+12181630D01*
X-11013089Y+12202143D01*
X-10949506Y+12211666D01*
X-10922000Y+12212609D01*
X-11323609Y+11811000D02*
X-11322349Y+11779209D01*
X-11312120Y+11715626D01*
X-11290812Y+11652043D01*
X-11256314Y+11588460D01*
X-11203838Y+11524893D01*
X-11140255Y+11473873D01*
X-11076672Y+11440370D01*
X-11013089Y+11419857D01*
X-10949506Y+11410334D01*
X-10922000Y+11409391D01*
X-10520391Y+11811000D02*
X-10521651Y+11779209D01*
X-10531880Y+11715626D01*
X-10553188Y+11652043D01*
X-10587686Y+11588460D01*
X-10640162Y+11524893D01*
X-10703745Y+11473873D01*
X-10767328Y+11440370D01*
X-10830911Y+11419857D01*
X-10894494Y+11410334D01*
X-10922000Y+11409391D01*
M02*
