M48
METRIC,TZ
T01C0.3810
T02C0.5080
T03C1.6510
T04C0.7620
T05C1.0160
T06C1.5240
T07C1.1430
T08C0.8500
T09C1.2700
%
T01
X+48260Y+71120
X+50165Y+76200
X+49530Y+69850
X+43815Y+39370
X+46990Y+74930
X+53340Y+73660
X+48260Y+48260
X+48260Y+53340
X+52070Y+50800
X+45085Y+48260
X+49530Y+53340
X+49530Y+71120
X+46990Y+73660
X+31115Y+78740
X+39370Y+79375
X+40005Y+77470
X+41275Y+69850
X+35560Y+77470
X+38735Y+73660
X+41910Y+73660
X+38100Y+50800
X+38735Y+40640
X+36830Y+49530
X+76200Y+66040
X+71755Y+64770
X+74930Y+52070
X+66040Y+55880
X+33020Y+69850
X+45720Y+70485
X+33020Y+45085
X+44450Y+73660
X+41910Y+52070
X+39370Y+100965
X+56515Y+49530
X+53340Y+53340
X+53975Y+69850
X-62230Y+59690
X-72390Y+60325
X+68580Y+49530
X+74930Y+68580
X+72390Y+67310
X+64770Y+64770
X+66040Y+68580
X-86995Y+83820
X-10795Y+87630
X-16510Y+31115
X+60960Y+29210
X+60960Y+48895
X+40640Y+32385
X+59055Y+32385
X+78740Y+38735
X+34290Y+30480
X-18415Y+29210
X+80010Y+71120
X+85090Y+73660
X+90170Y+50800
X+61595Y+50165
X+57150Y+52070
X+55880Y+58420
X-55880Y+48260
X-82550Y+55880
X-13970Y+67945
X-78740Y+33655
X-27305Y+46355
X-53340Y+43815
X-17780Y+86360
X-15875Y+84455
X-29845Y+60325
X-44450Y+60325
X-48260Y+53340
X-50800Y+53340
X-54610Y+53340
X-46990Y+53340
X-53340Y+53340
X-52070Y+53340
X-49530Y+53340
X-22860Y+86995
X-25400Y+86995
X+50804Y+82720
X+53342Y+85090
X-73660Y+96520
X-76200Y+96520
X-68580Y+96520
X-71120Y+96520
X-44450Y+82550
X-46990Y+83820
X-81915Y+81280
X+97338Y+90170
X+76200Y+74930
X+97338Y+87630
X-60960Y+39370
X-75565Y+33655
X-64770Y+31750
X-53975Y+36195
X+2540Y+34290
X+5080Y+72390
X+29845Y+71120
X+21590Y+71120
X+21590Y+64770
X-28575Y+60325
X+25400Y+62230
X+33020Y+77470
X+24130Y+77470
X+24130Y+60960
X-39370Y+72390
X-41910Y+72390
X-44450Y+72390
X-46990Y+72390
X-49530Y+72390
X-52070Y+72390
X-52070Y+64770
X-49530Y+64770
X-46990Y+64770
X-44450Y+64770
X-41910Y+64770
X-39370Y+64770
X-36830Y+64770
T02
X-20320Y+86995
X-47464Y+86360
X-47447Y+89218
X+97247Y+81288
X+97338Y+84710
X+97192Y+77479
X+53343Y+82658
X+53341Y+87630
T03
X-76200Y+104140
X-70739Y+104140
X-65278Y+104140
X-93980Y+81280
X-93980Y+86741
X-93980Y+92202
X-54610Y+104140
X-49149Y+104140
X-43688Y+104140
X-93980Y+60960
X-93980Y+66421
X-93980Y+71882
X-34290Y+104140
X-28829Y+104140
X-23368Y+104140
X-93980Y+40640
X-93980Y+46101
X-93980Y+51562
T04
X-59690Y+72390
X-62230Y+72390
X-64770Y+72390
X-67310Y+72390
X-69850Y+72390
X-72390Y+72390
X-74930Y+72390
X-74930Y+64770
X-72390Y+64770
X-69850Y+64770
X-67310Y+64770
X-64770Y+64770
X-62230Y+64770
X-59690Y+64770
X-36830Y+72390
X-13970Y+72390
X-16510Y+72390
X-19050Y+72390
X-21590Y+72390
X-24130Y+72390
X-26670Y+72390
X-29210Y+72390
X-29210Y+64770
X-26670Y+64770
X-24130Y+64770
X-21590Y+64770
X-19050Y+64770
X-16510Y+64770
X-13970Y+64770
X-74930Y+77470
X-72390Y+77470
X-53340Y+77470
X-50800Y+77470
X-30480Y+77470
X-27940Y+77470
X+29210Y+97790
X+26670Y+97790
X-88900Y+31750
X-86360Y+31750
X-83820Y+31750
X-81280Y+31750
X-78740Y+31750
X-76200Y+31750
X-73660Y+31750
X-71120Y+31750
X-24130Y+58420
X-13970Y+58420
X-13970Y+53340
X-24130Y+53340
X-24130Y+46990
X-13970Y+46990
X-13970Y+41910
X-24130Y+41910
X-24130Y+38100
X-13970Y+38100
X-66040Y+90170
X-43180Y+90170
X-22860Y+90170
X-80010Y+50800
X-80010Y+40640
X-81280Y+71120
X-78740Y+91440
X-62230Y+31750
X-59690Y+31750
X-57150Y+31750
X-54610Y+31750
X-52070Y+31750
X-49530Y+31750
X-46990Y+31750
X-44450Y+31750
X+53340Y+66040
X+50800Y+66040
X+48260Y+66040
X+45720Y+66040
X+43180Y+66040
X+40640Y+66040
X+38100Y+66040
X+38100Y+58420
X+40640Y+58420
X+43180Y+58420
X+45720Y+58420
X+48260Y+58420
X+50800Y+58420
X+53340Y+58420
X+81280Y+62230
X+78740Y+62230
X+76200Y+62230
X+73660Y+62230
X+71120Y+62230
X+68580Y+62230
X+66040Y+62230
X+66040Y+54610
X+68580Y+54610
X+71120Y+54610
X+73660Y+54610
X+76200Y+54610
X+78740Y+54610
X+81280Y+54610
X+90170Y+87630
X+100330Y+87630
X+100330Y+85090
X+90170Y+85090
X+90170Y+82550
X+100330Y+82550
X+100330Y+80010
X+90170Y+80010
X+90170Y+77470
X+100330Y+77470
X+63500Y+34290
X+66040Y+34290
X+68580Y+34290
X+71120Y+34290
X+73660Y+34290
X+76200Y+34290
X+78740Y+34290
X+81280Y+34290
X+39370Y+34290
X+41910Y+34290
X+44450Y+34290
X+46990Y+34290
X+49530Y+34290
X+52070Y+34290
X+54610Y+34290
X+57150Y+34290
X+85090Y+87630
X+74930Y+87630
X+74930Y+85090
X+85090Y+85090
X+85090Y+82550
X+74930Y+82550
X+74930Y+80010
X+85090Y+80010
X+85090Y+77470
X+74930Y+77470
X+71120Y+87630
X+60960Y+87630
X+60960Y+85090
X+71120Y+85090
X+71120Y+82550
X+60960Y+82550
X+60960Y+80010
X+71120Y+80010
X+71120Y+77470
X+60960Y+77470
X-36830Y+62230
X-36830Y+52070
T05
X-58420Y+77470
X-68580Y+77470
X-36830Y+77470
X-46990Y+77470
X-13970Y+77470
X-24130Y+77470
X+36830Y+104140
X+39370Y+104140
X+41910Y+104140
X+24130Y+104140
X+26670Y+104140
X+29210Y+104140
X+58420Y+99060
X+48260Y+99060
X+44450Y+86360
X+34290Y+86360
X+48260Y+95250
X+58420Y+95250
X+58420Y+87630
X+48260Y+87630
X+46990Y+80010
X+49530Y+80010
X+53340Y+77470
X+55880Y+77470
X+36830Y+81280
X+39370Y+81280
X+30480Y+66040
X+33020Y+66040
X+41910Y+78740
X+44450Y+78740
X+36830Y+45720
X+39370Y+45720
X+46990Y+45720
X+49530Y+45720
X+52070Y+45720
X+54610Y+45720
X+57150Y+69850
X+59690Y+69850
X+58420Y+63500
X+60960Y+63500
X+30480Y+60960
X+33020Y+60960
X+30480Y+55880
X+33020Y+55880
X+58420Y+58420
X+60960Y+58420
X+58420Y+54610
X+60960Y+54610
T06
X+92710Y+48260
X+92710Y+53340
X+92710Y+58420
X+92710Y+63500
X+76200Y+113030
X+71120Y+113030
X+66040Y+113030
X+55880Y+113030
X+50800Y+113030
X+2480Y+69850
X+2480Y+49530
X+2480Y+88900
X+12740Y+88900
X+17740Y+88900
X+11470Y+69850
X+16470Y+69850
X+11470Y+49530
X+16470Y+49530
X-72390Y+57150
X-41910Y+57150
X-72390Y+48260
X-41910Y+48260
X-72390Y+39370
X-41910Y+39370
X-76200Y+90170
X-53340Y+90170
X-33020Y+90170
X-81280Y+60960
X-78740Y+81280
X+20320Y+96520
X+10160Y+96520
T07
X+14840Y+104140
X-10160Y+104140
X+4840Y+104140
X-2660Y+104140
T08
X+36870Y+93980
X+41870Y+93980
T09
X-5020Y+69850
X-5020Y+49530
X-5020Y+88900
M30
