G04 PROTEUS RS274X GERBER FILE*
%FSLAX45Y45*%
%MOMM*%
G01*
%ADD31C,0.203200*%
%ADD32C,0.120000*%
%ADD33C,0.200000*%
%TD.AperFunction*%
D31*
X-11811000Y+2667000D02*
X+10287000Y+2667000D01*
X+10287000Y+12573000D01*
X-11811000Y+12573000D01*
X-11811000Y+2667000D01*
X-10794444Y+3302000D02*
X-10795647Y+3332279D01*
X-10805415Y+3392839D01*
X-10825767Y+3453399D01*
X-10858733Y+3513959D01*
X-10908917Y+3574492D01*
X-10969477Y+3622832D01*
X-11030037Y+3654533D01*
X-11090597Y+3673875D01*
X-11151157Y+3682746D01*
X-11176000Y+3683556D01*
X-11557556Y+3302000D02*
X-11556353Y+3332279D01*
X-11546585Y+3392839D01*
X-11526233Y+3453399D01*
X-11493267Y+3513959D01*
X-11443083Y+3574492D01*
X-11382523Y+3622832D01*
X-11321963Y+3654533D01*
X-11261403Y+3673875D01*
X-11200843Y+3682746D01*
X-11176000Y+3683556D01*
X-11557556Y+3302000D02*
X-11556353Y+3271721D01*
X-11546585Y+3211161D01*
X-11526233Y+3150601D01*
X-11493267Y+3090041D01*
X-11443083Y+3029508D01*
X-11382523Y+2981168D01*
X-11321963Y+2949467D01*
X-11261403Y+2930125D01*
X-11200843Y+2921254D01*
X-11176000Y+2920444D01*
X-10794444Y+3302000D02*
X-10795647Y+3271721D01*
X-10805415Y+3211161D01*
X-10825767Y+3150601D01*
X-10858733Y+3090041D01*
X-10908917Y+3029508D01*
X-10969477Y+2981168D01*
X-11030037Y+2949467D01*
X-11090597Y+2930125D01*
X-11151157Y+2921254D01*
X-11176000Y+2920444D01*
X+9799609Y+3302000D02*
X+9798349Y+3333791D01*
X+9788120Y+3397374D01*
X+9766812Y+3460957D01*
X+9732314Y+3524540D01*
X+9679838Y+3588107D01*
X+9616255Y+3639127D01*
X+9552672Y+3672630D01*
X+9489089Y+3693143D01*
X+9425506Y+3702666D01*
X+9398000Y+3703609D01*
X+8996391Y+3302000D02*
X+8997651Y+3333791D01*
X+9007880Y+3397374D01*
X+9029188Y+3460957D01*
X+9063686Y+3524540D01*
X+9116162Y+3588107D01*
X+9179745Y+3639127D01*
X+9243328Y+3672630D01*
X+9306911Y+3693143D01*
X+9370494Y+3702666D01*
X+9398000Y+3703609D01*
X+8996391Y+3302000D02*
X+8997651Y+3270209D01*
X+9007880Y+3206626D01*
X+9029188Y+3143043D01*
X+9063686Y+3079460D01*
X+9116162Y+3015893D01*
X+9179745Y+2964873D01*
X+9243328Y+2931370D01*
X+9306911Y+2910857D01*
X+9370494Y+2901334D01*
X+9398000Y+2900391D01*
X+9799609Y+3302000D02*
X+9798349Y+3270209D01*
X+9788120Y+3206626D01*
X+9766812Y+3143043D01*
X+9732314Y+3079460D01*
X+9679838Y+3015893D01*
X+9616255Y+2964873D01*
X+9552672Y+2931370D01*
X+9489089Y+2910857D01*
X+9425506Y+2901334D01*
X+9398000Y+2900391D01*
X+9672609Y+11303000D02*
X+9671349Y+11334791D01*
X+9661120Y+11398374D01*
X+9639812Y+11461957D01*
X+9605314Y+11525540D01*
X+9552838Y+11589107D01*
X+9489255Y+11640127D01*
X+9425672Y+11673630D01*
X+9362089Y+11694143D01*
X+9298506Y+11703666D01*
X+9271000Y+11704609D01*
X+8869391Y+11303000D02*
X+8870651Y+11334791D01*
X+8880880Y+11398374D01*
X+8902188Y+11461957D01*
X+8936686Y+11525540D01*
X+8989162Y+11589107D01*
X+9052745Y+11640127D01*
X+9116328Y+11673630D01*
X+9179911Y+11694143D01*
X+9243494Y+11703666D01*
X+9271000Y+11704609D01*
X+8869391Y+11303000D02*
X+8870651Y+11271209D01*
X+8880880Y+11207626D01*
X+8902188Y+11144043D01*
X+8936686Y+11080460D01*
X+8989162Y+11016893D01*
X+9052745Y+10965873D01*
X+9116328Y+10932370D01*
X+9179911Y+10911857D01*
X+9243494Y+10902334D01*
X+9271000Y+10901391D01*
X+9672609Y+11303000D02*
X+9671349Y+11271209D01*
X+9661120Y+11207626D01*
X+9639812Y+11144043D01*
X+9605314Y+11080460D01*
X+9552838Y+11016893D01*
X+9489255Y+10965873D01*
X+9425672Y+10932370D01*
X+9362089Y+10911857D01*
X+9298506Y+10902334D01*
X+9271000Y+10901391D01*
X+2433609Y+3429000D02*
X+2432719Y+3451087D01*
X+2425494Y+3495263D01*
X+2410423Y+3539439D01*
X+2385946Y+3583615D01*
X+2348565Y+3627684D01*
X+2304389Y+3661964D01*
X+2260213Y+3684276D01*
X+2216037Y+3697620D01*
X+2171861Y+3703308D01*
X+2159000Y+3703609D01*
X+1884391Y+3429000D02*
X+1885281Y+3451087D01*
X+1892506Y+3495263D01*
X+1907577Y+3539439D01*
X+1932054Y+3583615D01*
X+1969435Y+3627684D01*
X+2013611Y+3661964D01*
X+2057787Y+3684276D01*
X+2101963Y+3697620D01*
X+2146139Y+3703308D01*
X+2159000Y+3703609D01*
X+1884391Y+3429000D02*
X+1885281Y+3406913D01*
X+1892506Y+3362737D01*
X+1907577Y+3318561D01*
X+1932054Y+3274385D01*
X+1969435Y+3230316D01*
X+2013611Y+3196036D01*
X+2057787Y+3173724D01*
X+2101963Y+3160380D01*
X+2146139Y+3154692D01*
X+2159000Y+3154391D01*
X+2433609Y+3429000D02*
X+2432719Y+3406913D01*
X+2425494Y+3362737D01*
X+2410423Y+3318561D01*
X+2385946Y+3274385D01*
X+2348565Y+3230316D01*
X+2304389Y+3196036D01*
X+2260213Y+3173724D01*
X+2216037Y+3160380D01*
X+2171861Y+3154692D01*
X+2159000Y+3154391D01*
X-7833100Y+10666600D02*
X-6309100Y+10666600D01*
X-6309100Y+10158600D02*
X-7833100Y+10158600D01*
X-6309100Y+10158600D02*
X-6283700Y+10412600D01*
X-6309100Y+10666600D01*
X-7833100Y+10158600D02*
X-7858500Y+10412600D01*
X-7833100Y+10666600D01*
X-7833100Y+10628500D02*
X-6309100Y+10628500D01*
X-7718800Y+10628500D02*
X-7680700Y+10666600D01*
X-7591800Y+10628500D02*
X-7553700Y+10666600D01*
X-7591800Y+10628500D02*
X-7553700Y+10666600D01*
X-7464800Y+10628500D02*
X-7426700Y+10666600D01*
X-7464800Y+10628500D02*
X-7426700Y+10666600D01*
X-7337800Y+10628500D02*
X-7299700Y+10666600D01*
X-7337800Y+10628500D02*
X-7299700Y+10666600D01*
X-7210800Y+10628500D02*
X-7172700Y+10666600D01*
X-7210800Y+10628500D02*
X-7172700Y+10666600D01*
X-7083800Y+10628500D02*
X-7045700Y+10666600D01*
X-7083800Y+10628500D02*
X-7045700Y+10666600D01*
X-6956800Y+10628500D02*
X-6918700Y+10666600D01*
X-6956800Y+10628500D02*
X-6918700Y+10666600D01*
X-6829800Y+10628500D02*
X-6791700Y+10666600D01*
X-6829800Y+10628500D02*
X-6791700Y+10666600D01*
X-6702800Y+10628500D02*
X-6664700Y+10666600D01*
X-6702800Y+10628500D02*
X-6664700Y+10666600D01*
X-6575800Y+10628500D02*
X-6537700Y+10666600D01*
X-6575800Y+10628500D02*
X-6537700Y+10666600D01*
X-6448800Y+10628500D02*
X-6410700Y+10666600D01*
X-7198100Y+10768200D02*
X-7166350Y+10798680D01*
X-7134600Y+10798680D01*
X-7102850Y+10768200D01*
X-7102850Y+10737720D01*
X-7134600Y+10707240D01*
X-7166350Y+10707240D01*
X-7198100Y+10737720D01*
X-7198100Y+10768200D01*
X-7134600Y+10737720D02*
X-7102850Y+10707240D01*
X-7039350Y+10768200D02*
X-7007600Y+10798680D01*
X-7007600Y+10707240D01*
X-9650600Y+7914900D02*
X-9650600Y+9438900D01*
X-9142600Y+9438900D02*
X-9142600Y+7914900D01*
X-9142600Y+9438900D02*
X-9396600Y+9464300D01*
X-9650600Y+9438900D01*
X-9142600Y+7914900D02*
X-9396600Y+7889500D01*
X-9650600Y+7914900D01*
X-9612500Y+7914900D02*
X-9612500Y+9438900D01*
X-9612500Y+8029200D02*
X-9650600Y+8067300D01*
X-9612500Y+8156200D02*
X-9650600Y+8194300D01*
X-9612500Y+8156200D02*
X-9650600Y+8194300D01*
X-9612500Y+8283200D02*
X-9650600Y+8321300D01*
X-9612500Y+8283200D02*
X-9650600Y+8321300D01*
X-9612500Y+8410200D02*
X-9650600Y+8448300D01*
X-9612500Y+8410200D02*
X-9650600Y+8448300D01*
X-9612500Y+8537200D02*
X-9650600Y+8575300D01*
X-9612500Y+8537200D02*
X-9650600Y+8575300D01*
X-9612500Y+8664200D02*
X-9650600Y+8702300D01*
X-9612500Y+8664200D02*
X-9650600Y+8702300D01*
X-9612500Y+8791200D02*
X-9650600Y+8829300D01*
X-9612500Y+8791200D02*
X-9650600Y+8829300D01*
X-9612500Y+8918200D02*
X-9650600Y+8956300D01*
X-9612500Y+8918200D02*
X-9650600Y+8956300D01*
X-9612500Y+9045200D02*
X-9650600Y+9083300D01*
X-9612500Y+9045200D02*
X-9650600Y+9083300D01*
X-9612500Y+9172200D02*
X-9650600Y+9210300D01*
X-9612500Y+9172200D02*
X-9650600Y+9210300D01*
X-9612500Y+9299200D02*
X-9650600Y+9337300D01*
X-9752200Y+8549900D02*
X-9782680Y+8581650D01*
X-9782680Y+8613400D01*
X-9752200Y+8645150D01*
X-9721720Y+8645150D01*
X-9691240Y+8613400D01*
X-9691240Y+8581650D01*
X-9721720Y+8549900D01*
X-9752200Y+8549900D01*
X-9721720Y+8613400D02*
X-9691240Y+8645150D01*
X-9767440Y+8692775D02*
X-9782680Y+8708650D01*
X-9782680Y+8756275D01*
X-9767440Y+8772150D01*
X-9752200Y+8772150D01*
X-9736960Y+8756275D01*
X-9736960Y+8708650D01*
X-9721720Y+8692775D01*
X-9691240Y+8692775D01*
X-9691240Y+8772150D01*
X-5674100Y+10666600D02*
X-4150100Y+10666600D01*
X-4150100Y+10158600D02*
X-5674100Y+10158600D01*
X-4150100Y+10158600D02*
X-4124700Y+10412600D01*
X-4150100Y+10666600D01*
X-5674100Y+10158600D02*
X-5699500Y+10412600D01*
X-5674100Y+10666600D01*
X-5674100Y+10628500D02*
X-4150100Y+10628500D01*
X-5559800Y+10628500D02*
X-5521700Y+10666600D01*
X-5432800Y+10628500D02*
X-5394700Y+10666600D01*
X-5432800Y+10628500D02*
X-5394700Y+10666600D01*
X-5305800Y+10628500D02*
X-5267700Y+10666600D01*
X-5305800Y+10628500D02*
X-5267700Y+10666600D01*
X-5178800Y+10628500D02*
X-5140700Y+10666600D01*
X-5178800Y+10628500D02*
X-5140700Y+10666600D01*
X-5051800Y+10628500D02*
X-5013700Y+10666600D01*
X-5051800Y+10628500D02*
X-5013700Y+10666600D01*
X-4924800Y+10628500D02*
X-4886700Y+10666600D01*
X-4924800Y+10628500D02*
X-4886700Y+10666600D01*
X-4797800Y+10628500D02*
X-4759700Y+10666600D01*
X-4797800Y+10628500D02*
X-4759700Y+10666600D01*
X-4670800Y+10628500D02*
X-4632700Y+10666600D01*
X-4670800Y+10628500D02*
X-4632700Y+10666600D01*
X-4543800Y+10628500D02*
X-4505700Y+10666600D01*
X-4543800Y+10628500D02*
X-4505700Y+10666600D01*
X-4416800Y+10628500D02*
X-4378700Y+10666600D01*
X-4416800Y+10628500D02*
X-4378700Y+10666600D01*
X-4289800Y+10628500D02*
X-4251700Y+10666600D01*
X-5039100Y+10768200D02*
X-5007350Y+10798680D01*
X-4975600Y+10798680D01*
X-4943850Y+10768200D01*
X-4943850Y+10737720D01*
X-4975600Y+10707240D01*
X-5007350Y+10707240D01*
X-5039100Y+10737720D01*
X-5039100Y+10768200D01*
X-4975600Y+10737720D02*
X-4943850Y+10707240D01*
X-4896225Y+10783440D02*
X-4880350Y+10798680D01*
X-4832725Y+10798680D01*
X-4816850Y+10783440D01*
X-4816850Y+10768200D01*
X-4832725Y+10752960D01*
X-4816850Y+10737720D01*
X-4816850Y+10722480D01*
X-4832725Y+10707240D01*
X-4880350Y+10707240D01*
X-4896225Y+10722480D01*
X-4864475Y+10752960D02*
X-4832725Y+10752960D01*
X-9650600Y+5882900D02*
X-9650600Y+7406900D01*
X-9142600Y+7406900D02*
X-9142600Y+5882900D01*
X-9142600Y+7406900D02*
X-9396600Y+7432300D01*
X-9650600Y+7406900D01*
X-9142600Y+5882900D02*
X-9396600Y+5857500D01*
X-9650600Y+5882900D01*
X-9612500Y+5882900D02*
X-9612500Y+7406900D01*
X-9612500Y+5997200D02*
X-9650600Y+6035300D01*
X-9612500Y+6124200D02*
X-9650600Y+6162300D01*
X-9612500Y+6124200D02*
X-9650600Y+6162300D01*
X-9612500Y+6251200D02*
X-9650600Y+6289300D01*
X-9612500Y+6251200D02*
X-9650600Y+6289300D01*
X-9612500Y+6378200D02*
X-9650600Y+6416300D01*
X-9612500Y+6378200D02*
X-9650600Y+6416300D01*
X-9612500Y+6505200D02*
X-9650600Y+6543300D01*
X-9612500Y+6505200D02*
X-9650600Y+6543300D01*
X-9612500Y+6632200D02*
X-9650600Y+6670300D01*
X-9612500Y+6632200D02*
X-9650600Y+6670300D01*
X-9612500Y+6759200D02*
X-9650600Y+6797300D01*
X-9612500Y+6759200D02*
X-9650600Y+6797300D01*
X-9612500Y+6886200D02*
X-9650600Y+6924300D01*
X-9612500Y+6886200D02*
X-9650600Y+6924300D01*
X-9612500Y+7013200D02*
X-9650600Y+7051300D01*
X-9612500Y+7013200D02*
X-9650600Y+7051300D01*
X-9612500Y+7140200D02*
X-9650600Y+7178300D01*
X-9612500Y+7140200D02*
X-9650600Y+7178300D01*
X-9612500Y+7267200D02*
X-9650600Y+7305300D01*
X-9752200Y+6517900D02*
X-9782680Y+6549650D01*
X-9782680Y+6581400D01*
X-9752200Y+6613150D01*
X-9721720Y+6613150D01*
X-9691240Y+6581400D01*
X-9691240Y+6549650D01*
X-9721720Y+6517900D01*
X-9752200Y+6517900D01*
X-9721720Y+6581400D02*
X-9691240Y+6613150D01*
X-9721720Y+6740150D02*
X-9721720Y+6644900D01*
X-9782680Y+6708400D01*
X-9691240Y+6708400D01*
X-3642100Y+10666600D02*
X-2118100Y+10666600D01*
X-2118100Y+10158600D02*
X-3642100Y+10158600D01*
X-2118100Y+10158600D02*
X-2092700Y+10412600D01*
X-2118100Y+10666600D01*
X-3642100Y+10158600D02*
X-3667500Y+10412600D01*
X-3642100Y+10666600D01*
X-3642100Y+10628500D02*
X-2118100Y+10628500D01*
X-3527800Y+10628500D02*
X-3489700Y+10666600D01*
X-3400800Y+10628500D02*
X-3362700Y+10666600D01*
X-3400800Y+10628500D02*
X-3362700Y+10666600D01*
X-3273800Y+10628500D02*
X-3235700Y+10666600D01*
X-3273800Y+10628500D02*
X-3235700Y+10666600D01*
X-3146800Y+10628500D02*
X-3108700Y+10666600D01*
X-3146800Y+10628500D02*
X-3108700Y+10666600D01*
X-3019800Y+10628500D02*
X-2981700Y+10666600D01*
X-3019800Y+10628500D02*
X-2981700Y+10666600D01*
X-2892800Y+10628500D02*
X-2854700Y+10666600D01*
X-2892800Y+10628500D02*
X-2854700Y+10666600D01*
X-2765800Y+10628500D02*
X-2727700Y+10666600D01*
X-2765800Y+10628500D02*
X-2727700Y+10666600D01*
X-2638800Y+10628500D02*
X-2600700Y+10666600D01*
X-2638800Y+10628500D02*
X-2600700Y+10666600D01*
X-2511800Y+10628500D02*
X-2473700Y+10666600D01*
X-2511800Y+10628500D02*
X-2473700Y+10666600D01*
X-2384800Y+10628500D02*
X-2346700Y+10666600D01*
X-2384800Y+10628500D02*
X-2346700Y+10666600D01*
X-2257800Y+10628500D02*
X-2219700Y+10666600D01*
X-3007100Y+10768200D02*
X-2975350Y+10798680D01*
X-2943600Y+10798680D01*
X-2911850Y+10768200D01*
X-2911850Y+10737720D01*
X-2943600Y+10707240D01*
X-2975350Y+10707240D01*
X-3007100Y+10737720D01*
X-3007100Y+10768200D01*
X-2943600Y+10737720D02*
X-2911850Y+10707240D01*
X-2784850Y+10798680D02*
X-2864225Y+10798680D01*
X-2864225Y+10768200D01*
X-2800725Y+10768200D01*
X-2784850Y+10752960D01*
X-2784850Y+10722480D01*
X-2800725Y+10707240D01*
X-2848350Y+10707240D01*
X-2864225Y+10722480D01*
X-9650600Y+3850900D02*
X-9650600Y+5374900D01*
X-9142600Y+5374900D02*
X-9142600Y+3850900D01*
X-9142600Y+5374900D02*
X-9396600Y+5400300D01*
X-9650600Y+5374900D01*
X-9142600Y+3850900D02*
X-9396600Y+3825500D01*
X-9650600Y+3850900D01*
X-9612500Y+3850900D02*
X-9612500Y+5374900D01*
X-9612500Y+3965200D02*
X-9650600Y+4003300D01*
X-9612500Y+4092200D02*
X-9650600Y+4130300D01*
X-9612500Y+4092200D02*
X-9650600Y+4130300D01*
X-9612500Y+4219200D02*
X-9650600Y+4257300D01*
X-9612500Y+4219200D02*
X-9650600Y+4257300D01*
X-9612500Y+4346200D02*
X-9650600Y+4384300D01*
X-9612500Y+4346200D02*
X-9650600Y+4384300D01*
X-9612500Y+4473200D02*
X-9650600Y+4511300D01*
X-9612500Y+4473200D02*
X-9650600Y+4511300D01*
X-9612500Y+4600200D02*
X-9650600Y+4638300D01*
X-9612500Y+4600200D02*
X-9650600Y+4638300D01*
X-9612500Y+4727200D02*
X-9650600Y+4765300D01*
X-9612500Y+4727200D02*
X-9650600Y+4765300D01*
X-9612500Y+4854200D02*
X-9650600Y+4892300D01*
X-9612500Y+4854200D02*
X-9650600Y+4892300D01*
X-9612500Y+4981200D02*
X-9650600Y+5019300D01*
X-9612500Y+4981200D02*
X-9650600Y+5019300D01*
X-9612500Y+5108200D02*
X-9650600Y+5146300D01*
X-9612500Y+5108200D02*
X-9650600Y+5146300D01*
X-9612500Y+5235200D02*
X-9650600Y+5273300D01*
X-9752200Y+4485900D02*
X-9782680Y+4517650D01*
X-9782680Y+4549400D01*
X-9752200Y+4581150D01*
X-9721720Y+4581150D01*
X-9691240Y+4549400D01*
X-9691240Y+4517650D01*
X-9721720Y+4485900D01*
X-9752200Y+4485900D01*
X-9721720Y+4549400D02*
X-9691240Y+4581150D01*
X-9767440Y+4708150D02*
X-9782680Y+4692275D01*
X-9782680Y+4644650D01*
X-9767440Y+4628775D01*
X-9706480Y+4628775D01*
X-9691240Y+4644650D01*
X-9691240Y+4692275D01*
X-9706480Y+4708150D01*
X-9721720Y+4708150D01*
X-9736960Y+4692275D01*
X-9736960Y+4628775D01*
X-5842000Y+6731000D02*
X-5842000Y+6604000D01*
X-5842000Y+7112000D02*
X-5842000Y+6985000D01*
X-5969000Y+6858000D02*
X-5966564Y+6832124D01*
X-5959515Y+6808152D01*
X-5948238Y+6786562D01*
X-5933122Y+6767830D01*
X-5914554Y+6752431D01*
X-5892919Y+6740842D01*
X-5868606Y+6733540D01*
X-5842000Y+6731000D01*
X-5969000Y+6858000D02*
X-5966564Y+6884606D01*
X-5959515Y+6908919D01*
X-5948238Y+6930554D01*
X-5933122Y+6949122D01*
X-5914554Y+6964238D01*
X-5892919Y+6975515D01*
X-5868606Y+6982564D01*
X-5842000Y+6985000D01*
X-5842000Y+7112000D02*
X-7620000Y+7112000D01*
X-7620000Y+6604000D01*
X-5842000Y+6604000D01*
X-5801360Y+6731000D02*
X-5725160Y+6731000D01*
X-5709920Y+6746875D01*
X-5709920Y+6810375D01*
X-5725160Y+6826250D01*
X-5801360Y+6826250D01*
X-5770880Y+6889750D02*
X-5801360Y+6921500D01*
X-5709920Y+6921500D01*
X-3556000Y+6731000D02*
X-3556000Y+6604000D01*
X-3556000Y+7112000D02*
X-3556000Y+6985000D01*
X-3683000Y+6858000D02*
X-3680564Y+6832124D01*
X-3673515Y+6808152D01*
X-3662238Y+6786562D01*
X-3647122Y+6767830D01*
X-3628554Y+6752431D01*
X-3606919Y+6740842D01*
X-3582606Y+6733540D01*
X-3556000Y+6731000D01*
X-3683000Y+6858000D02*
X-3680564Y+6884606D01*
X-3673515Y+6908919D01*
X-3662238Y+6930554D01*
X-3647122Y+6949122D01*
X-3628554Y+6964238D01*
X-3606919Y+6975515D01*
X-3582606Y+6982564D01*
X-3556000Y+6985000D01*
X-3556000Y+7112000D02*
X-5334000Y+7112000D01*
X-5334000Y+6604000D01*
X-3556000Y+6604000D01*
X-3515360Y+6731000D02*
X-3439160Y+6731000D01*
X-3423920Y+6746875D01*
X-3423920Y+6810375D01*
X-3439160Y+6826250D01*
X-3515360Y+6826250D01*
X-3500120Y+6873875D02*
X-3515360Y+6889750D01*
X-3515360Y+6937375D01*
X-3500120Y+6953250D01*
X-3484880Y+6953250D01*
X-3469640Y+6937375D01*
X-3469640Y+6889750D01*
X-3454400Y+6873875D01*
X-3423920Y+6873875D01*
X-3423920Y+6953250D01*
X-1270000Y+6731000D02*
X-1270000Y+6604000D01*
X-1270000Y+7112000D02*
X-1270000Y+6985000D01*
X-1397000Y+6858000D02*
X-1394564Y+6832124D01*
X-1387515Y+6808152D01*
X-1376238Y+6786562D01*
X-1361122Y+6767830D01*
X-1342554Y+6752431D01*
X-1320919Y+6740842D01*
X-1296606Y+6733540D01*
X-1270000Y+6731000D01*
X-1397000Y+6858000D02*
X-1394564Y+6884606D01*
X-1387515Y+6908919D01*
X-1376238Y+6930554D01*
X-1361122Y+6949122D01*
X-1342554Y+6964238D01*
X-1320919Y+6975515D01*
X-1296606Y+6982564D01*
X-1270000Y+6985000D01*
X-1270000Y+7112000D02*
X-3048000Y+7112000D01*
X-3048000Y+6604000D01*
X-1270000Y+6604000D01*
X-1229360Y+6731000D02*
X-1153160Y+6731000D01*
X-1137920Y+6746875D01*
X-1137920Y+6810375D01*
X-1153160Y+6826250D01*
X-1229360Y+6826250D01*
X-1214120Y+6873875D02*
X-1229360Y+6889750D01*
X-1229360Y+6937375D01*
X-1214120Y+6953250D01*
X-1198880Y+6953250D01*
X-1183640Y+6937375D01*
X-1168400Y+6953250D01*
X-1153160Y+6953250D01*
X-1137920Y+6937375D01*
X-1137920Y+6889750D01*
X-1153160Y+6873875D01*
X-1183640Y+6905625D02*
X-1183640Y+6937375D01*
X-6609080Y+7614920D02*
X-6090920Y+7614920D01*
X-6090920Y+7881620D01*
X-6609080Y+7881620D01*
X-6609080Y+7614920D01*
X-6527800Y+7879080D02*
X-6527800Y+7617460D01*
X-6680200Y+7747000D02*
X-6609080Y+7747000D01*
X-6090920Y+7747000D02*
X-6019800Y+7747000D01*
X-6477000Y+7922260D02*
X-6477000Y+8013700D01*
X-6413500Y+8013700D01*
X-6381750Y+7983220D01*
X-6381750Y+7952740D01*
X-6413500Y+7922260D01*
X-6477000Y+7922260D01*
X-6318250Y+7983220D02*
X-6286500Y+8013700D01*
X-6286500Y+7922260D01*
X-4450080Y+7614920D02*
X-3931920Y+7614920D01*
X-3931920Y+7881620D01*
X-4450080Y+7881620D01*
X-4450080Y+7614920D01*
X-4368800Y+7879080D02*
X-4368800Y+7617460D01*
X-4521200Y+7747000D02*
X-4450080Y+7747000D01*
X-3931920Y+7747000D02*
X-3860800Y+7747000D01*
X-4318000Y+7922260D02*
X-4318000Y+8013700D01*
X-4254500Y+8013700D01*
X-4222750Y+7983220D01*
X-4222750Y+7952740D01*
X-4254500Y+7922260D01*
X-4318000Y+7922260D01*
X-4175125Y+7998460D02*
X-4159250Y+8013700D01*
X-4111625Y+8013700D01*
X-4095750Y+7998460D01*
X-4095750Y+7983220D01*
X-4111625Y+7967980D01*
X-4159250Y+7967980D01*
X-4175125Y+7952740D01*
X-4175125Y+7922260D01*
X-4095750Y+7922260D01*
X-2164080Y+7614920D02*
X-1645920Y+7614920D01*
X-1645920Y+7881620D01*
X-2164080Y+7881620D01*
X-2164080Y+7614920D01*
X-2082800Y+7879080D02*
X-2082800Y+7617460D01*
X-2235200Y+7747000D02*
X-2164080Y+7747000D01*
X-1645920Y+7747000D02*
X-1574800Y+7747000D01*
X-2032000Y+7922260D02*
X-2032000Y+8013700D01*
X-1968500Y+8013700D01*
X-1936750Y+7983220D01*
X-1936750Y+7952740D01*
X-1968500Y+7922260D01*
X-2032000Y+7922260D01*
X-1889125Y+7998460D02*
X-1873250Y+8013700D01*
X-1825625Y+8013700D01*
X-1809750Y+7998460D01*
X-1809750Y+7983220D01*
X-1825625Y+7967980D01*
X-1809750Y+7952740D01*
X-1809750Y+7937500D01*
X-1825625Y+7922260D01*
X-1873250Y+7922260D01*
X-1889125Y+7937500D01*
X-1857375Y+7967980D02*
X-1825625Y+7967980D01*
X-7112000Y+7747000D02*
X-7112827Y+7767483D01*
X-7119545Y+7808450D01*
X-7133563Y+7849417D01*
X-7156341Y+7890384D01*
X-7191141Y+7931229D01*
X-7232108Y+7962845D01*
X-7273075Y+7983392D01*
X-7314042Y+7995629D01*
X-7355009Y+8000762D01*
X-7366000Y+8001000D01*
X-7620000Y+7747000D02*
X-7619173Y+7767483D01*
X-7612455Y+7808450D01*
X-7598437Y+7849417D01*
X-7575659Y+7890384D01*
X-7540859Y+7931229D01*
X-7499892Y+7962845D01*
X-7458925Y+7983392D01*
X-7417958Y+7995629D01*
X-7376991Y+8000762D01*
X-7366000Y+8001000D01*
X-7620000Y+7747000D02*
X-7619173Y+7726517D01*
X-7612455Y+7685550D01*
X-7598437Y+7644583D01*
X-7575659Y+7603616D01*
X-7540859Y+7562771D01*
X-7499892Y+7531155D01*
X-7458925Y+7510608D01*
X-7417958Y+7498371D01*
X-7376991Y+7493238D01*
X-7366000Y+7493000D01*
X-7112000Y+7747000D02*
X-7112827Y+7726517D01*
X-7119545Y+7685550D01*
X-7133563Y+7644583D01*
X-7156341Y+7603616D01*
X-7191141Y+7562771D01*
X-7232108Y+7531155D01*
X-7273075Y+7510608D01*
X-7314042Y+7498371D01*
X-7355009Y+7493238D01*
X-7366000Y+7493000D01*
X-7556500Y+7874000D02*
X-7429500Y+7874000D01*
X-7493000Y+7937500D02*
X-7493000Y+7810500D01*
X-7397750Y+8056880D02*
X-7413625Y+8041640D01*
X-7461250Y+8041640D01*
X-7493000Y+8072120D01*
X-7493000Y+8102600D01*
X-7461250Y+8133080D01*
X-7413625Y+8133080D01*
X-7397750Y+8117840D01*
X-7350125Y+8117840D02*
X-7334250Y+8133080D01*
X-7286625Y+8133080D01*
X-7270750Y+8117840D01*
X-7270750Y+8102600D01*
X-7286625Y+8087360D01*
X-7334250Y+8087360D01*
X-7350125Y+8072120D01*
X-7350125Y+8041640D01*
X-7270750Y+8041640D01*
X-4953000Y+7747000D02*
X-4953827Y+7767483D01*
X-4960545Y+7808450D01*
X-4974563Y+7849417D01*
X-4997341Y+7890384D01*
X-5032141Y+7931229D01*
X-5073108Y+7962845D01*
X-5114075Y+7983392D01*
X-5155042Y+7995629D01*
X-5196009Y+8000762D01*
X-5207000Y+8001000D01*
X-5461000Y+7747000D02*
X-5460173Y+7767483D01*
X-5453455Y+7808450D01*
X-5439437Y+7849417D01*
X-5416659Y+7890384D01*
X-5381859Y+7931229D01*
X-5340892Y+7962845D01*
X-5299925Y+7983392D01*
X-5258958Y+7995629D01*
X-5217991Y+8000762D01*
X-5207000Y+8001000D01*
X-5461000Y+7747000D02*
X-5460173Y+7726517D01*
X-5453455Y+7685550D01*
X-5439437Y+7644583D01*
X-5416659Y+7603616D01*
X-5381859Y+7562771D01*
X-5340892Y+7531155D01*
X-5299925Y+7510608D01*
X-5258958Y+7498371D01*
X-5217991Y+7493238D01*
X-5207000Y+7493000D01*
X-4953000Y+7747000D02*
X-4953827Y+7726517D01*
X-4960545Y+7685550D01*
X-4974563Y+7644583D01*
X-4997341Y+7603616D01*
X-5032141Y+7562771D01*
X-5073108Y+7531155D01*
X-5114075Y+7510608D01*
X-5155042Y+7498371D01*
X-5196009Y+7493238D01*
X-5207000Y+7493000D01*
X-5397500Y+7874000D02*
X-5270500Y+7874000D01*
X-5334000Y+7937500D02*
X-5334000Y+7810500D01*
X-5238750Y+8056880D02*
X-5254625Y+8041640D01*
X-5302250Y+8041640D01*
X-5334000Y+8072120D01*
X-5334000Y+8102600D01*
X-5302250Y+8133080D01*
X-5254625Y+8133080D01*
X-5238750Y+8117840D01*
X-5111750Y+8072120D02*
X-5207000Y+8072120D01*
X-5143500Y+8133080D01*
X-5143500Y+8041640D01*
X-2667000Y+7747000D02*
X-2667827Y+7767483D01*
X-2674545Y+7808450D01*
X-2688563Y+7849417D01*
X-2711341Y+7890384D01*
X-2746141Y+7931229D01*
X-2787108Y+7962845D01*
X-2828075Y+7983392D01*
X-2869042Y+7995629D01*
X-2910009Y+8000762D01*
X-2921000Y+8001000D01*
X-3175000Y+7747000D02*
X-3174173Y+7767483D01*
X-3167455Y+7808450D01*
X-3153437Y+7849417D01*
X-3130659Y+7890384D01*
X-3095859Y+7931229D01*
X-3054892Y+7962845D01*
X-3013925Y+7983392D01*
X-2972958Y+7995629D01*
X-2931991Y+8000762D01*
X-2921000Y+8001000D01*
X-3175000Y+7747000D02*
X-3174173Y+7726517D01*
X-3167455Y+7685550D01*
X-3153437Y+7644583D01*
X-3130659Y+7603616D01*
X-3095859Y+7562771D01*
X-3054892Y+7531155D01*
X-3013925Y+7510608D01*
X-2972958Y+7498371D01*
X-2931991Y+7493238D01*
X-2921000Y+7493000D01*
X-2667000Y+7747000D02*
X-2667827Y+7726517D01*
X-2674545Y+7685550D01*
X-2688563Y+7644583D01*
X-2711341Y+7603616D01*
X-2746141Y+7562771D01*
X-2787108Y+7531155D01*
X-2828075Y+7510608D01*
X-2869042Y+7498371D01*
X-2910009Y+7493238D01*
X-2921000Y+7493000D01*
X-3111500Y+7874000D02*
X-2984500Y+7874000D01*
X-3048000Y+7937500D02*
X-3048000Y+7810500D01*
X-2952750Y+8056880D02*
X-2968625Y+8041640D01*
X-3016250Y+8041640D01*
X-3048000Y+8072120D01*
X-3048000Y+8102600D01*
X-3016250Y+8133080D01*
X-2968625Y+8133080D01*
X-2952750Y+8117840D01*
X-2825750Y+8117840D02*
X-2841625Y+8133080D01*
X-2889250Y+8133080D01*
X-2905125Y+8117840D01*
X-2905125Y+8056880D01*
X-2889250Y+8041640D01*
X-2841625Y+8041640D01*
X-2825750Y+8056880D01*
X-2825750Y+8072120D01*
X-2841625Y+8087360D01*
X-2905125Y+8087360D01*
X+8763000Y+4572000D02*
X+9779000Y+4572000D01*
X+8763000Y+6604000D02*
X+9779000Y+6604000D01*
X+9779000Y+4572000D01*
X+8763000Y+4572000D02*
X+8763000Y+6604000D01*
X+8691880Y+5461000D02*
X+8707120Y+5461000D01*
X+8722360Y+5476875D01*
X+8722360Y+5540375D01*
X+8707120Y+5556250D01*
X+8630920Y+5556250D01*
X+8691880Y+5683250D02*
X+8691880Y+5588000D01*
X+8630920Y+5651500D01*
X+8722360Y+5651500D01*
X+7874000Y+10795000D02*
X+7874000Y+11811000D01*
X+6350000Y+10795000D02*
X+6350000Y+11811000D01*
X+7874000Y+11811000D02*
X+6350000Y+11811000D01*
X+6350000Y+10795000D02*
X+7874000Y+10795000D01*
X+6985000Y+10693400D02*
X+6985000Y+10678160D01*
X+7000875Y+10662920D01*
X+7064375Y+10662920D01*
X+7080250Y+10678160D01*
X+7080250Y+10754360D01*
X+7207250Y+10754360D02*
X+7127875Y+10754360D01*
X+7127875Y+10723880D01*
X+7191375Y+10723880D01*
X+7207250Y+10708640D01*
X+7207250Y+10678160D01*
X+7191375Y+10662920D01*
X+7143750Y+10662920D01*
X+7127875Y+10678160D01*
X+5842000Y+10795000D02*
X+5842000Y+11811000D01*
X+4826000Y+10795000D02*
X+4826000Y+11811000D01*
X+5842000Y+11811000D02*
X+4826000Y+11811000D01*
X+5842000Y+10795000D02*
X+4826000Y+10795000D01*
X+5207000Y+10693400D02*
X+5207000Y+10678160D01*
X+5222875Y+10662920D01*
X+5286375Y+10662920D01*
X+5302250Y+10678160D01*
X+5302250Y+10754360D01*
X+5349875Y+10739120D02*
X+5365750Y+10754360D01*
X+5413375Y+10754360D01*
X+5429250Y+10739120D01*
X+5429250Y+10723880D01*
X+5413375Y+10708640D01*
X+5365750Y+10708640D01*
X+5349875Y+10693400D01*
X+5349875Y+10662920D01*
X+5429250Y+10662920D01*
X-1266000Y+10064000D02*
X-1266000Y+10614000D01*
X-1266000Y+10064000D02*
X+1534000Y+10064000D01*
X-1266000Y+10614000D02*
X+1684000Y+10614000D01*
X+1684000Y+10214000D01*
X+1534000Y+10064000D01*
X+18500Y+9931920D02*
X+18500Y+10023360D01*
X+97875Y+10023360D01*
X+113750Y+10008120D01*
X+113750Y+9992880D01*
X+97875Y+9977640D01*
X+113750Y+9962400D01*
X+113750Y+9947160D01*
X+97875Y+9931920D01*
X+18500Y+9931920D01*
X+18500Y+9977640D02*
X+97875Y+9977640D01*
X+145500Y+9931920D02*
X+145500Y+10023360D01*
X+224875Y+10023360D01*
X+240750Y+10008120D01*
X+240750Y+9992880D01*
X+224875Y+9977640D01*
X+145500Y+9977640D01*
X+224875Y+9977640D02*
X+240750Y+9962400D01*
X+240750Y+9931920D01*
X+304250Y+9992880D02*
X+336000Y+10023360D01*
X+336000Y+9931920D01*
X+3556000Y+10287000D02*
X+4318000Y+10287000D01*
X+4318000Y+10541000D01*
X+3556000Y+10541000D01*
X+3556000Y+10287000D01*
X+3556000Y+10541000D02*
X+3556000Y+10668000D01*
X+4318000Y+10668000D01*
X+4318000Y+10541000D01*
X+3556000Y+10541000D02*
X+3683000Y+10668000D01*
X+3683000Y+10541000D02*
X+3810000Y+10668000D01*
X+3810000Y+10541000D02*
X+3937000Y+10668000D01*
X+3937000Y+10541000D02*
X+4064000Y+10668000D01*
X+4064000Y+10541000D02*
X+4191000Y+10668000D01*
X+4191000Y+10541000D02*
X+4318000Y+10668000D01*
X+3810000Y+10800080D02*
X+3810000Y+10723880D01*
X+3825875Y+10708640D01*
X+3889375Y+10708640D01*
X+3905250Y+10723880D01*
X+3905250Y+10800080D01*
X+4032250Y+10739120D02*
X+3937000Y+10739120D01*
X+4000500Y+10800080D01*
X+4000500Y+10708640D01*
X+2286000Y+10287000D02*
X+3048000Y+10287000D01*
X+3048000Y+10541000D01*
X+2286000Y+10541000D01*
X+2286000Y+10287000D01*
X+2286000Y+10541000D02*
X+2286000Y+10668000D01*
X+3048000Y+10668000D01*
X+3048000Y+10541000D01*
X+2286000Y+10541000D02*
X+2413000Y+10668000D01*
X+2413000Y+10541000D02*
X+2540000Y+10668000D01*
X+2540000Y+10541000D02*
X+2667000Y+10668000D01*
X+2667000Y+10541000D02*
X+2794000Y+10668000D01*
X+2794000Y+10541000D02*
X+2921000Y+10668000D01*
X+2921000Y+10541000D02*
X+3048000Y+10668000D01*
X+2540000Y+10800080D02*
X+2540000Y+10723880D01*
X+2555875Y+10708640D01*
X+2619375Y+10708640D01*
X+2635250Y+10723880D01*
X+2635250Y+10800080D01*
X+2762250Y+10800080D02*
X+2682875Y+10800080D01*
X+2682875Y+10769600D01*
X+2746375Y+10769600D01*
X+2762250Y+10754360D01*
X+2762250Y+10723880D01*
X+2746375Y+10708640D01*
X+2698750Y+10708640D01*
X+2682875Y+10723880D01*
X+3048000Y+9779000D02*
X+3047173Y+9799483D01*
X+3040455Y+9840450D01*
X+3026437Y+9881417D01*
X+3003659Y+9922384D01*
X+2968859Y+9963229D01*
X+2927892Y+9994845D01*
X+2886925Y+10015392D01*
X+2845958Y+10027629D01*
X+2804991Y+10032762D01*
X+2794000Y+10033000D01*
X+2540000Y+9779000D02*
X+2540827Y+9799483D01*
X+2547545Y+9840450D01*
X+2561563Y+9881417D01*
X+2584341Y+9922384D01*
X+2619141Y+9963229D01*
X+2660108Y+9994845D01*
X+2701075Y+10015392D01*
X+2742042Y+10027629D01*
X+2783009Y+10032762D01*
X+2794000Y+10033000D01*
X+2540000Y+9779000D02*
X+2540827Y+9758517D01*
X+2547545Y+9717550D01*
X+2561563Y+9676583D01*
X+2584341Y+9635616D01*
X+2619141Y+9594771D01*
X+2660108Y+9563155D01*
X+2701075Y+9542608D01*
X+2742042Y+9530371D01*
X+2783009Y+9525238D01*
X+2794000Y+9525000D01*
X+3048000Y+9779000D02*
X+3047173Y+9758517D01*
X+3040455Y+9717550D01*
X+3026437Y+9676583D01*
X+3003659Y+9635616D01*
X+2968859Y+9594771D01*
X+2927892Y+9563155D01*
X+2886925Y+9542608D01*
X+2845958Y+9530371D01*
X+2804991Y+9525238D01*
X+2794000Y+9525000D01*
X+2984500Y+9652000D02*
X+2857500Y+9652000D01*
X+2921000Y+9588500D02*
X+2921000Y+9715500D01*
X+2762250Y+9408160D02*
X+2746375Y+9392920D01*
X+2698750Y+9392920D01*
X+2667000Y+9423400D01*
X+2667000Y+9453880D01*
X+2698750Y+9484360D01*
X+2746375Y+9484360D01*
X+2762250Y+9469120D01*
X+2889250Y+9453880D02*
X+2873375Y+9438640D01*
X+2825750Y+9438640D01*
X+2809875Y+9453880D01*
X+2809875Y+9469120D01*
X+2825750Y+9484360D01*
X+2873375Y+9484360D01*
X+2889250Y+9469120D01*
X+2889250Y+9408160D01*
X+2873375Y+9392920D01*
X+2825750Y+9392920D01*
D32*
X+4437000Y+9398000D02*
X+4435469Y+9437100D01*
X+4423046Y+9515301D01*
X+4397194Y+9593502D01*
X+4355434Y+9671703D01*
X+4292195Y+9749904D01*
X+4214002Y+9814257D01*
X+4135801Y+9856779D01*
X+4057600Y+9883238D01*
X+3979399Y+9896199D01*
X+3937000Y+9898000D01*
X+3437000Y+9398000D02*
X+3438531Y+9437100D01*
X+3450954Y+9515301D01*
X+3476806Y+9593502D01*
X+3518566Y+9671703D01*
X+3581805Y+9749904D01*
X+3659998Y+9814257D01*
X+3738199Y+9856779D01*
X+3816400Y+9883238D01*
X+3894601Y+9896199D01*
X+3937000Y+9898000D01*
X+3437000Y+9398000D02*
X+3438531Y+9358900D01*
X+3450954Y+9280699D01*
X+3476806Y+9202498D01*
X+3518566Y+9124297D01*
X+3581805Y+9046096D01*
X+3659998Y+8981743D01*
X+3738199Y+8939221D01*
X+3816400Y+8912762D01*
X+3894601Y+8899801D01*
X+3937000Y+8898000D01*
X+4437000Y+9398000D02*
X+4435469Y+9358900D01*
X+4423046Y+9280699D01*
X+4397194Y+9202498D01*
X+4355434Y+9124297D01*
X+4292195Y+9046096D01*
X+4214002Y+8981743D01*
X+4135801Y+8939221D01*
X+4057600Y+8912762D01*
X+3979399Y+8899801D01*
X+3937000Y+8898000D01*
D33*
X+3571000Y+9774000D02*
X+3570965Y+9774831D01*
X+3570684Y+9776495D01*
X+3570094Y+9778159D01*
X+3569130Y+9779823D01*
X+3567655Y+9781464D01*
X+3565991Y+9782665D01*
X+3564327Y+9783430D01*
X+3562663Y+9783861D01*
X+3561000Y+9784000D01*
X+3551000Y+9774000D02*
X+3551035Y+9774831D01*
X+3551316Y+9776495D01*
X+3551906Y+9778159D01*
X+3552870Y+9779823D01*
X+3554345Y+9781464D01*
X+3556009Y+9782665D01*
X+3557673Y+9783430D01*
X+3559337Y+9783861D01*
X+3561000Y+9784000D01*
X+3551000Y+9774000D02*
X+3551035Y+9773169D01*
X+3551316Y+9771505D01*
X+3551906Y+9769841D01*
X+3552870Y+9768177D01*
X+3554345Y+9766536D01*
X+3556009Y+9765335D01*
X+3557673Y+9764570D01*
X+3559337Y+9764139D01*
X+3561000Y+9764000D01*
X+3571000Y+9774000D02*
X+3570965Y+9773169D01*
X+3570684Y+9771505D01*
X+3570094Y+9769841D01*
X+3569130Y+9768177D01*
X+3567655Y+9766536D01*
X+3565991Y+9765335D01*
X+3564327Y+9764570D01*
X+3562663Y+9764139D01*
X+3561000Y+9764000D01*
D31*
X+3841750Y+9949720D02*
X+3825875Y+9934480D01*
X+3778250Y+9934480D01*
X+3746500Y+9964960D01*
X+3746500Y+9995440D01*
X+3778250Y+10025920D01*
X+3825875Y+10025920D01*
X+3841750Y+10010680D01*
X+3905250Y+9995440D02*
X+3937000Y+10025920D01*
X+3937000Y+9934480D01*
X+4032250Y+9980200D02*
X+4016375Y+9995440D01*
X+4016375Y+10010680D01*
X+4032250Y+10025920D01*
X+4079875Y+10025920D01*
X+4095750Y+10010680D01*
X+4095750Y+9995440D01*
X+4079875Y+9980200D01*
X+4032250Y+9980200D01*
X+4016375Y+9964960D01*
X+4016375Y+9949720D01*
X+4032250Y+9934480D01*
X+4079875Y+9934480D01*
X+4095750Y+9949720D01*
X+4095750Y+9964960D01*
X+4079875Y+9980200D01*
X+5074920Y+9773920D02*
X+5593080Y+9773920D01*
X+5593080Y+10040620D01*
X+5074920Y+10040620D01*
X+5074920Y+9773920D01*
X+5156200Y+10038080D02*
X+5156200Y+9776460D01*
X+5003800Y+9906000D02*
X+5074920Y+9906000D01*
X+5593080Y+9906000D02*
X+5664200Y+9906000D01*
X+5143500Y+10081260D02*
X+5143500Y+10172700D01*
X+5207000Y+10172700D01*
X+5238750Y+10142220D01*
X+5238750Y+10111740D01*
X+5207000Y+10081260D01*
X+5143500Y+10081260D01*
X+5302250Y+10142220D02*
X+5334000Y+10172700D01*
X+5334000Y+10081260D01*
X+5397500Y+10096500D02*
X+5397500Y+10157460D01*
X+5413375Y+10172700D01*
X+5476875Y+10172700D01*
X+5492750Y+10157460D01*
X+5492750Y+10096500D01*
X+5476875Y+10081260D01*
X+5413375Y+10081260D01*
X+5397500Y+10096500D01*
X+5397500Y+10081260D02*
X+5492750Y+10172700D01*
X+3677920Y+8503920D02*
X+4196080Y+8503920D01*
X+4196080Y+8770620D01*
X+3677920Y+8770620D01*
X+3677920Y+8503920D01*
X+3759200Y+8768080D02*
X+3759200Y+8506460D01*
X+3606800Y+8636000D02*
X+3677920Y+8636000D01*
X+4196080Y+8636000D02*
X+4267200Y+8636000D01*
X+3746500Y+8303260D02*
X+3746500Y+8394700D01*
X+3810000Y+8394700D01*
X+3841750Y+8364220D01*
X+3841750Y+8333740D01*
X+3810000Y+8303260D01*
X+3746500Y+8303260D01*
X+3905250Y+8364220D02*
X+3937000Y+8394700D01*
X+3937000Y+8303260D01*
X+4032250Y+8364220D02*
X+4064000Y+8394700D01*
X+4064000Y+8303260D01*
X+5074920Y+9390380D02*
X+5593080Y+9390380D01*
X+5593080Y+9657080D01*
X+5074920Y+9657080D01*
X+5074920Y+9390380D01*
X+5511800Y+9392920D02*
X+5511800Y+9654540D01*
X+5664200Y+9525000D02*
X+5593080Y+9525000D01*
X+5074920Y+9525000D02*
X+5003800Y+9525000D01*
X+5143500Y+9258300D02*
X+5143500Y+9349740D01*
X+5207000Y+9349740D01*
X+5238750Y+9319260D01*
X+5238750Y+9288780D01*
X+5207000Y+9258300D01*
X+5143500Y+9258300D01*
X+5302250Y+9319260D02*
X+5334000Y+9349740D01*
X+5334000Y+9258300D01*
X+5413375Y+9334500D02*
X+5429250Y+9349740D01*
X+5476875Y+9349740D01*
X+5492750Y+9334500D01*
X+5492750Y+9319260D01*
X+5476875Y+9304020D01*
X+5429250Y+9304020D01*
X+5413375Y+9288780D01*
X+5413375Y+9258300D01*
X+5492750Y+9258300D01*
X+5074920Y+8630920D02*
X+5593080Y+8630920D01*
X+5593080Y+8897620D01*
X+5074920Y+8897620D01*
X+5074920Y+8630920D01*
X+5156200Y+8895080D02*
X+5156200Y+8633460D01*
X+5003800Y+8763000D02*
X+5074920Y+8763000D01*
X+5593080Y+8763000D02*
X+5664200Y+8763000D01*
X+5143500Y+8430260D02*
X+5143500Y+8521700D01*
X+5207000Y+8521700D01*
X+5238750Y+8491220D01*
X+5238750Y+8460740D01*
X+5207000Y+8430260D01*
X+5143500Y+8430260D01*
X+5302250Y+8491220D02*
X+5334000Y+8521700D01*
X+5334000Y+8430260D01*
X+5413375Y+8506460D02*
X+5429250Y+8521700D01*
X+5476875Y+8521700D01*
X+5492750Y+8506460D01*
X+5492750Y+8491220D01*
X+5476875Y+8475980D01*
X+5492750Y+8460740D01*
X+5492750Y+8445500D01*
X+5476875Y+8430260D01*
X+5429250Y+8430260D01*
X+5413375Y+8445500D01*
X+5445125Y+8475980D02*
X+5476875Y+8475980D01*
X-9144000Y+2921000D02*
X-6858000Y+2921000D01*
X-6858000Y+3556000D01*
X-9144000Y+3556000D01*
X-9144000Y+2921000D01*
X-9144000Y+3429000D02*
X-6858000Y+3429000D01*
X-8128000Y+3627120D02*
X-8128000Y+3611880D01*
X-8112125Y+3596640D01*
X-8048625Y+3596640D01*
X-8032750Y+3611880D01*
X-8032750Y+3688080D01*
X-7969250Y+3657600D02*
X-7937500Y+3688080D01*
X-7937500Y+3596640D01*
D32*
X+673000Y+6985000D02*
X+670722Y+7045332D01*
X+652256Y+7165997D01*
X+613945Y+7286662D01*
X+552441Y+7407327D01*
X+460503Y+7527992D01*
X+340714Y+7634033D01*
X+220049Y+7705803D01*
X+99384Y+7752301D01*
X-21281Y+7777984D01*
X-127000Y+7785000D01*
X-927000Y+6985000D02*
X-924722Y+7045332D01*
X-906256Y+7165997D01*
X-867945Y+7286662D01*
X-806441Y+7407327D01*
X-714503Y+7527992D01*
X-594714Y+7634033D01*
X-474049Y+7705803D01*
X-353384Y+7752301D01*
X-232719Y+7777984D01*
X-127000Y+7785000D01*
X-927000Y+6985000D02*
X-924722Y+6924668D01*
X-906256Y+6804003D01*
X-867945Y+6683338D01*
X-806441Y+6562673D01*
X-714503Y+6442008D01*
X-594714Y+6335967D01*
X-474049Y+6264197D01*
X-353384Y+6217699D01*
X-232719Y+6192016D01*
X-127000Y+6185000D01*
X+673000Y+6985000D02*
X+670722Y+6924668D01*
X+652256Y+6804003D01*
X+613945Y+6683338D01*
X+552441Y+6562673D01*
X+460503Y+6442008D01*
X+340714Y+6335967D01*
X+220049Y+6264197D01*
X+99384Y+6217699D01*
X-21281Y+6192016D01*
X-127000Y+6185000D01*
D33*
X-705000Y+7573000D02*
X-705035Y+7573831D01*
X-705316Y+7575495D01*
X-705906Y+7577159D01*
X-706870Y+7578823D01*
X-708345Y+7580464D01*
X-710009Y+7581665D01*
X-711673Y+7582430D01*
X-713337Y+7582861D01*
X-715000Y+7583000D01*
X-725000Y+7573000D02*
X-724965Y+7573831D01*
X-724684Y+7575495D01*
X-724094Y+7577159D01*
X-723130Y+7578823D01*
X-721655Y+7580464D01*
X-719991Y+7581665D01*
X-718327Y+7582430D01*
X-716663Y+7582861D01*
X-715000Y+7583000D01*
X-725000Y+7573000D02*
X-724965Y+7572169D01*
X-724684Y+7570505D01*
X-724094Y+7568841D01*
X-723130Y+7567177D01*
X-721655Y+7565536D01*
X-719991Y+7564335D01*
X-718327Y+7563570D01*
X-716663Y+7563139D01*
X-715000Y+7563000D01*
X-705000Y+7573000D02*
X-705035Y+7572169D01*
X-705316Y+7570505D01*
X-705906Y+7568841D01*
X-706870Y+7567177D01*
X-708345Y+7565536D01*
X-710009Y+7564335D01*
X-711673Y+7563570D01*
X-713337Y+7563139D01*
X-715000Y+7563000D01*
D31*
X-222250Y+7836720D02*
X-238125Y+7821480D01*
X-285750Y+7821480D01*
X-317500Y+7851960D01*
X-317500Y+7882440D01*
X-285750Y+7912920D01*
X-238125Y+7912920D01*
X-222250Y+7897680D01*
X-158750Y+7882440D02*
X-127000Y+7912920D01*
X-127000Y+7821480D01*
X-31750Y+7882440D02*
X+0Y+7912920D01*
X+0Y+7821480D01*
D32*
X+673000Y+4953000D02*
X+670722Y+5013332D01*
X+652256Y+5133997D01*
X+613945Y+5254662D01*
X+552441Y+5375327D01*
X+460503Y+5495992D01*
X+340714Y+5602033D01*
X+220049Y+5673803D01*
X+99384Y+5720301D01*
X-21281Y+5745984D01*
X-127000Y+5753000D01*
X-927000Y+4953000D02*
X-924722Y+5013332D01*
X-906256Y+5133997D01*
X-867945Y+5254662D01*
X-806441Y+5375327D01*
X-714503Y+5495992D01*
X-594714Y+5602033D01*
X-474049Y+5673803D01*
X-353384Y+5720301D01*
X-232719Y+5745984D01*
X-127000Y+5753000D01*
X-927000Y+4953000D02*
X-924722Y+4892668D01*
X-906256Y+4772003D01*
X-867945Y+4651338D01*
X-806441Y+4530673D01*
X-714503Y+4410008D01*
X-594714Y+4303967D01*
X-474049Y+4232197D01*
X-353384Y+4185699D01*
X-232719Y+4160016D01*
X-127000Y+4153000D01*
X+673000Y+4953000D02*
X+670722Y+4892668D01*
X+652256Y+4772003D01*
X+613945Y+4651338D01*
X+552441Y+4530673D01*
X+460503Y+4410008D01*
X+340714Y+4303967D01*
X+220049Y+4232197D01*
X+99384Y+4185699D01*
X-21281Y+4160016D01*
X-127000Y+4153000D01*
D33*
X-705000Y+5541000D02*
X-705035Y+5541831D01*
X-705316Y+5543495D01*
X-705906Y+5545159D01*
X-706870Y+5546823D01*
X-708345Y+5548464D01*
X-710009Y+5549665D01*
X-711673Y+5550430D01*
X-713337Y+5550861D01*
X-715000Y+5551000D01*
X-725000Y+5541000D02*
X-724965Y+5541831D01*
X-724684Y+5543495D01*
X-724094Y+5545159D01*
X-723130Y+5546823D01*
X-721655Y+5548464D01*
X-719991Y+5549665D01*
X-718327Y+5550430D01*
X-716663Y+5550861D01*
X-715000Y+5551000D01*
X-725000Y+5541000D02*
X-724965Y+5540169D01*
X-724684Y+5538505D01*
X-724094Y+5536841D01*
X-723130Y+5535177D01*
X-721655Y+5533536D01*
X-719991Y+5532335D01*
X-718327Y+5531570D01*
X-716663Y+5531139D01*
X-715000Y+5531000D01*
X-705000Y+5541000D02*
X-705035Y+5540169D01*
X-705316Y+5538505D01*
X-705906Y+5536841D01*
X-706870Y+5535177D01*
X-708345Y+5533536D01*
X-710009Y+5532335D01*
X-711673Y+5531570D01*
X-713337Y+5531139D01*
X-715000Y+5531000D01*
D31*
X-222250Y+5804720D02*
X-238125Y+5789480D01*
X-285750Y+5789480D01*
X-317500Y+5819960D01*
X-317500Y+5850440D01*
X-285750Y+5880920D01*
X-238125Y+5880920D01*
X-222250Y+5865680D01*
X-158750Y+5850440D02*
X-127000Y+5880920D01*
X-127000Y+5789480D01*
X-47625Y+5865680D02*
X-31750Y+5880920D01*
X+15875Y+5880920D01*
X+31750Y+5865680D01*
X+31750Y+5850440D01*
X+15875Y+5835200D01*
X-31750Y+5835200D01*
X-47625Y+5819960D01*
X-47625Y+5789480D01*
X+31750Y+5789480D01*
D32*
X+673000Y+8890000D02*
X+670722Y+8950332D01*
X+652256Y+9070997D01*
X+613945Y+9191662D01*
X+552441Y+9312327D01*
X+460503Y+9432992D01*
X+340714Y+9539033D01*
X+220049Y+9610803D01*
X+99384Y+9657301D01*
X-21281Y+9682984D01*
X-127000Y+9690000D01*
X-927000Y+8890000D02*
X-924722Y+8950332D01*
X-906256Y+9070997D01*
X-867945Y+9191662D01*
X-806441Y+9312327D01*
X-714503Y+9432992D01*
X-594714Y+9539033D01*
X-474049Y+9610803D01*
X-353384Y+9657301D01*
X-232719Y+9682984D01*
X-127000Y+9690000D01*
X-927000Y+8890000D02*
X-924722Y+8829668D01*
X-906256Y+8709003D01*
X-867945Y+8588338D01*
X-806441Y+8467673D01*
X-714503Y+8347008D01*
X-594714Y+8240967D01*
X-474049Y+8169197D01*
X-353384Y+8122699D01*
X-232719Y+8097016D01*
X-127000Y+8090000D01*
X+673000Y+8890000D02*
X+670722Y+8829668D01*
X+652256Y+8709003D01*
X+613945Y+8588338D01*
X+552441Y+8467673D01*
X+460503Y+8347008D01*
X+340714Y+8240967D01*
X+220049Y+8169197D01*
X+99384Y+8122699D01*
X-21281Y+8097016D01*
X-127000Y+8090000D01*
D33*
X-705000Y+9478000D02*
X-705035Y+9478831D01*
X-705316Y+9480495D01*
X-705906Y+9482159D01*
X-706870Y+9483823D01*
X-708345Y+9485464D01*
X-710009Y+9486665D01*
X-711673Y+9487430D01*
X-713337Y+9487861D01*
X-715000Y+9488000D01*
X-725000Y+9478000D02*
X-724965Y+9478831D01*
X-724684Y+9480495D01*
X-724094Y+9482159D01*
X-723130Y+9483823D01*
X-721655Y+9485464D01*
X-719991Y+9486665D01*
X-718327Y+9487430D01*
X-716663Y+9487861D01*
X-715000Y+9488000D01*
X-725000Y+9478000D02*
X-724965Y+9477169D01*
X-724684Y+9475505D01*
X-724094Y+9473841D01*
X-723130Y+9472177D01*
X-721655Y+9470536D01*
X-719991Y+9469335D01*
X-718327Y+9468570D01*
X-716663Y+9468139D01*
X-715000Y+9468000D01*
X-705000Y+9478000D02*
X-705035Y+9477169D01*
X-705316Y+9475505D01*
X-705906Y+9473841D01*
X-706870Y+9472177D01*
X-708345Y+9470536D01*
X-710009Y+9469335D01*
X-711673Y+9468570D01*
X-713337Y+9468139D01*
X-715000Y+9468000D01*
D31*
X-222250Y+9741720D02*
X-238125Y+9726480D01*
X-285750Y+9726480D01*
X-317500Y+9756960D01*
X-317500Y+9787440D01*
X-285750Y+9817920D01*
X-238125Y+9817920D01*
X-222250Y+9802680D01*
X-158750Y+9787440D02*
X-127000Y+9817920D01*
X-127000Y+9726480D01*
X-63500Y+9741720D02*
X-63500Y+9802680D01*
X-47625Y+9817920D01*
X+15875Y+9817920D01*
X+31750Y+9802680D01*
X+31750Y+9741720D01*
X+15875Y+9726480D01*
X-47625Y+9726480D01*
X-63500Y+9741720D01*
X-63500Y+9726480D02*
X+31750Y+9817920D01*
D32*
X+2024000Y+8890000D02*
X+2022469Y+8929100D01*
X+2010046Y+9007301D01*
X+1984194Y+9085502D01*
X+1942434Y+9163703D01*
X+1879195Y+9241904D01*
X+1801002Y+9306257D01*
X+1722801Y+9348779D01*
X+1644600Y+9375238D01*
X+1566399Y+9388199D01*
X+1524000Y+9390000D01*
X+1024000Y+8890000D02*
X+1025531Y+8929100D01*
X+1037954Y+9007301D01*
X+1063806Y+9085502D01*
X+1105566Y+9163703D01*
X+1168805Y+9241904D01*
X+1246998Y+9306257D01*
X+1325199Y+9348779D01*
X+1403400Y+9375238D01*
X+1481601Y+9388199D01*
X+1524000Y+9390000D01*
X+1024000Y+8890000D02*
X+1025531Y+8850900D01*
X+1037954Y+8772699D01*
X+1063806Y+8694498D01*
X+1105566Y+8616297D01*
X+1168805Y+8538096D01*
X+1246998Y+8473743D01*
X+1325199Y+8431221D01*
X+1403400Y+8404762D01*
X+1481601Y+8391801D01*
X+1524000Y+8390000D01*
X+2024000Y+8890000D02*
X+2022469Y+8850900D01*
X+2010046Y+8772699D01*
X+1984194Y+8694498D01*
X+1942434Y+8616297D01*
X+1879195Y+8538096D01*
X+1801002Y+8473743D01*
X+1722801Y+8431221D01*
X+1644600Y+8404762D01*
X+1566399Y+8391801D01*
X+1524000Y+8390000D01*
D33*
X+1158000Y+9266000D02*
X+1157965Y+9266831D01*
X+1157684Y+9268495D01*
X+1157094Y+9270159D01*
X+1156130Y+9271823D01*
X+1154655Y+9273464D01*
X+1152991Y+9274665D01*
X+1151327Y+9275430D01*
X+1149663Y+9275861D01*
X+1148000Y+9276000D01*
X+1138000Y+9266000D02*
X+1138035Y+9266831D01*
X+1138316Y+9268495D01*
X+1138906Y+9270159D01*
X+1139870Y+9271823D01*
X+1141345Y+9273464D01*
X+1143009Y+9274665D01*
X+1144673Y+9275430D01*
X+1146337Y+9275861D01*
X+1148000Y+9276000D01*
X+1138000Y+9266000D02*
X+1138035Y+9265169D01*
X+1138316Y+9263505D01*
X+1138906Y+9261841D01*
X+1139870Y+9260177D01*
X+1141345Y+9258536D01*
X+1143009Y+9257335D01*
X+1144673Y+9256570D01*
X+1146337Y+9256139D01*
X+1148000Y+9256000D01*
X+1158000Y+9266000D02*
X+1157965Y+9265169D01*
X+1157684Y+9263505D01*
X+1157094Y+9261841D01*
X+1156130Y+9260177D01*
X+1154655Y+9258536D01*
X+1152991Y+9257335D01*
X+1151327Y+9256570D01*
X+1149663Y+9256139D01*
X+1148000Y+9256000D01*
D31*
X+1428750Y+9441720D02*
X+1412875Y+9426480D01*
X+1365250Y+9426480D01*
X+1333500Y+9456960D01*
X+1333500Y+9487440D01*
X+1365250Y+9517920D01*
X+1412875Y+9517920D01*
X+1428750Y+9502680D01*
X+1492250Y+9487440D02*
X+1524000Y+9517920D01*
X+1524000Y+9426480D01*
X+1682750Y+9456960D02*
X+1587500Y+9456960D01*
X+1651000Y+9517920D01*
X+1651000Y+9426480D01*
D32*
X+1897000Y+6985000D02*
X+1895469Y+7024100D01*
X+1883046Y+7102301D01*
X+1857194Y+7180502D01*
X+1815434Y+7258703D01*
X+1752195Y+7336904D01*
X+1674002Y+7401257D01*
X+1595801Y+7443779D01*
X+1517600Y+7470238D01*
X+1439399Y+7483199D01*
X+1397000Y+7485000D01*
X+897000Y+6985000D02*
X+898531Y+7024100D01*
X+910954Y+7102301D01*
X+936806Y+7180502D01*
X+978566Y+7258703D01*
X+1041805Y+7336904D01*
X+1119998Y+7401257D01*
X+1198199Y+7443779D01*
X+1276400Y+7470238D01*
X+1354601Y+7483199D01*
X+1397000Y+7485000D01*
X+897000Y+6985000D02*
X+898531Y+6945900D01*
X+910954Y+6867699D01*
X+936806Y+6789498D01*
X+978566Y+6711297D01*
X+1041805Y+6633096D01*
X+1119998Y+6568743D01*
X+1198199Y+6526221D01*
X+1276400Y+6499762D01*
X+1354601Y+6486801D01*
X+1397000Y+6485000D01*
X+1897000Y+6985000D02*
X+1895469Y+6945900D01*
X+1883046Y+6867699D01*
X+1857194Y+6789498D01*
X+1815434Y+6711297D01*
X+1752195Y+6633096D01*
X+1674002Y+6568743D01*
X+1595801Y+6526221D01*
X+1517600Y+6499762D01*
X+1439399Y+6486801D01*
X+1397000Y+6485000D01*
D33*
X+1031000Y+7361000D02*
X+1030965Y+7361831D01*
X+1030684Y+7363495D01*
X+1030094Y+7365159D01*
X+1029130Y+7366823D01*
X+1027655Y+7368464D01*
X+1025991Y+7369665D01*
X+1024327Y+7370430D01*
X+1022663Y+7370861D01*
X+1021000Y+7371000D01*
X+1011000Y+7361000D02*
X+1011035Y+7361831D01*
X+1011316Y+7363495D01*
X+1011906Y+7365159D01*
X+1012870Y+7366823D01*
X+1014345Y+7368464D01*
X+1016009Y+7369665D01*
X+1017673Y+7370430D01*
X+1019337Y+7370861D01*
X+1021000Y+7371000D01*
X+1011000Y+7361000D02*
X+1011035Y+7360169D01*
X+1011316Y+7358505D01*
X+1011906Y+7356841D01*
X+1012870Y+7355177D01*
X+1014345Y+7353536D01*
X+1016009Y+7352335D01*
X+1017673Y+7351570D01*
X+1019337Y+7351139D01*
X+1021000Y+7351000D01*
X+1031000Y+7361000D02*
X+1030965Y+7360169D01*
X+1030684Y+7358505D01*
X+1030094Y+7356841D01*
X+1029130Y+7355177D01*
X+1027655Y+7353536D01*
X+1025991Y+7352335D01*
X+1024327Y+7351570D01*
X+1022663Y+7351139D01*
X+1021000Y+7351000D01*
D31*
X+1301750Y+7536720D02*
X+1285875Y+7521480D01*
X+1238250Y+7521480D01*
X+1206500Y+7551960D01*
X+1206500Y+7582440D01*
X+1238250Y+7612920D01*
X+1285875Y+7612920D01*
X+1301750Y+7597680D01*
X+1365250Y+7582440D02*
X+1397000Y+7612920D01*
X+1397000Y+7521480D01*
X+1555750Y+7612920D02*
X+1476375Y+7612920D01*
X+1476375Y+7582440D01*
X+1539875Y+7582440D01*
X+1555750Y+7567200D01*
X+1555750Y+7536720D01*
X+1539875Y+7521480D01*
X+1492250Y+7521480D01*
X+1476375Y+7536720D01*
D32*
X+1897000Y+4953000D02*
X+1895469Y+4992100D01*
X+1883046Y+5070301D01*
X+1857194Y+5148502D01*
X+1815434Y+5226703D01*
X+1752195Y+5304904D01*
X+1674002Y+5369257D01*
X+1595801Y+5411779D01*
X+1517600Y+5438238D01*
X+1439399Y+5451199D01*
X+1397000Y+5453000D01*
X+897000Y+4953000D02*
X+898531Y+4992100D01*
X+910954Y+5070301D01*
X+936806Y+5148502D01*
X+978566Y+5226703D01*
X+1041805Y+5304904D01*
X+1119998Y+5369257D01*
X+1198199Y+5411779D01*
X+1276400Y+5438238D01*
X+1354601Y+5451199D01*
X+1397000Y+5453000D01*
X+897000Y+4953000D02*
X+898531Y+4913900D01*
X+910954Y+4835699D01*
X+936806Y+4757498D01*
X+978566Y+4679297D01*
X+1041805Y+4601096D01*
X+1119998Y+4536743D01*
X+1198199Y+4494221D01*
X+1276400Y+4467762D01*
X+1354601Y+4454801D01*
X+1397000Y+4453000D01*
X+1897000Y+4953000D02*
X+1895469Y+4913900D01*
X+1883046Y+4835699D01*
X+1857194Y+4757498D01*
X+1815434Y+4679297D01*
X+1752195Y+4601096D01*
X+1674002Y+4536743D01*
X+1595801Y+4494221D01*
X+1517600Y+4467762D01*
X+1439399Y+4454801D01*
X+1397000Y+4453000D01*
D33*
X+1031000Y+5329000D02*
X+1030965Y+5329831D01*
X+1030684Y+5331495D01*
X+1030094Y+5333159D01*
X+1029130Y+5334823D01*
X+1027655Y+5336464D01*
X+1025991Y+5337665D01*
X+1024327Y+5338430D01*
X+1022663Y+5338861D01*
X+1021000Y+5339000D01*
X+1011000Y+5329000D02*
X+1011035Y+5329831D01*
X+1011316Y+5331495D01*
X+1011906Y+5333159D01*
X+1012870Y+5334823D01*
X+1014345Y+5336464D01*
X+1016009Y+5337665D01*
X+1017673Y+5338430D01*
X+1019337Y+5338861D01*
X+1021000Y+5339000D01*
X+1011000Y+5329000D02*
X+1011035Y+5328169D01*
X+1011316Y+5326505D01*
X+1011906Y+5324841D01*
X+1012870Y+5323177D01*
X+1014345Y+5321536D01*
X+1016009Y+5320335D01*
X+1017673Y+5319570D01*
X+1019337Y+5319139D01*
X+1021000Y+5319000D01*
X+1031000Y+5329000D02*
X+1030965Y+5328169D01*
X+1030684Y+5326505D01*
X+1030094Y+5324841D01*
X+1029130Y+5323177D01*
X+1027655Y+5321536D01*
X+1025991Y+5320335D01*
X+1024327Y+5319570D01*
X+1022663Y+5319139D01*
X+1021000Y+5319000D01*
D31*
X+1301750Y+5504720D02*
X+1285875Y+5489480D01*
X+1238250Y+5489480D01*
X+1206500Y+5519960D01*
X+1206500Y+5550440D01*
X+1238250Y+5580920D01*
X+1285875Y+5580920D01*
X+1301750Y+5565680D01*
X+1365250Y+5550440D02*
X+1397000Y+5580920D01*
X+1397000Y+5489480D01*
X+1555750Y+5565680D02*
X+1539875Y+5580920D01*
X+1492250Y+5580920D01*
X+1476375Y+5565680D01*
X+1476375Y+5504720D01*
X+1492250Y+5489480D01*
X+1539875Y+5489480D01*
X+1555750Y+5504720D01*
X+1555750Y+5519960D01*
X+1539875Y+5535200D01*
X+1476375Y+5535200D01*
X-7112000Y+5715000D02*
X-6985000Y+5715000D01*
X-6985000Y+5461000D02*
X-4445000Y+5461000D01*
X-4445000Y+5969000D01*
X-6985000Y+5969000D01*
X-6985000Y+5461000D01*
X-4445000Y+5715000D02*
X-4318000Y+5715000D01*
X-5842000Y+6009640D02*
X-5842000Y+6101080D01*
X-5762625Y+6101080D01*
X-5746750Y+6085840D01*
X-5746750Y+6070600D01*
X-5762625Y+6055360D01*
X-5842000Y+6055360D01*
X-5762625Y+6055360D02*
X-5746750Y+6040120D01*
X-5746750Y+6009640D01*
X-5699125Y+6101080D02*
X-5619750Y+6101080D01*
X-5619750Y+6085840D01*
X-5699125Y+6009640D01*
X-7112000Y+4826000D02*
X-6985000Y+4826000D01*
X-6985000Y+4572000D02*
X-4445000Y+4572000D01*
X-4445000Y+5080000D01*
X-6985000Y+5080000D01*
X-6985000Y+4572000D01*
X-4445000Y+4826000D02*
X-4318000Y+4826000D01*
X-5842000Y+5120640D02*
X-5842000Y+5212080D01*
X-5762625Y+5212080D01*
X-5746750Y+5196840D01*
X-5746750Y+5181600D01*
X-5762625Y+5166360D01*
X-5842000Y+5166360D01*
X-5762625Y+5166360D02*
X-5746750Y+5151120D01*
X-5746750Y+5120640D01*
X-5683250Y+5166360D02*
X-5699125Y+5181600D01*
X-5699125Y+5196840D01*
X-5683250Y+5212080D01*
X-5635625Y+5212080D01*
X-5619750Y+5196840D01*
X-5619750Y+5181600D01*
X-5635625Y+5166360D01*
X-5683250Y+5166360D01*
X-5699125Y+5151120D01*
X-5699125Y+5135880D01*
X-5683250Y+5120640D01*
X-5635625Y+5120640D01*
X-5619750Y+5135880D01*
X-5619750Y+5151120D01*
X-5635625Y+5166360D01*
X-7112000Y+3937000D02*
X-6985000Y+3937000D01*
X-6985000Y+3683000D02*
X-4445000Y+3683000D01*
X-4445000Y+4191000D01*
X-6985000Y+4191000D01*
X-6985000Y+3683000D01*
X-4445000Y+3937000D02*
X-4318000Y+3937000D01*
X-5842000Y+4231640D02*
X-5842000Y+4323080D01*
X-5762625Y+4323080D01*
X-5746750Y+4307840D01*
X-5746750Y+4292600D01*
X-5762625Y+4277360D01*
X-5842000Y+4277360D01*
X-5762625Y+4277360D02*
X-5746750Y+4262120D01*
X-5746750Y+4231640D01*
X-5619750Y+4292600D02*
X-5635625Y+4277360D01*
X-5683250Y+4277360D01*
X-5699125Y+4292600D01*
X-5699125Y+4307840D01*
X-5683250Y+4323080D01*
X-5635625Y+4323080D01*
X-5619750Y+4307840D01*
X-5619750Y+4246880D01*
X-5635625Y+4231640D01*
X-5683250Y+4231640D01*
X-2286000Y+5842000D02*
X-2159000Y+5842000D01*
X-2159000Y+5778500D02*
X-1651000Y+5778500D01*
X-1651000Y+5905500D01*
X-2159000Y+5905500D01*
X-2159000Y+5778500D01*
X-1651000Y+5842000D02*
X-1524000Y+5842000D01*
X-2095500Y+5946140D02*
X-2095500Y+6037580D01*
X-2016125Y+6037580D01*
X-2000250Y+6022340D01*
X-2000250Y+6007100D01*
X-2016125Y+5991860D01*
X-2095500Y+5991860D01*
X-2016125Y+5991860D02*
X-2000250Y+5976620D01*
X-2000250Y+5946140D01*
X-1936750Y+6007100D02*
X-1905000Y+6037580D01*
X-1905000Y+5946140D01*
X-1841500Y+5961380D02*
X-1841500Y+6022340D01*
X-1825625Y+6037580D01*
X-1762125Y+6037580D01*
X-1746250Y+6022340D01*
X-1746250Y+5961380D01*
X-1762125Y+5946140D01*
X-1825625Y+5946140D01*
X-1841500Y+5961380D01*
X-1841500Y+5946140D02*
X-1746250Y+6037580D01*
X-1524000Y+5334000D02*
X-1651000Y+5334000D01*
X-2159000Y+5270500D02*
X-1651000Y+5270500D01*
X-1651000Y+5397500D01*
X-2159000Y+5397500D01*
X-2159000Y+5270500D01*
X-2159000Y+5334000D02*
X-2286000Y+5334000D01*
X-2095500Y+5138420D02*
X-2095500Y+5229860D01*
X-2016125Y+5229860D01*
X-2000250Y+5214620D01*
X-2000250Y+5199380D01*
X-2016125Y+5184140D01*
X-2095500Y+5184140D01*
X-2016125Y+5184140D02*
X-2000250Y+5168900D01*
X-2000250Y+5138420D01*
X-1936750Y+5199380D02*
X-1905000Y+5229860D01*
X-1905000Y+5138420D01*
X-1809750Y+5199380D02*
X-1778000Y+5229860D01*
X-1778000Y+5138420D01*
X-2286000Y+4699000D02*
X-2159000Y+4699000D01*
X-2159000Y+4635500D02*
X-1651000Y+4635500D01*
X-1651000Y+4762500D01*
X-2159000Y+4762500D01*
X-2159000Y+4635500D01*
X-1651000Y+4699000D02*
X-1524000Y+4699000D01*
X-2095500Y+4803140D02*
X-2095500Y+4894580D01*
X-2016125Y+4894580D01*
X-2000250Y+4879340D01*
X-2000250Y+4864100D01*
X-2016125Y+4848860D01*
X-2095500Y+4848860D01*
X-2016125Y+4848860D02*
X-2000250Y+4833620D01*
X-2000250Y+4803140D01*
X-1936750Y+4864100D02*
X-1905000Y+4894580D01*
X-1905000Y+4803140D01*
X-1825625Y+4879340D02*
X-1809750Y+4894580D01*
X-1762125Y+4894580D01*
X-1746250Y+4879340D01*
X-1746250Y+4864100D01*
X-1762125Y+4848860D01*
X-1809750Y+4848860D01*
X-1825625Y+4833620D01*
X-1825625Y+4803140D01*
X-1746250Y+4803140D01*
X-1524000Y+4191000D02*
X-1651000Y+4191000D01*
X-2159000Y+4127500D02*
X-1651000Y+4127500D01*
X-1651000Y+4254500D01*
X-2159000Y+4254500D01*
X-2159000Y+4127500D01*
X-2159000Y+4191000D02*
X-2286000Y+4191000D01*
X-2095500Y+4249420D02*
X-2095500Y+4340860D01*
X-2016125Y+4340860D01*
X-2000250Y+4325620D01*
X-2000250Y+4310380D01*
X-2016125Y+4295140D01*
X-2095500Y+4295140D01*
X-2016125Y+4295140D02*
X-2000250Y+4279900D01*
X-2000250Y+4249420D01*
X-1936750Y+4310380D02*
X-1905000Y+4340860D01*
X-1905000Y+4249420D01*
X-1825625Y+4325620D02*
X-1809750Y+4340860D01*
X-1762125Y+4340860D01*
X-1746250Y+4325620D01*
X-1746250Y+4310380D01*
X-1762125Y+4295140D01*
X-1746250Y+4279900D01*
X-1746250Y+4264660D01*
X-1762125Y+4249420D01*
X-1809750Y+4249420D01*
X-1825625Y+4264660D01*
X-1793875Y+4295140D02*
X-1762125Y+4295140D01*
X-2286000Y+3810000D02*
X-2159000Y+3810000D01*
X-2159000Y+3746500D02*
X-1651000Y+3746500D01*
X-1651000Y+3873500D01*
X-2159000Y+3873500D01*
X-2159000Y+3746500D01*
X-1651000Y+3810000D02*
X-1524000Y+3810000D01*
X-2095500Y+3914140D02*
X-2095500Y+4005580D01*
X-2016125Y+4005580D01*
X-2000250Y+3990340D01*
X-2000250Y+3975100D01*
X-2016125Y+3959860D01*
X-2095500Y+3959860D01*
X-2016125Y+3959860D02*
X-2000250Y+3944620D01*
X-2000250Y+3914140D01*
X-1936750Y+3975100D02*
X-1905000Y+4005580D01*
X-1905000Y+3914140D01*
X-1746250Y+3944620D02*
X-1841500Y+3944620D01*
X-1778000Y+4005580D01*
X-1778000Y+3914140D01*
X-6731000Y+9017000D02*
X-6858000Y+9017000D01*
X-7366000Y+8953500D02*
X-6858000Y+8953500D01*
X-6858000Y+9080500D01*
X-7366000Y+9080500D01*
X-7366000Y+8953500D01*
X-7366000Y+9017000D02*
X-7493000Y+9017000D01*
X-7302500Y+8821420D02*
X-7302500Y+8912860D01*
X-7223125Y+8912860D01*
X-7207250Y+8897620D01*
X-7207250Y+8882380D01*
X-7223125Y+8867140D01*
X-7302500Y+8867140D01*
X-7223125Y+8867140D02*
X-7207250Y+8851900D01*
X-7207250Y+8821420D01*
X-7143750Y+8882380D02*
X-7112000Y+8912860D01*
X-7112000Y+8821420D01*
X-6953250Y+8912860D02*
X-7032625Y+8912860D01*
X-7032625Y+8882380D01*
X-6969125Y+8882380D01*
X-6953250Y+8867140D01*
X-6953250Y+8836660D01*
X-6969125Y+8821420D01*
X-7016750Y+8821420D01*
X-7032625Y+8836660D01*
X-4445000Y+9017000D02*
X-4572000Y+9017000D01*
X-5080000Y+8953500D02*
X-4572000Y+8953500D01*
X-4572000Y+9080500D01*
X-5080000Y+9080500D01*
X-5080000Y+8953500D01*
X-5080000Y+9017000D02*
X-5207000Y+9017000D01*
X-5016500Y+8821420D02*
X-5016500Y+8912860D01*
X-4937125Y+8912860D01*
X-4921250Y+8897620D01*
X-4921250Y+8882380D01*
X-4937125Y+8867140D01*
X-5016500Y+8867140D01*
X-4937125Y+8867140D02*
X-4921250Y+8851900D01*
X-4921250Y+8821420D01*
X-4857750Y+8882380D02*
X-4826000Y+8912860D01*
X-4826000Y+8821420D01*
X-4667250Y+8897620D02*
X-4683125Y+8912860D01*
X-4730750Y+8912860D01*
X-4746625Y+8897620D01*
X-4746625Y+8836660D01*
X-4730750Y+8821420D01*
X-4683125Y+8821420D01*
X-4667250Y+8836660D01*
X-4667250Y+8851900D01*
X-4683125Y+8867140D01*
X-4746625Y+8867140D01*
X-2413000Y+9017000D02*
X-2540000Y+9017000D01*
X-3048000Y+8953500D02*
X-2540000Y+8953500D01*
X-2540000Y+9080500D01*
X-3048000Y+9080500D01*
X-3048000Y+8953500D01*
X-3048000Y+9017000D02*
X-3175000Y+9017000D01*
X-2984500Y+8821420D02*
X-2984500Y+8912860D01*
X-2905125Y+8912860D01*
X-2889250Y+8897620D01*
X-2889250Y+8882380D01*
X-2905125Y+8867140D01*
X-2984500Y+8867140D01*
X-2905125Y+8867140D02*
X-2889250Y+8851900D01*
X-2889250Y+8821420D01*
X-2825750Y+8882380D02*
X-2794000Y+8912860D01*
X-2794000Y+8821420D01*
X-2714625Y+8912860D02*
X-2635250Y+8912860D01*
X-2635250Y+8897620D01*
X-2714625Y+8821420D01*
X-8001000Y+4953000D02*
X-8001000Y+4826000D01*
X-8064500Y+4318000D02*
X-7937500Y+4318000D01*
X-7937500Y+4826000D01*
X-8064500Y+4826000D01*
X-8064500Y+4318000D01*
X-8001000Y+4318000D02*
X-8001000Y+4191000D01*
X-7805420Y+4381500D02*
X-7896860Y+4381500D01*
X-7896860Y+4460875D01*
X-7881620Y+4476750D01*
X-7866380Y+4476750D01*
X-7851140Y+4460875D01*
X-7851140Y+4381500D01*
X-7851140Y+4460875D02*
X-7835900Y+4476750D01*
X-7805420Y+4476750D01*
X-7866380Y+4540250D02*
X-7896860Y+4572000D01*
X-7805420Y+4572000D01*
X-7851140Y+4667250D02*
X-7866380Y+4651375D01*
X-7881620Y+4651375D01*
X-7896860Y+4667250D01*
X-7896860Y+4714875D01*
X-7881620Y+4730750D01*
X-7866380Y+4730750D01*
X-7851140Y+4714875D01*
X-7851140Y+4667250D01*
X-7835900Y+4651375D01*
X-7820660Y+4651375D01*
X-7805420Y+4667250D01*
X-7805420Y+4714875D01*
X-7820660Y+4730750D01*
X-7835900Y+4730750D01*
X-7851140Y+4714875D01*
X-8128000Y+6985000D02*
X-8128000Y+6858000D01*
X-8191500Y+6350000D02*
X-8064500Y+6350000D01*
X-8064500Y+6858000D01*
X-8191500Y+6858000D01*
X-8191500Y+6350000D01*
X-8128000Y+6350000D02*
X-8128000Y+6223000D01*
X-7932420Y+6413500D02*
X-8023860Y+6413500D01*
X-8023860Y+6492875D01*
X-8008620Y+6508750D01*
X-7993380Y+6508750D01*
X-7978140Y+6492875D01*
X-7978140Y+6413500D01*
X-7978140Y+6492875D02*
X-7962900Y+6508750D01*
X-7932420Y+6508750D01*
X-7993380Y+6572250D02*
X-8023860Y+6604000D01*
X-7932420Y+6604000D01*
X-7993380Y+6762750D02*
X-7978140Y+6746875D01*
X-7978140Y+6699250D01*
X-7993380Y+6683375D01*
X-8008620Y+6683375D01*
X-8023860Y+6699250D01*
X-8023860Y+6746875D01*
X-8008620Y+6762750D01*
X-7947660Y+6762750D01*
X-7932420Y+6746875D01*
X-7932420Y+6699250D01*
X-7874000Y+9017000D02*
X-7874000Y+8890000D01*
X-7937500Y+8382000D02*
X-7810500Y+8382000D01*
X-7810500Y+8890000D01*
X-7937500Y+8890000D01*
X-7937500Y+8382000D01*
X-7874000Y+8382000D02*
X-7874000Y+8255000D01*
X-7678420Y+8445500D02*
X-7769860Y+8445500D01*
X-7769860Y+8524875D01*
X-7754620Y+8540750D01*
X-7739380Y+8540750D01*
X-7724140Y+8524875D01*
X-7724140Y+8445500D01*
X-7724140Y+8524875D02*
X-7708900Y+8540750D01*
X-7678420Y+8540750D01*
X-7754620Y+8588375D02*
X-7769860Y+8604250D01*
X-7769860Y+8651875D01*
X-7754620Y+8667750D01*
X-7739380Y+8667750D01*
X-7724140Y+8651875D01*
X-7724140Y+8604250D01*
X-7708900Y+8588375D01*
X-7678420Y+8588375D01*
X-7678420Y+8667750D01*
X-7693660Y+8699500D02*
X-7754620Y+8699500D01*
X-7769860Y+8715375D01*
X-7769860Y+8778875D01*
X-7754620Y+8794750D01*
X-7693660Y+8794750D01*
X-7678420Y+8778875D01*
X-7678420Y+8715375D01*
X-7693660Y+8699500D01*
X-7678420Y+8699500D02*
X-7769860Y+8794750D01*
X-6477000Y+2921000D02*
X-4191000Y+2921000D01*
X-4191000Y+3556000D01*
X-6477000Y+3556000D01*
X-6477000Y+2921000D01*
X-6477000Y+3429000D02*
X-4191000Y+3429000D01*
X-5461000Y+3627120D02*
X-5461000Y+3611880D01*
X-5445125Y+3596640D01*
X-5381625Y+3596640D01*
X-5365750Y+3611880D01*
X-5365750Y+3688080D01*
X-5318125Y+3688080D02*
X-5238750Y+3688080D01*
X-5238750Y+3672840D01*
X-5318125Y+3596640D01*
X+5461000Y+6096000D02*
X+5461000Y+5969000D01*
X+5461000Y+6477000D02*
X+5461000Y+6350000D01*
X+5334000Y+6223000D02*
X+5336436Y+6197124D01*
X+5343485Y+6173152D01*
X+5354762Y+6151562D01*
X+5369878Y+6132830D01*
X+5388446Y+6117431D01*
X+5410081Y+6105842D01*
X+5434394Y+6098540D01*
X+5461000Y+6096000D01*
X+5334000Y+6223000D02*
X+5336436Y+6249606D01*
X+5343485Y+6273919D01*
X+5354762Y+6295554D01*
X+5369878Y+6314122D01*
X+5388446Y+6329238D01*
X+5410081Y+6340515D01*
X+5434394Y+6347564D01*
X+5461000Y+6350000D01*
X+5461000Y+6477000D02*
X+3683000Y+6477000D01*
X+3683000Y+5969000D01*
X+5461000Y+5969000D01*
X+5501640Y+6096000D02*
X+5577840Y+6096000D01*
X+5593080Y+6111875D01*
X+5593080Y+6175375D01*
X+5577840Y+6191250D01*
X+5501640Y+6191250D01*
X+5516880Y+6318250D02*
X+5501640Y+6302375D01*
X+5501640Y+6254750D01*
X+5516880Y+6238875D01*
X+5577840Y+6238875D01*
X+5593080Y+6254750D01*
X+5593080Y+6302375D01*
X+5577840Y+6318250D01*
X+5562600Y+6318250D01*
X+5547360Y+6302375D01*
X+5547360Y+6238875D01*
X+8255000Y+5715000D02*
X+8255000Y+5588000D01*
X+8255000Y+6096000D02*
X+8255000Y+5969000D01*
X+8128000Y+5842000D02*
X+8130436Y+5816124D01*
X+8137485Y+5792152D01*
X+8148762Y+5770562D01*
X+8163878Y+5751830D01*
X+8182446Y+5736431D01*
X+8204081Y+5724842D01*
X+8228394Y+5717540D01*
X+8255000Y+5715000D01*
X+8128000Y+5842000D02*
X+8130436Y+5868606D01*
X+8137485Y+5892919D01*
X+8148762Y+5914554D01*
X+8163878Y+5933122D01*
X+8182446Y+5948238D01*
X+8204081Y+5959515D01*
X+8228394Y+5966564D01*
X+8255000Y+5969000D01*
X+8255000Y+6096000D02*
X+6477000Y+6096000D01*
X+6477000Y+5588000D01*
X+8255000Y+5588000D01*
X+8295640Y+5715000D02*
X+8371840Y+5715000D01*
X+8387080Y+5730875D01*
X+8387080Y+5794375D01*
X+8371840Y+5810250D01*
X+8295640Y+5810250D01*
X+8295640Y+5857875D02*
X+8295640Y+5937250D01*
X+8310880Y+5937250D01*
X+8387080Y+5857875D01*
D33*
X+5160000Y+7025000D02*
X+5160000Y+6945000D01*
D31*
X+4969500Y+7065480D02*
X+4969500Y+7156920D01*
X+5048875Y+7156920D01*
X+5064750Y+7141680D01*
X+5064750Y+7126440D01*
X+5048875Y+7111200D01*
X+4969500Y+7111200D01*
X+5048875Y+7111200D02*
X+5064750Y+7095960D01*
X+5064750Y+7065480D01*
X+5112375Y+7141680D02*
X+5128250Y+7156920D01*
X+5175875Y+7156920D01*
X+5191750Y+7141680D01*
X+5191750Y+7126440D01*
X+5175875Y+7111200D01*
X+5128250Y+7111200D01*
X+5112375Y+7095960D01*
X+5112375Y+7065480D01*
X+5191750Y+7065480D01*
X+5255250Y+7126440D02*
X+5287000Y+7156920D01*
X+5287000Y+7065480D01*
D33*
X+4906000Y+7279000D02*
X+4906000Y+7199000D01*
D31*
X+4715500Y+7319480D02*
X+4715500Y+7410920D01*
X+4794875Y+7410920D01*
X+4810750Y+7395680D01*
X+4810750Y+7380440D01*
X+4794875Y+7365200D01*
X+4715500Y+7365200D01*
X+4794875Y+7365200D02*
X+4810750Y+7349960D01*
X+4810750Y+7319480D01*
X+4858375Y+7395680D02*
X+4874250Y+7410920D01*
X+4921875Y+7410920D01*
X+4937750Y+7395680D01*
X+4937750Y+7380440D01*
X+4921875Y+7365200D01*
X+4874250Y+7365200D01*
X+4858375Y+7349960D01*
X+4858375Y+7319480D01*
X+4937750Y+7319480D01*
X+4985375Y+7395680D02*
X+5001250Y+7410920D01*
X+5048875Y+7410920D01*
X+5064750Y+7395680D01*
X+5064750Y+7380440D01*
X+5048875Y+7365200D01*
X+5001250Y+7365200D01*
X+4985375Y+7349960D01*
X+4985375Y+7319480D01*
X+5064750Y+7319480D01*
D33*
X+4525000Y+7279000D02*
X+4525000Y+7199000D01*
D31*
X+4334500Y+7319480D02*
X+4334500Y+7410920D01*
X+4413875Y+7410920D01*
X+4429750Y+7395680D01*
X+4429750Y+7380440D01*
X+4413875Y+7365200D01*
X+4334500Y+7365200D01*
X+4413875Y+7365200D02*
X+4429750Y+7349960D01*
X+4429750Y+7319480D01*
X+4477375Y+7395680D02*
X+4493250Y+7410920D01*
X+4540875Y+7410920D01*
X+4556750Y+7395680D01*
X+4556750Y+7380440D01*
X+4540875Y+7365200D01*
X+4493250Y+7365200D01*
X+4477375Y+7349960D01*
X+4477375Y+7319480D01*
X+4556750Y+7319480D01*
X+4604375Y+7395680D02*
X+4620250Y+7410920D01*
X+4667875Y+7410920D01*
X+4683750Y+7395680D01*
X+4683750Y+7380440D01*
X+4667875Y+7365200D01*
X+4683750Y+7349960D01*
X+4683750Y+7334720D01*
X+4667875Y+7319480D01*
X+4620250Y+7319480D01*
X+4604375Y+7334720D01*
X+4636125Y+7365200D02*
X+4667875Y+7365200D01*
D33*
X+4779000Y+7660000D02*
X+4779000Y+7580000D01*
D31*
X+4588500Y+7700480D02*
X+4588500Y+7791920D01*
X+4667875Y+7791920D01*
X+4683750Y+7776680D01*
X+4683750Y+7761440D01*
X+4667875Y+7746200D01*
X+4588500Y+7746200D01*
X+4667875Y+7746200D02*
X+4683750Y+7730960D01*
X+4683750Y+7700480D01*
X+4731375Y+7776680D02*
X+4747250Y+7791920D01*
X+4794875Y+7791920D01*
X+4810750Y+7776680D01*
X+4810750Y+7761440D01*
X+4794875Y+7746200D01*
X+4747250Y+7746200D01*
X+4731375Y+7730960D01*
X+4731375Y+7700480D01*
X+4810750Y+7700480D01*
X+4937750Y+7730960D02*
X+4842500Y+7730960D01*
X+4906000Y+7791920D01*
X+4906000Y+7700480D01*
D33*
X+5414000Y+7279000D02*
X+5414000Y+7199000D01*
D31*
X+5223500Y+7319480D02*
X+5223500Y+7410920D01*
X+5302875Y+7410920D01*
X+5318750Y+7395680D01*
X+5318750Y+7380440D01*
X+5302875Y+7365200D01*
X+5223500Y+7365200D01*
X+5302875Y+7365200D02*
X+5318750Y+7349960D01*
X+5318750Y+7319480D01*
X+5366375Y+7395680D02*
X+5382250Y+7410920D01*
X+5429875Y+7410920D01*
X+5445750Y+7395680D01*
X+5445750Y+7380440D01*
X+5429875Y+7365200D01*
X+5382250Y+7365200D01*
X+5366375Y+7349960D01*
X+5366375Y+7319480D01*
X+5445750Y+7319480D01*
X+5572750Y+7410920D02*
X+5493375Y+7410920D01*
X+5493375Y+7380440D01*
X+5556875Y+7380440D01*
X+5572750Y+7365200D01*
X+5572750Y+7334720D01*
X+5556875Y+7319480D01*
X+5509250Y+7319480D01*
X+5493375Y+7334720D01*
D33*
X+4779000Y+6898000D02*
X+4779000Y+6818000D01*
D31*
X+4588500Y+6938480D02*
X+4588500Y+7029920D01*
X+4667875Y+7029920D01*
X+4683750Y+7014680D01*
X+4683750Y+6999440D01*
X+4667875Y+6984200D01*
X+4588500Y+6984200D01*
X+4667875Y+6984200D02*
X+4683750Y+6968960D01*
X+4683750Y+6938480D01*
X+4731375Y+7014680D02*
X+4747250Y+7029920D01*
X+4794875Y+7029920D01*
X+4810750Y+7014680D01*
X+4810750Y+6999440D01*
X+4794875Y+6984200D01*
X+4747250Y+6984200D01*
X+4731375Y+6968960D01*
X+4731375Y+6938480D01*
X+4810750Y+6938480D01*
X+4937750Y+7014680D02*
X+4921875Y+7029920D01*
X+4874250Y+7029920D01*
X+4858375Y+7014680D01*
X+4858375Y+6953720D01*
X+4874250Y+6938480D01*
X+4921875Y+6938480D01*
X+4937750Y+6953720D01*
X+4937750Y+6968960D01*
X+4921875Y+6984200D01*
X+4858375Y+6984200D01*
D33*
X+3923000Y+6945000D02*
X+3923000Y+7025000D01*
D31*
X+3732500Y+6813080D02*
X+3732500Y+6904520D01*
X+3811875Y+6904520D01*
X+3827750Y+6889280D01*
X+3827750Y+6874040D01*
X+3811875Y+6858800D01*
X+3732500Y+6858800D01*
X+3811875Y+6858800D02*
X+3827750Y+6843560D01*
X+3827750Y+6813080D01*
X+3875375Y+6889280D02*
X+3891250Y+6904520D01*
X+3938875Y+6904520D01*
X+3954750Y+6889280D01*
X+3954750Y+6874040D01*
X+3938875Y+6858800D01*
X+3891250Y+6858800D01*
X+3875375Y+6843560D01*
X+3875375Y+6813080D01*
X+3954750Y+6813080D01*
X+4002375Y+6904520D02*
X+4081750Y+6904520D01*
X+4081750Y+6889280D01*
X+4002375Y+6813080D01*
D33*
X+4271000Y+6898000D02*
X+4271000Y+6818000D01*
D31*
X+4080500Y+6938480D02*
X+4080500Y+7029920D01*
X+4159875Y+7029920D01*
X+4175750Y+7014680D01*
X+4175750Y+6999440D01*
X+4159875Y+6984200D01*
X+4080500Y+6984200D01*
X+4159875Y+6984200D02*
X+4175750Y+6968960D01*
X+4175750Y+6938480D01*
X+4223375Y+7014680D02*
X+4239250Y+7029920D01*
X+4286875Y+7029920D01*
X+4302750Y+7014680D01*
X+4302750Y+6999440D01*
X+4286875Y+6984200D01*
X+4239250Y+6984200D01*
X+4223375Y+6968960D01*
X+4223375Y+6938480D01*
X+4302750Y+6938480D01*
X+4366250Y+6984200D02*
X+4350375Y+6999440D01*
X+4350375Y+7014680D01*
X+4366250Y+7029920D01*
X+4413875Y+7029920D01*
X+4429750Y+7014680D01*
X+4429750Y+6999440D01*
X+4413875Y+6984200D01*
X+4366250Y+6984200D01*
X+4350375Y+6968960D01*
X+4350375Y+6953720D01*
X+4366250Y+6938480D01*
X+4413875Y+6938480D01*
X+4429750Y+6953720D01*
X+4429750Y+6968960D01*
X+4413875Y+6984200D01*
D33*
X+4144000Y+7279000D02*
X+4144000Y+7199000D01*
D31*
X+3953500Y+7319480D02*
X+3953500Y+7410920D01*
X+4032875Y+7410920D01*
X+4048750Y+7395680D01*
X+4048750Y+7380440D01*
X+4032875Y+7365200D01*
X+3953500Y+7365200D01*
X+4032875Y+7365200D02*
X+4048750Y+7349960D01*
X+4048750Y+7319480D01*
X+4096375Y+7395680D02*
X+4112250Y+7410920D01*
X+4159875Y+7410920D01*
X+4175750Y+7395680D01*
X+4175750Y+7380440D01*
X+4159875Y+7365200D01*
X+4112250Y+7365200D01*
X+4096375Y+7349960D01*
X+4096375Y+7319480D01*
X+4175750Y+7319480D01*
X+4302750Y+7380440D02*
X+4286875Y+7365200D01*
X+4239250Y+7365200D01*
X+4223375Y+7380440D01*
X+4223375Y+7395680D01*
X+4239250Y+7410920D01*
X+4286875Y+7410920D01*
X+4302750Y+7395680D01*
X+4302750Y+7334720D01*
X+4286875Y+7319480D01*
X+4239250Y+7319480D01*
D33*
X+3763000Y+7787000D02*
X+3763000Y+7707000D01*
D31*
X+3572500Y+7827480D02*
X+3572500Y+7918920D01*
X+3651875Y+7918920D01*
X+3667750Y+7903680D01*
X+3667750Y+7888440D01*
X+3651875Y+7873200D01*
X+3572500Y+7873200D01*
X+3651875Y+7873200D02*
X+3667750Y+7857960D01*
X+3667750Y+7827480D01*
X+3715375Y+7903680D02*
X+3731250Y+7918920D01*
X+3778875Y+7918920D01*
X+3794750Y+7903680D01*
X+3794750Y+7888440D01*
X+3778875Y+7873200D01*
X+3794750Y+7857960D01*
X+3794750Y+7842720D01*
X+3778875Y+7827480D01*
X+3731250Y+7827480D01*
X+3715375Y+7842720D01*
X+3747125Y+7873200D02*
X+3778875Y+7873200D01*
X+3826500Y+7842720D02*
X+3826500Y+7903680D01*
X+3842375Y+7918920D01*
X+3905875Y+7918920D01*
X+3921750Y+7903680D01*
X+3921750Y+7842720D01*
X+3905875Y+7827480D01*
X+3842375Y+7827480D01*
X+3826500Y+7842720D01*
X+3826500Y+7827480D02*
X+3921750Y+7918920D01*
D33*
X+3509000Y+6898000D02*
X+3509000Y+6818000D01*
D31*
X+3318500Y+6938480D02*
X+3318500Y+7029920D01*
X+3397875Y+7029920D01*
X+3413750Y+7014680D01*
X+3413750Y+6999440D01*
X+3397875Y+6984200D01*
X+3318500Y+6984200D01*
X+3397875Y+6984200D02*
X+3413750Y+6968960D01*
X+3413750Y+6938480D01*
X+3461375Y+7014680D02*
X+3477250Y+7029920D01*
X+3524875Y+7029920D01*
X+3540750Y+7014680D01*
X+3540750Y+6999440D01*
X+3524875Y+6984200D01*
X+3540750Y+6968960D01*
X+3540750Y+6953720D01*
X+3524875Y+6938480D01*
X+3477250Y+6938480D01*
X+3461375Y+6953720D01*
X+3493125Y+6984200D02*
X+3524875Y+6984200D01*
X+3604250Y+6999440D02*
X+3636000Y+7029920D01*
X+3636000Y+6938480D01*
D33*
X+3382000Y+7279000D02*
X+3382000Y+7199000D01*
D31*
X+3191500Y+7319480D02*
X+3191500Y+7410920D01*
X+3270875Y+7410920D01*
X+3286750Y+7395680D01*
X+3286750Y+7380440D01*
X+3270875Y+7365200D01*
X+3191500Y+7365200D01*
X+3270875Y+7365200D02*
X+3286750Y+7349960D01*
X+3286750Y+7319480D01*
X+3334375Y+7395680D02*
X+3350250Y+7410920D01*
X+3397875Y+7410920D01*
X+3413750Y+7395680D01*
X+3413750Y+7380440D01*
X+3397875Y+7365200D01*
X+3413750Y+7349960D01*
X+3413750Y+7334720D01*
X+3397875Y+7319480D01*
X+3350250Y+7319480D01*
X+3334375Y+7334720D01*
X+3366125Y+7365200D02*
X+3397875Y+7365200D01*
X+3461375Y+7395680D02*
X+3477250Y+7410920D01*
X+3524875Y+7410920D01*
X+3540750Y+7395680D01*
X+3540750Y+7380440D01*
X+3524875Y+7365200D01*
X+3477250Y+7365200D01*
X+3461375Y+7349960D01*
X+3461375Y+7319480D01*
X+3540750Y+7319480D01*
D33*
X+3763000Y+7279000D02*
X+3763000Y+7199000D01*
D31*
X+3572500Y+7319480D02*
X+3572500Y+7410920D01*
X+3651875Y+7410920D01*
X+3667750Y+7395680D01*
X+3667750Y+7380440D01*
X+3651875Y+7365200D01*
X+3572500Y+7365200D01*
X+3651875Y+7365200D02*
X+3667750Y+7349960D01*
X+3667750Y+7319480D01*
X+3715375Y+7395680D02*
X+3731250Y+7410920D01*
X+3778875Y+7410920D01*
X+3794750Y+7395680D01*
X+3794750Y+7380440D01*
X+3778875Y+7365200D01*
X+3794750Y+7349960D01*
X+3794750Y+7334720D01*
X+3778875Y+7319480D01*
X+3731250Y+7319480D01*
X+3715375Y+7334720D01*
X+3747125Y+7365200D02*
X+3778875Y+7365200D01*
X+3842375Y+7395680D02*
X+3858250Y+7410920D01*
X+3905875Y+7410920D01*
X+3921750Y+7395680D01*
X+3921750Y+7380440D01*
X+3905875Y+7365200D01*
X+3921750Y+7349960D01*
X+3921750Y+7334720D01*
X+3905875Y+7319480D01*
X+3858250Y+7319480D01*
X+3842375Y+7334720D01*
X+3874125Y+7365200D02*
X+3905875Y+7365200D01*
D33*
X+3890000Y+5421000D02*
X+3890000Y+5501000D01*
D31*
X+3699500Y+5289080D02*
X+3699500Y+5380520D01*
X+3778875Y+5380520D01*
X+3794750Y+5365280D01*
X+3794750Y+5350040D01*
X+3778875Y+5334800D01*
X+3699500Y+5334800D01*
X+3778875Y+5334800D02*
X+3794750Y+5319560D01*
X+3794750Y+5289080D01*
X+3842375Y+5365280D02*
X+3858250Y+5380520D01*
X+3905875Y+5380520D01*
X+3921750Y+5365280D01*
X+3921750Y+5350040D01*
X+3905875Y+5334800D01*
X+3921750Y+5319560D01*
X+3921750Y+5304320D01*
X+3905875Y+5289080D01*
X+3858250Y+5289080D01*
X+3842375Y+5304320D01*
X+3874125Y+5334800D02*
X+3905875Y+5334800D01*
X+4048750Y+5319560D02*
X+3953500Y+5319560D01*
X+4017000Y+5380520D01*
X+4017000Y+5289080D01*
D33*
X+4398000Y+5501000D02*
X+4398000Y+5421000D01*
D31*
X+4207500Y+5287480D02*
X+4207500Y+5378920D01*
X+4286875Y+5378920D01*
X+4302750Y+5363680D01*
X+4302750Y+5348440D01*
X+4286875Y+5333200D01*
X+4207500Y+5333200D01*
X+4286875Y+5333200D02*
X+4302750Y+5317960D01*
X+4302750Y+5287480D01*
X+4350375Y+5363680D02*
X+4366250Y+5378920D01*
X+4413875Y+5378920D01*
X+4429750Y+5363680D01*
X+4429750Y+5348440D01*
X+4413875Y+5333200D01*
X+4429750Y+5317960D01*
X+4429750Y+5302720D01*
X+4413875Y+5287480D01*
X+4366250Y+5287480D01*
X+4350375Y+5302720D01*
X+4382125Y+5333200D02*
X+4413875Y+5333200D01*
X+4556750Y+5378920D02*
X+4477375Y+5378920D01*
X+4477375Y+5348440D01*
X+4540875Y+5348440D01*
X+4556750Y+5333200D01*
X+4556750Y+5302720D01*
X+4540875Y+5287480D01*
X+4493250Y+5287480D01*
X+4477375Y+5302720D01*
D33*
X+4398000Y+5247000D02*
X+4398000Y+5167000D01*
D31*
X+4207500Y+5033480D02*
X+4207500Y+5124920D01*
X+4286875Y+5124920D01*
X+4302750Y+5109680D01*
X+4302750Y+5094440D01*
X+4286875Y+5079200D01*
X+4207500Y+5079200D01*
X+4286875Y+5079200D02*
X+4302750Y+5063960D01*
X+4302750Y+5033480D01*
X+4350375Y+5109680D02*
X+4366250Y+5124920D01*
X+4413875Y+5124920D01*
X+4429750Y+5109680D01*
X+4429750Y+5094440D01*
X+4413875Y+5079200D01*
X+4429750Y+5063960D01*
X+4429750Y+5048720D01*
X+4413875Y+5033480D01*
X+4366250Y+5033480D01*
X+4350375Y+5048720D01*
X+4382125Y+5079200D02*
X+4413875Y+5079200D01*
X+4556750Y+5109680D02*
X+4540875Y+5124920D01*
X+4493250Y+5124920D01*
X+4477375Y+5109680D01*
X+4477375Y+5048720D01*
X+4493250Y+5033480D01*
X+4540875Y+5033480D01*
X+4556750Y+5048720D01*
X+4556750Y+5063960D01*
X+4540875Y+5079200D01*
X+4477375Y+5079200D01*
D33*
X+3890000Y+4993000D02*
X+3890000Y+4913000D01*
D31*
X+3699500Y+4779480D02*
X+3699500Y+4870920D01*
X+3778875Y+4870920D01*
X+3794750Y+4855680D01*
X+3794750Y+4840440D01*
X+3778875Y+4825200D01*
X+3699500Y+4825200D01*
X+3778875Y+4825200D02*
X+3794750Y+4809960D01*
X+3794750Y+4779480D01*
X+3842375Y+4855680D02*
X+3858250Y+4870920D01*
X+3905875Y+4870920D01*
X+3921750Y+4855680D01*
X+3921750Y+4840440D01*
X+3905875Y+4825200D01*
X+3921750Y+4809960D01*
X+3921750Y+4794720D01*
X+3905875Y+4779480D01*
X+3858250Y+4779480D01*
X+3842375Y+4794720D01*
X+3874125Y+4825200D02*
X+3905875Y+4825200D01*
X+3969375Y+4870920D02*
X+4048750Y+4870920D01*
X+4048750Y+4855680D01*
X+3969375Y+4779480D01*
D33*
X+3890000Y+5247000D02*
X+3890000Y+5167000D01*
D31*
X+3699500Y+5033480D02*
X+3699500Y+5124920D01*
X+3778875Y+5124920D01*
X+3794750Y+5109680D01*
X+3794750Y+5094440D01*
X+3778875Y+5079200D01*
X+3699500Y+5079200D01*
X+3778875Y+5079200D02*
X+3794750Y+5063960D01*
X+3794750Y+5033480D01*
X+3842375Y+5109680D02*
X+3858250Y+5124920D01*
X+3905875Y+5124920D01*
X+3921750Y+5109680D01*
X+3921750Y+5094440D01*
X+3905875Y+5079200D01*
X+3921750Y+5063960D01*
X+3921750Y+5048720D01*
X+3905875Y+5033480D01*
X+3858250Y+5033480D01*
X+3842375Y+5048720D01*
X+3874125Y+5079200D02*
X+3905875Y+5079200D01*
X+3985250Y+5079200D02*
X+3969375Y+5094440D01*
X+3969375Y+5109680D01*
X+3985250Y+5124920D01*
X+4032875Y+5124920D01*
X+4048750Y+5109680D01*
X+4048750Y+5094440D01*
X+4032875Y+5079200D01*
X+3985250Y+5079200D01*
X+3969375Y+5063960D01*
X+3969375Y+5048720D01*
X+3985250Y+5033480D01*
X+4032875Y+5033480D01*
X+4048750Y+5048720D01*
X+4048750Y+5063960D01*
X+4032875Y+5079200D01*
D33*
X+3763000Y+7533000D02*
X+3763000Y+7453000D01*
D31*
X+3572500Y+7573480D02*
X+3572500Y+7664920D01*
X+3651875Y+7664920D01*
X+3667750Y+7649680D01*
X+3667750Y+7634440D01*
X+3651875Y+7619200D01*
X+3572500Y+7619200D01*
X+3651875Y+7619200D02*
X+3667750Y+7603960D01*
X+3667750Y+7573480D01*
X+3715375Y+7649680D02*
X+3731250Y+7664920D01*
X+3778875Y+7664920D01*
X+3794750Y+7649680D01*
X+3794750Y+7634440D01*
X+3778875Y+7619200D01*
X+3794750Y+7603960D01*
X+3794750Y+7588720D01*
X+3778875Y+7573480D01*
X+3731250Y+7573480D01*
X+3715375Y+7588720D01*
X+3747125Y+7619200D02*
X+3778875Y+7619200D01*
X+3921750Y+7634440D02*
X+3905875Y+7619200D01*
X+3858250Y+7619200D01*
X+3842375Y+7634440D01*
X+3842375Y+7649680D01*
X+3858250Y+7664920D01*
X+3905875Y+7664920D01*
X+3921750Y+7649680D01*
X+3921750Y+7588720D01*
X+3905875Y+7573480D01*
X+3858250Y+7573480D01*
D33*
X+4873000Y+5421000D02*
X+4873000Y+5501000D01*
D31*
X+4682500Y+5289080D02*
X+4682500Y+5380520D01*
X+4761875Y+5380520D01*
X+4777750Y+5365280D01*
X+4777750Y+5350040D01*
X+4761875Y+5334800D01*
X+4682500Y+5334800D01*
X+4761875Y+5334800D02*
X+4777750Y+5319560D01*
X+4777750Y+5289080D01*
X+4904750Y+5319560D02*
X+4809500Y+5319560D01*
X+4873000Y+5380520D01*
X+4873000Y+5289080D01*
X+4968250Y+5350040D02*
X+5000000Y+5380520D01*
X+5000000Y+5289080D01*
X+4572000Y+7874000D02*
X+5080000Y+7874000D01*
X+5080000Y+8128000D01*
X+4572000Y+8128000D01*
X+4572000Y+7874000D01*
X+4699000Y+8199120D02*
X+4699000Y+8183880D01*
X+4714875Y+8168640D01*
X+4778375Y+8168640D01*
X+4794250Y+8183880D01*
X+4794250Y+8260080D01*
X+4921250Y+8244840D02*
X+4905375Y+8260080D01*
X+4857750Y+8260080D01*
X+4841875Y+8244840D01*
X+4841875Y+8183880D01*
X+4857750Y+8168640D01*
X+4905375Y+8168640D01*
X+4921250Y+8183880D01*
X+4921250Y+8199120D01*
X+4905375Y+8214360D01*
X+4841875Y+8214360D01*
X+5207000Y+7620000D02*
X+5715000Y+7620000D01*
X+5715000Y+7874000D01*
X+5207000Y+7874000D01*
X+5207000Y+7620000D01*
X+5334000Y+7945120D02*
X+5334000Y+7929880D01*
X+5349875Y+7914640D01*
X+5413375Y+7914640D01*
X+5429250Y+7929880D01*
X+5429250Y+8006080D01*
X+5492750Y+7960360D02*
X+5476875Y+7975600D01*
X+5476875Y+7990840D01*
X+5492750Y+8006080D01*
X+5540375Y+8006080D01*
X+5556250Y+7990840D01*
X+5556250Y+7975600D01*
X+5540375Y+7960360D01*
X+5492750Y+7960360D01*
X+5476875Y+7945120D01*
X+5476875Y+7929880D01*
X+5492750Y+7914640D01*
X+5540375Y+7914640D01*
X+5556250Y+7929880D01*
X+5556250Y+7945120D01*
X+5540375Y+7960360D01*
X+3556000Y+8001000D02*
X+4064000Y+8001000D01*
X+4064000Y+8255000D01*
X+3556000Y+8255000D01*
X+3556000Y+8001000D01*
X+3683000Y+8326120D02*
X+3683000Y+8310880D01*
X+3698875Y+8295640D01*
X+3762375Y+8295640D01*
X+3778250Y+8310880D01*
X+3778250Y+8387080D01*
X+3905250Y+8356600D02*
X+3889375Y+8341360D01*
X+3841750Y+8341360D01*
X+3825875Y+8356600D01*
X+3825875Y+8371840D01*
X+3841750Y+8387080D01*
X+3889375Y+8387080D01*
X+3905250Y+8371840D01*
X+3905250Y+8310880D01*
X+3889375Y+8295640D01*
X+3841750Y+8295640D01*
X+2921000Y+6477000D02*
X+3429000Y+6477000D01*
X+3429000Y+6731000D01*
X+2921000Y+6731000D01*
X+2921000Y+6477000D01*
X+2984500Y+6802120D02*
X+2984500Y+6786880D01*
X+3000375Y+6771640D01*
X+3063875Y+6771640D01*
X+3079750Y+6786880D01*
X+3079750Y+6863080D01*
X+3143250Y+6832600D02*
X+3175000Y+6863080D01*
X+3175000Y+6771640D01*
X+3238500Y+6786880D02*
X+3238500Y+6847840D01*
X+3254375Y+6863080D01*
X+3317875Y+6863080D01*
X+3333750Y+6847840D01*
X+3333750Y+6786880D01*
X+3317875Y+6771640D01*
X+3254375Y+6771640D01*
X+3238500Y+6786880D01*
X+3238500Y+6771640D02*
X+3333750Y+6863080D01*
X+4064000Y+7747000D02*
X+4572000Y+7747000D01*
X+4572000Y+8001000D01*
X+4064000Y+8001000D01*
X+4064000Y+7747000D01*
X+4127500Y+8072120D02*
X+4127500Y+8056880D01*
X+4143375Y+8041640D01*
X+4206875Y+8041640D01*
X+4222750Y+8056880D01*
X+4222750Y+8133080D01*
X+4286250Y+8102600D02*
X+4318000Y+8133080D01*
X+4318000Y+8041640D01*
X+4413250Y+8102600D02*
X+4445000Y+8133080D01*
X+4445000Y+8041640D01*
X+3556000Y+4445000D02*
X+4064000Y+4445000D01*
X+4064000Y+4699000D01*
X+3556000Y+4699000D01*
X+3556000Y+4445000D01*
X+3619500Y+4389120D02*
X+3619500Y+4373880D01*
X+3635375Y+4358640D01*
X+3698875Y+4358640D01*
X+3714750Y+4373880D01*
X+3714750Y+4450080D01*
X+3778250Y+4419600D02*
X+3810000Y+4450080D01*
X+3810000Y+4358640D01*
X+3889375Y+4434840D02*
X+3905250Y+4450080D01*
X+3952875Y+4450080D01*
X+3968750Y+4434840D01*
X+3968750Y+4419600D01*
X+3952875Y+4404360D01*
X+3905250Y+4404360D01*
X+3889375Y+4389120D01*
X+3889375Y+4358640D01*
X+3968750Y+4358640D01*
D33*
X+4398000Y+4913000D02*
X+4398000Y+4993000D01*
D31*
X+4207500Y+4781080D02*
X+4207500Y+4872520D01*
X+4286875Y+4872520D01*
X+4302750Y+4857280D01*
X+4302750Y+4842040D01*
X+4286875Y+4826800D01*
X+4207500Y+4826800D01*
X+4286875Y+4826800D02*
X+4302750Y+4811560D01*
X+4302750Y+4781080D01*
X+4429750Y+4811560D02*
X+4334500Y+4811560D01*
X+4398000Y+4872520D01*
X+4398000Y+4781080D01*
X+4477375Y+4857280D02*
X+4493250Y+4872520D01*
X+4540875Y+4872520D01*
X+4556750Y+4857280D01*
X+4556750Y+4842040D01*
X+4540875Y+4826800D01*
X+4493250Y+4826800D01*
X+4477375Y+4811560D01*
X+4477375Y+4781080D01*
X+4556750Y+4781080D01*
D33*
X+5033000Y+5247000D02*
X+5033000Y+5167000D01*
D31*
X+4842500Y+5033480D02*
X+4842500Y+5124920D01*
X+4921875Y+5124920D01*
X+4937750Y+5109680D01*
X+4937750Y+5094440D01*
X+4921875Y+5079200D01*
X+4842500Y+5079200D01*
X+4921875Y+5079200D02*
X+4937750Y+5063960D01*
X+4937750Y+5033480D01*
X+5064750Y+5063960D02*
X+4969500Y+5063960D01*
X+5033000Y+5124920D01*
X+5033000Y+5033480D01*
X+5191750Y+5063960D02*
X+5096500Y+5063960D01*
X+5160000Y+5124920D01*
X+5160000Y+5033480D01*
D33*
X+4398000Y+4739000D02*
X+4398000Y+4659000D01*
D31*
X+4207500Y+4525480D02*
X+4207500Y+4616920D01*
X+4286875Y+4616920D01*
X+4302750Y+4601680D01*
X+4302750Y+4586440D01*
X+4286875Y+4571200D01*
X+4207500Y+4571200D01*
X+4286875Y+4571200D02*
X+4302750Y+4555960D01*
X+4302750Y+4525480D01*
X+4429750Y+4555960D02*
X+4334500Y+4555960D01*
X+4398000Y+4616920D01*
X+4398000Y+4525480D01*
X+4556750Y+4601680D02*
X+4540875Y+4616920D01*
X+4493250Y+4616920D01*
X+4477375Y+4601680D01*
X+4477375Y+4540720D01*
X+4493250Y+4525480D01*
X+4540875Y+4525480D01*
X+4556750Y+4540720D01*
X+4556750Y+4555960D01*
X+4540875Y+4571200D01*
X+4477375Y+4571200D01*
D33*
X+4873000Y+4993000D02*
X+4873000Y+4913000D01*
D31*
X+4682500Y+4779480D02*
X+4682500Y+4870920D01*
X+4761875Y+4870920D01*
X+4777750Y+4855680D01*
X+4777750Y+4840440D01*
X+4761875Y+4825200D01*
X+4682500Y+4825200D01*
X+4761875Y+4825200D02*
X+4777750Y+4809960D01*
X+4777750Y+4779480D01*
X+4904750Y+4809960D02*
X+4809500Y+4809960D01*
X+4873000Y+4870920D01*
X+4873000Y+4779480D01*
X+4952375Y+4870920D02*
X+5031750Y+4870920D01*
X+5031750Y+4855680D01*
X+4952375Y+4779480D01*
D33*
X+5287000Y+4993000D02*
X+5287000Y+4913000D01*
D31*
X+5096500Y+4779480D02*
X+5096500Y+4870920D01*
X+5175875Y+4870920D01*
X+5191750Y+4855680D01*
X+5191750Y+4840440D01*
X+5175875Y+4825200D01*
X+5096500Y+4825200D01*
X+5175875Y+4825200D02*
X+5191750Y+4809960D01*
X+5191750Y+4779480D01*
X+5318750Y+4809960D02*
X+5223500Y+4809960D01*
X+5287000Y+4870920D01*
X+5287000Y+4779480D01*
X+5382250Y+4825200D02*
X+5366375Y+4840440D01*
X+5366375Y+4855680D01*
X+5382250Y+4870920D01*
X+5429875Y+4870920D01*
X+5445750Y+4855680D01*
X+5445750Y+4840440D01*
X+5429875Y+4825200D01*
X+5382250Y+4825200D01*
X+5366375Y+4809960D01*
X+5366375Y+4794720D01*
X+5382250Y+4779480D01*
X+5429875Y+4779480D01*
X+5445750Y+4794720D01*
X+5445750Y+4809960D01*
X+5429875Y+4825200D01*
D33*
X+3382000Y+5247000D02*
X+3382000Y+5167000D01*
D31*
X+3191500Y+5287480D02*
X+3191500Y+5378920D01*
X+3270875Y+5378920D01*
X+3286750Y+5363680D01*
X+3286750Y+5348440D01*
X+3270875Y+5333200D01*
X+3191500Y+5333200D01*
X+3270875Y+5333200D02*
X+3286750Y+5317960D01*
X+3286750Y+5287480D01*
X+3413750Y+5317960D02*
X+3318500Y+5317960D01*
X+3382000Y+5378920D01*
X+3382000Y+5287480D01*
X+3540750Y+5348440D02*
X+3524875Y+5333200D01*
X+3477250Y+5333200D01*
X+3461375Y+5348440D01*
X+3461375Y+5363680D01*
X+3477250Y+5378920D01*
X+3524875Y+5378920D01*
X+3540750Y+5363680D01*
X+3540750Y+5302720D01*
X+3524875Y+5287480D01*
X+3477250Y+5287480D01*
X+4572000Y+4445000D02*
X+5080000Y+4445000D01*
X+5080000Y+4699000D01*
X+4572000Y+4699000D01*
X+4572000Y+4445000D01*
X+4635500Y+4389120D02*
X+4635500Y+4373880D01*
X+4651375Y+4358640D01*
X+4714875Y+4358640D01*
X+4730750Y+4373880D01*
X+4730750Y+4450080D01*
X+4794250Y+4419600D02*
X+4826000Y+4450080D01*
X+4826000Y+4358640D01*
X+4905375Y+4434840D02*
X+4921250Y+4450080D01*
X+4968875Y+4450080D01*
X+4984750Y+4434840D01*
X+4984750Y+4419600D01*
X+4968875Y+4404360D01*
X+4984750Y+4389120D01*
X+4984750Y+4373880D01*
X+4968875Y+4358640D01*
X+4921250Y+4358640D01*
X+4905375Y+4373880D01*
X+4937125Y+4404360D02*
X+4968875Y+4404360D01*
X+5080000Y+4445000D02*
X+5588000Y+4445000D01*
X+5588000Y+4699000D01*
X+5080000Y+4699000D01*
X+5080000Y+4445000D01*
X+5143500Y+4389120D02*
X+5143500Y+4373880D01*
X+5159375Y+4358640D01*
X+5222875Y+4358640D01*
X+5238750Y+4373880D01*
X+5238750Y+4450080D01*
X+5302250Y+4419600D02*
X+5334000Y+4450080D01*
X+5334000Y+4358640D01*
X+5492750Y+4389120D02*
X+5397500Y+4389120D01*
X+5461000Y+4450080D01*
X+5461000Y+4358640D01*
X+5588000Y+6858000D02*
X+6096000Y+6858000D01*
X+6096000Y+7112000D01*
X+5588000Y+7112000D01*
X+5588000Y+6858000D01*
X+5651500Y+7183120D02*
X+5651500Y+7167880D01*
X+5667375Y+7152640D01*
X+5730875Y+7152640D01*
X+5746750Y+7167880D01*
X+5746750Y+7244080D01*
X+5810250Y+7213600D02*
X+5842000Y+7244080D01*
X+5842000Y+7152640D01*
X+6000750Y+7244080D02*
X+5921375Y+7244080D01*
X+5921375Y+7213600D01*
X+5984875Y+7213600D01*
X+6000750Y+7198360D01*
X+6000750Y+7167880D01*
X+5984875Y+7152640D01*
X+5937250Y+7152640D01*
X+5921375Y+7167880D01*
X+5715000Y+6223000D02*
X+6223000Y+6223000D01*
X+6223000Y+6477000D01*
X+5715000Y+6477000D01*
X+5715000Y+6223000D01*
X+5778500Y+6548120D02*
X+5778500Y+6532880D01*
X+5794375Y+6517640D01*
X+5857875Y+6517640D01*
X+5873750Y+6532880D01*
X+5873750Y+6609080D01*
X+5937250Y+6578600D02*
X+5969000Y+6609080D01*
X+5969000Y+6517640D01*
X+6127750Y+6593840D02*
X+6111875Y+6609080D01*
X+6064250Y+6609080D01*
X+6048375Y+6593840D01*
X+6048375Y+6532880D01*
X+6064250Y+6517640D01*
X+6111875Y+6517640D01*
X+6127750Y+6532880D01*
X+6127750Y+6548120D01*
X+6111875Y+6563360D01*
X+6048375Y+6563360D01*
X+2921000Y+5969000D02*
X+3429000Y+5969000D01*
X+3429000Y+6223000D01*
X+2921000Y+6223000D01*
X+2921000Y+5969000D01*
X+2984500Y+6294120D02*
X+2984500Y+6278880D01*
X+3000375Y+6263640D01*
X+3063875Y+6263640D01*
X+3079750Y+6278880D01*
X+3079750Y+6355080D01*
X+3143250Y+6324600D02*
X+3175000Y+6355080D01*
X+3175000Y+6263640D01*
X+3254375Y+6355080D02*
X+3333750Y+6355080D01*
X+3333750Y+6339840D01*
X+3254375Y+6263640D01*
X+2921000Y+5461000D02*
X+3429000Y+5461000D01*
X+3429000Y+5715000D01*
X+2921000Y+5715000D01*
X+2921000Y+5461000D01*
X+2984500Y+5786120D02*
X+2984500Y+5770880D01*
X+3000375Y+5755640D01*
X+3063875Y+5755640D01*
X+3079750Y+5770880D01*
X+3079750Y+5847080D01*
X+3143250Y+5816600D02*
X+3175000Y+5847080D01*
X+3175000Y+5755640D01*
X+3270250Y+5801360D02*
X+3254375Y+5816600D01*
X+3254375Y+5831840D01*
X+3270250Y+5847080D01*
X+3317875Y+5847080D01*
X+3333750Y+5831840D01*
X+3333750Y+5816600D01*
X+3317875Y+5801360D01*
X+3270250Y+5801360D01*
X+3254375Y+5786120D01*
X+3254375Y+5770880D01*
X+3270250Y+5755640D01*
X+3317875Y+5755640D01*
X+3333750Y+5770880D01*
X+3333750Y+5786120D01*
X+3317875Y+5801360D01*
X+5715000Y+5715000D02*
X+6223000Y+5715000D01*
X+6223000Y+5969000D01*
X+5715000Y+5969000D01*
X+5715000Y+5715000D01*
X+5778500Y+6040120D02*
X+5778500Y+6024880D01*
X+5794375Y+6009640D01*
X+5857875Y+6009640D01*
X+5873750Y+6024880D01*
X+5873750Y+6101080D01*
X+5937250Y+6070600D02*
X+5969000Y+6101080D01*
X+5969000Y+6009640D01*
X+6127750Y+6070600D02*
X+6111875Y+6055360D01*
X+6064250Y+6055360D01*
X+6048375Y+6070600D01*
X+6048375Y+6085840D01*
X+6064250Y+6101080D01*
X+6111875Y+6101080D01*
X+6127750Y+6085840D01*
X+6127750Y+6024880D01*
X+6111875Y+6009640D01*
X+6064250Y+6009640D01*
X+5715000Y+5334000D02*
X+6223000Y+5334000D01*
X+6223000Y+5588000D01*
X+5715000Y+5588000D01*
X+5715000Y+5334000D01*
X+5778500Y+5659120D02*
X+5778500Y+5643880D01*
X+5794375Y+5628640D01*
X+5857875Y+5628640D01*
X+5873750Y+5643880D01*
X+5873750Y+5720080D01*
X+5921375Y+5704840D02*
X+5937250Y+5720080D01*
X+5984875Y+5720080D01*
X+6000750Y+5704840D01*
X+6000750Y+5689600D01*
X+5984875Y+5674360D01*
X+5937250Y+5674360D01*
X+5921375Y+5659120D01*
X+5921375Y+5628640D01*
X+6000750Y+5628640D01*
X+6032500Y+5643880D02*
X+6032500Y+5704840D01*
X+6048375Y+5720080D01*
X+6111875Y+5720080D01*
X+6127750Y+5704840D01*
X+6127750Y+5643880D01*
X+6111875Y+5628640D01*
X+6048375Y+5628640D01*
X+6032500Y+5643880D01*
X+6032500Y+5628640D02*
X+6127750Y+5720080D01*
D33*
X+5922000Y+5120000D02*
X+5922000Y+5040000D01*
D31*
X+5731500Y+5160480D02*
X+5731500Y+5251920D01*
X+5810875Y+5251920D01*
X+5826750Y+5236680D01*
X+5826750Y+5221440D01*
X+5810875Y+5206200D01*
X+5731500Y+5206200D01*
X+5810875Y+5206200D02*
X+5826750Y+5190960D01*
X+5826750Y+5160480D01*
X+5953750Y+5190960D02*
X+5858500Y+5190960D01*
X+5922000Y+5251920D01*
X+5922000Y+5160480D01*
X+5985500Y+5175720D02*
X+5985500Y+5236680D01*
X+6001375Y+5251920D01*
X+6064875Y+5251920D01*
X+6080750Y+5236680D01*
X+6080750Y+5175720D01*
X+6064875Y+5160480D01*
X+6001375Y+5160480D01*
X+5985500Y+5175720D01*
X+5985500Y+5160480D02*
X+6080750Y+5251920D01*
D33*
X+4271000Y+4231000D02*
X+4271000Y+4151000D01*
D31*
X+4080500Y+4271480D02*
X+4080500Y+4362920D01*
X+4159875Y+4362920D01*
X+4175750Y+4347680D01*
X+4175750Y+4332440D01*
X+4159875Y+4317200D01*
X+4080500Y+4317200D01*
X+4159875Y+4317200D02*
X+4175750Y+4301960D01*
X+4175750Y+4271480D01*
X+4302750Y+4301960D02*
X+4207500Y+4301960D01*
X+4271000Y+4362920D01*
X+4271000Y+4271480D01*
X+4350375Y+4347680D02*
X+4366250Y+4362920D01*
X+4413875Y+4362920D01*
X+4429750Y+4347680D01*
X+4429750Y+4332440D01*
X+4413875Y+4317200D01*
X+4429750Y+4301960D01*
X+4429750Y+4286720D01*
X+4413875Y+4271480D01*
X+4366250Y+4271480D01*
X+4350375Y+4286720D01*
X+4382125Y+4317200D02*
X+4413875Y+4317200D01*
D33*
X+3763000Y+4231000D02*
X+3763000Y+4151000D01*
D31*
X+3191500Y+4144480D02*
X+3191500Y+4235920D01*
X+3270875Y+4235920D01*
X+3286750Y+4220680D01*
X+3286750Y+4205440D01*
X+3270875Y+4190200D01*
X+3191500Y+4190200D01*
X+3270875Y+4190200D02*
X+3286750Y+4174960D01*
X+3286750Y+4144480D01*
X+3413750Y+4174960D02*
X+3318500Y+4174960D01*
X+3382000Y+4235920D01*
X+3382000Y+4144480D01*
X+3540750Y+4235920D02*
X+3461375Y+4235920D01*
X+3461375Y+4205440D01*
X+3524875Y+4205440D01*
X+3540750Y+4190200D01*
X+3540750Y+4159720D01*
X+3524875Y+4144480D01*
X+3477250Y+4144480D01*
X+3461375Y+4159720D01*
D33*
X+3763000Y+3977000D02*
X+3763000Y+3897000D01*
D31*
X+3572500Y+3763480D02*
X+3572500Y+3854920D01*
X+3651875Y+3854920D01*
X+3667750Y+3839680D01*
X+3667750Y+3824440D01*
X+3651875Y+3809200D01*
X+3572500Y+3809200D01*
X+3651875Y+3809200D02*
X+3667750Y+3793960D01*
X+3667750Y+3763480D01*
X+3794750Y+3854920D02*
X+3715375Y+3854920D01*
X+3715375Y+3824440D01*
X+3778875Y+3824440D01*
X+3794750Y+3809200D01*
X+3794750Y+3778720D01*
X+3778875Y+3763480D01*
X+3731250Y+3763480D01*
X+3715375Y+3778720D01*
X+3826500Y+3778720D02*
X+3826500Y+3839680D01*
X+3842375Y+3854920D01*
X+3905875Y+3854920D01*
X+3921750Y+3839680D01*
X+3921750Y+3778720D01*
X+3905875Y+3763480D01*
X+3842375Y+3763480D01*
X+3826500Y+3778720D01*
X+3826500Y+3763480D02*
X+3921750Y+3854920D01*
D33*
X+5922000Y+4739000D02*
X+5922000Y+4659000D01*
D31*
X+5731500Y+4779480D02*
X+5731500Y+4870920D01*
X+5810875Y+4870920D01*
X+5826750Y+4855680D01*
X+5826750Y+4840440D01*
X+5810875Y+4825200D01*
X+5731500Y+4825200D01*
X+5810875Y+4825200D02*
X+5826750Y+4809960D01*
X+5826750Y+4779480D01*
X+5953750Y+4870920D02*
X+5874375Y+4870920D01*
X+5874375Y+4840440D01*
X+5937875Y+4840440D01*
X+5953750Y+4825200D01*
X+5953750Y+4794720D01*
X+5937875Y+4779480D01*
X+5890250Y+4779480D01*
X+5874375Y+4794720D01*
X+6017250Y+4840440D02*
X+6049000Y+4870920D01*
X+6049000Y+4779480D01*
X+9144000Y+8763000D02*
X+9271000Y+8763000D01*
X+9271000Y+8699500D02*
X+9779000Y+8699500D01*
X+9779000Y+8826500D01*
X+9271000Y+8826500D01*
X+9271000Y+8699500D01*
X+9779000Y+8763000D02*
X+9906000Y+8763000D01*
X+9334500Y+8867140D02*
X+9334500Y+8958580D01*
X+9413875Y+8958580D01*
X+9429750Y+8943340D01*
X+9429750Y+8928100D01*
X+9413875Y+8912860D01*
X+9334500Y+8912860D01*
X+9413875Y+8912860D02*
X+9429750Y+8897620D01*
X+9429750Y+8867140D01*
X+9556750Y+8958580D02*
X+9477375Y+8958580D01*
X+9477375Y+8928100D01*
X+9540875Y+8928100D01*
X+9556750Y+8912860D01*
X+9556750Y+8882380D01*
X+9540875Y+8867140D01*
X+9493250Y+8867140D01*
X+9477375Y+8882380D01*
X+9604375Y+8943340D02*
X+9620250Y+8958580D01*
X+9667875Y+8958580D01*
X+9683750Y+8943340D01*
X+9683750Y+8928100D01*
X+9667875Y+8912860D01*
X+9683750Y+8897620D01*
X+9683750Y+8882380D01*
X+9667875Y+8867140D01*
X+9620250Y+8867140D01*
X+9604375Y+8882380D01*
X+9636125Y+8912860D02*
X+9667875Y+8912860D01*
X+9906000Y+8509000D02*
X+9779000Y+8509000D01*
X+9271000Y+8445500D02*
X+9779000Y+8445500D01*
X+9779000Y+8572500D01*
X+9271000Y+8572500D01*
X+9271000Y+8445500D01*
X+9271000Y+8509000D02*
X+9144000Y+8509000D01*
X+9334500Y+8313420D02*
X+9334500Y+8404860D01*
X+9413875Y+8404860D01*
X+9429750Y+8389620D01*
X+9429750Y+8374380D01*
X+9413875Y+8359140D01*
X+9334500Y+8359140D01*
X+9413875Y+8359140D02*
X+9429750Y+8343900D01*
X+9429750Y+8313420D01*
X+9556750Y+8404860D02*
X+9477375Y+8404860D01*
X+9477375Y+8374380D01*
X+9540875Y+8374380D01*
X+9556750Y+8359140D01*
X+9556750Y+8328660D01*
X+9540875Y+8313420D01*
X+9493250Y+8313420D01*
X+9477375Y+8328660D01*
X+9683750Y+8343900D02*
X+9588500Y+8343900D01*
X+9652000Y+8404860D01*
X+9652000Y+8313420D01*
X+9144000Y+8255000D02*
X+9271000Y+8255000D01*
X+9271000Y+8191500D02*
X+9779000Y+8191500D01*
X+9779000Y+8318500D01*
X+9271000Y+8318500D01*
X+9271000Y+8191500D01*
X+9779000Y+8255000D02*
X+9906000Y+8255000D01*
X+9334500Y+8105140D02*
X+9334500Y+8196580D01*
X+9413875Y+8196580D01*
X+9429750Y+8181340D01*
X+9429750Y+8166100D01*
X+9413875Y+8150860D01*
X+9334500Y+8150860D01*
X+9413875Y+8150860D02*
X+9429750Y+8135620D01*
X+9429750Y+8105140D01*
X+9556750Y+8196580D02*
X+9477375Y+8196580D01*
X+9477375Y+8166100D01*
X+9540875Y+8166100D01*
X+9556750Y+8150860D01*
X+9556750Y+8120380D01*
X+9540875Y+8105140D01*
X+9493250Y+8105140D01*
X+9477375Y+8120380D01*
X+9683750Y+8196580D02*
X+9604375Y+8196580D01*
X+9604375Y+8166100D01*
X+9667875Y+8166100D01*
X+9683750Y+8150860D01*
X+9683750Y+8120380D01*
X+9667875Y+8105140D01*
X+9620250Y+8105140D01*
X+9604375Y+8120380D01*
X+9906000Y+8001000D02*
X+9779000Y+8001000D01*
X+9271000Y+7937500D02*
X+9779000Y+7937500D01*
X+9779000Y+8064500D01*
X+9271000Y+8064500D01*
X+9271000Y+7937500D01*
X+9271000Y+8001000D02*
X+9144000Y+8001000D01*
X+9334500Y+7805420D02*
X+9334500Y+7896860D01*
X+9413875Y+7896860D01*
X+9429750Y+7881620D01*
X+9429750Y+7866380D01*
X+9413875Y+7851140D01*
X+9334500Y+7851140D01*
X+9413875Y+7851140D02*
X+9429750Y+7835900D01*
X+9429750Y+7805420D01*
X+9556750Y+7896860D02*
X+9477375Y+7896860D01*
X+9477375Y+7866380D01*
X+9540875Y+7866380D01*
X+9556750Y+7851140D01*
X+9556750Y+7820660D01*
X+9540875Y+7805420D01*
X+9493250Y+7805420D01*
X+9477375Y+7820660D01*
X+9683750Y+7881620D02*
X+9667875Y+7896860D01*
X+9620250Y+7896860D01*
X+9604375Y+7881620D01*
X+9604375Y+7820660D01*
X+9620250Y+7805420D01*
X+9667875Y+7805420D01*
X+9683750Y+7820660D01*
X+9683750Y+7835900D01*
X+9667875Y+7851140D01*
X+9604375Y+7851140D01*
X+9144000Y+7747000D02*
X+9271000Y+7747000D01*
X+9271000Y+7683500D02*
X+9779000Y+7683500D01*
X+9779000Y+7810500D01*
X+9271000Y+7810500D01*
X+9271000Y+7683500D01*
X+9779000Y+7747000D02*
X+9906000Y+7747000D01*
X+9334500Y+7597140D02*
X+9334500Y+7688580D01*
X+9413875Y+7688580D01*
X+9429750Y+7673340D01*
X+9429750Y+7658100D01*
X+9413875Y+7642860D01*
X+9334500Y+7642860D01*
X+9413875Y+7642860D02*
X+9429750Y+7627620D01*
X+9429750Y+7597140D01*
X+9556750Y+7688580D02*
X+9477375Y+7688580D01*
X+9477375Y+7658100D01*
X+9540875Y+7658100D01*
X+9556750Y+7642860D01*
X+9556750Y+7612380D01*
X+9540875Y+7597140D01*
X+9493250Y+7597140D01*
X+9477375Y+7612380D01*
X+9604375Y+7688580D02*
X+9683750Y+7688580D01*
X+9683750Y+7673340D01*
X+9604375Y+7597140D01*
X+6096000Y+3175000D02*
X+8382000Y+3175000D01*
X+8382000Y+3810000D01*
X+6096000Y+3810000D01*
X+6096000Y+3175000D01*
X+6096000Y+3683000D02*
X+8382000Y+3683000D01*
X+7048500Y+3881120D02*
X+7048500Y+3865880D01*
X+7064375Y+3850640D01*
X+7127875Y+3850640D01*
X+7143750Y+3865880D01*
X+7143750Y+3942080D01*
X+7191375Y+3926840D02*
X+7207250Y+3942080D01*
X+7254875Y+3942080D01*
X+7270750Y+3926840D01*
X+7270750Y+3911600D01*
X+7254875Y+3896360D01*
X+7207250Y+3896360D01*
X+7191375Y+3881120D01*
X+7191375Y+3850640D01*
X+7270750Y+3850640D01*
X+7334250Y+3911600D02*
X+7366000Y+3942080D01*
X+7366000Y+3850640D01*
X+3683000Y+3175000D02*
X+5969000Y+3175000D01*
X+5969000Y+3810000D01*
X+3683000Y+3810000D01*
X+3683000Y+3175000D01*
X+3683000Y+3683000D02*
X+5969000Y+3683000D01*
X+4635500Y+3881120D02*
X+4635500Y+3865880D01*
X+4651375Y+3850640D01*
X+4714875Y+3850640D01*
X+4730750Y+3865880D01*
X+4730750Y+3942080D01*
X+4778375Y+3926840D02*
X+4794250Y+3942080D01*
X+4841875Y+3942080D01*
X+4857750Y+3926840D01*
X+4857750Y+3911600D01*
X+4841875Y+3896360D01*
X+4794250Y+3896360D01*
X+4778375Y+3881120D01*
X+4778375Y+3850640D01*
X+4857750Y+3850640D01*
X+4905375Y+3926840D02*
X+4921250Y+3942080D01*
X+4968875Y+3942080D01*
X+4984750Y+3926840D01*
X+4984750Y+3911600D01*
X+4968875Y+3896360D01*
X+4921250Y+3896360D01*
X+4905375Y+3881120D01*
X+4905375Y+3850640D01*
X+4984750Y+3850640D01*
X+1905000Y+9652000D02*
X+1778000Y+9652000D01*
X+1270000Y+9588500D02*
X+1778000Y+9588500D01*
X+1778000Y+9715500D01*
X+1270000Y+9715500D01*
X+1270000Y+9588500D01*
X+1270000Y+9652000D02*
X+1143000Y+9652000D01*
X+1333500Y+9456420D02*
X+1333500Y+9547860D01*
X+1412875Y+9547860D01*
X+1428750Y+9532620D01*
X+1428750Y+9517380D01*
X+1412875Y+9502140D01*
X+1333500Y+9502140D01*
X+1412875Y+9502140D02*
X+1428750Y+9486900D01*
X+1428750Y+9456420D01*
X+1555750Y+9547860D02*
X+1476375Y+9547860D01*
X+1476375Y+9517380D01*
X+1539875Y+9517380D01*
X+1555750Y+9502140D01*
X+1555750Y+9471660D01*
X+1539875Y+9456420D01*
X+1492250Y+9456420D01*
X+1476375Y+9471660D01*
X+1619250Y+9502140D02*
X+1603375Y+9517380D01*
X+1603375Y+9532620D01*
X+1619250Y+9547860D01*
X+1666875Y+9547860D01*
X+1682750Y+9532620D01*
X+1682750Y+9517380D01*
X+1666875Y+9502140D01*
X+1619250Y+9502140D01*
X+1603375Y+9486900D01*
X+1603375Y+9471660D01*
X+1619250Y+9456420D01*
X+1666875Y+9456420D01*
X+1682750Y+9471660D01*
X+1682750Y+9486900D01*
X+1666875Y+9502140D01*
X+8382000Y+8763000D02*
X+8255000Y+8763000D01*
X+7747000Y+8699500D02*
X+8255000Y+8699500D01*
X+8255000Y+8826500D01*
X+7747000Y+8826500D01*
X+7747000Y+8699500D01*
X+7747000Y+8763000D02*
X+7620000Y+8763000D01*
X+7810500Y+8821420D02*
X+7810500Y+8912860D01*
X+7889875Y+8912860D01*
X+7905750Y+8897620D01*
X+7905750Y+8882380D01*
X+7889875Y+8867140D01*
X+7810500Y+8867140D01*
X+7889875Y+8867140D02*
X+7905750Y+8851900D01*
X+7905750Y+8821420D01*
X+8032750Y+8912860D02*
X+7953375Y+8912860D01*
X+7953375Y+8882380D01*
X+8016875Y+8882380D01*
X+8032750Y+8867140D01*
X+8032750Y+8836660D01*
X+8016875Y+8821420D01*
X+7969250Y+8821420D01*
X+7953375Y+8836660D01*
X+8159750Y+8882380D02*
X+8143875Y+8867140D01*
X+8096250Y+8867140D01*
X+8080375Y+8882380D01*
X+8080375Y+8897620D01*
X+8096250Y+8912860D01*
X+8143875Y+8912860D01*
X+8159750Y+8897620D01*
X+8159750Y+8836660D01*
X+8143875Y+8821420D01*
X+8096250Y+8821420D01*
X+7620000Y+8509000D02*
X+7747000Y+8509000D01*
X+7747000Y+8445500D02*
X+8255000Y+8445500D01*
X+8255000Y+8572500D01*
X+7747000Y+8572500D01*
X+7747000Y+8445500D01*
X+8255000Y+8509000D02*
X+8382000Y+8509000D01*
X+7810500Y+8613140D02*
X+7810500Y+8704580D01*
X+7889875Y+8704580D01*
X+7905750Y+8689340D01*
X+7905750Y+8674100D01*
X+7889875Y+8658860D01*
X+7810500Y+8658860D01*
X+7889875Y+8658860D02*
X+7905750Y+8643620D01*
X+7905750Y+8613140D01*
X+8032750Y+8689340D02*
X+8016875Y+8704580D01*
X+7969250Y+8704580D01*
X+7953375Y+8689340D01*
X+7953375Y+8628380D01*
X+7969250Y+8613140D01*
X+8016875Y+8613140D01*
X+8032750Y+8628380D01*
X+8032750Y+8643620D01*
X+8016875Y+8658860D01*
X+7953375Y+8658860D01*
X+8064500Y+8628380D02*
X+8064500Y+8689340D01*
X+8080375Y+8704580D01*
X+8143875Y+8704580D01*
X+8159750Y+8689340D01*
X+8159750Y+8628380D01*
X+8143875Y+8613140D01*
X+8080375Y+8613140D01*
X+8064500Y+8628380D01*
X+8064500Y+8613140D02*
X+8159750Y+8704580D01*
X+8382000Y+8255000D02*
X+8255000Y+8255000D01*
X+7747000Y+8191500D02*
X+8255000Y+8191500D01*
X+8255000Y+8318500D01*
X+7747000Y+8318500D01*
X+7747000Y+8191500D01*
X+7747000Y+8255000D02*
X+7620000Y+8255000D01*
X+7810500Y+8059420D02*
X+7810500Y+8150860D01*
X+7889875Y+8150860D01*
X+7905750Y+8135620D01*
X+7905750Y+8120380D01*
X+7889875Y+8105140D01*
X+7810500Y+8105140D01*
X+7889875Y+8105140D02*
X+7905750Y+8089900D01*
X+7905750Y+8059420D01*
X+8032750Y+8135620D02*
X+8016875Y+8150860D01*
X+7969250Y+8150860D01*
X+7953375Y+8135620D01*
X+7953375Y+8074660D01*
X+7969250Y+8059420D01*
X+8016875Y+8059420D01*
X+8032750Y+8074660D01*
X+8032750Y+8089900D01*
X+8016875Y+8105140D01*
X+7953375Y+8105140D01*
X+8096250Y+8120380D02*
X+8128000Y+8150860D01*
X+8128000Y+8059420D01*
X+7620000Y+8001000D02*
X+7747000Y+8001000D01*
X+7747000Y+7937500D02*
X+8255000Y+7937500D01*
X+8255000Y+8064500D01*
X+7747000Y+8064500D01*
X+7747000Y+7937500D01*
X+8255000Y+8001000D02*
X+8382000Y+8001000D01*
X+7810500Y+7724140D02*
X+7810500Y+7815580D01*
X+7889875Y+7815580D01*
X+7905750Y+7800340D01*
X+7905750Y+7785100D01*
X+7889875Y+7769860D01*
X+7810500Y+7769860D01*
X+7889875Y+7769860D02*
X+7905750Y+7754620D01*
X+7905750Y+7724140D01*
X+8032750Y+7800340D02*
X+8016875Y+7815580D01*
X+7969250Y+7815580D01*
X+7953375Y+7800340D01*
X+7953375Y+7739380D01*
X+7969250Y+7724140D01*
X+8016875Y+7724140D01*
X+8032750Y+7739380D01*
X+8032750Y+7754620D01*
X+8016875Y+7769860D01*
X+7953375Y+7769860D01*
X+8080375Y+7800340D02*
X+8096250Y+7815580D01*
X+8143875Y+7815580D01*
X+8159750Y+7800340D01*
X+8159750Y+7785100D01*
X+8143875Y+7769860D01*
X+8096250Y+7769860D01*
X+8080375Y+7754620D01*
X+8080375Y+7724140D01*
X+8159750Y+7724140D01*
X+8382000Y+7747000D02*
X+8255000Y+7747000D01*
X+7747000Y+7683500D02*
X+8255000Y+7683500D01*
X+8255000Y+7810500D01*
X+7747000Y+7810500D01*
X+7747000Y+7683500D01*
X+7747000Y+7747000D02*
X+7620000Y+7747000D01*
X+7810500Y+7805420D02*
X+7810500Y+7896860D01*
X+7889875Y+7896860D01*
X+7905750Y+7881620D01*
X+7905750Y+7866380D01*
X+7889875Y+7851140D01*
X+7810500Y+7851140D01*
X+7889875Y+7851140D02*
X+7905750Y+7835900D01*
X+7905750Y+7805420D01*
X+8032750Y+7881620D02*
X+8016875Y+7896860D01*
X+7969250Y+7896860D01*
X+7953375Y+7881620D01*
X+7953375Y+7820660D01*
X+7969250Y+7805420D01*
X+8016875Y+7805420D01*
X+8032750Y+7820660D01*
X+8032750Y+7835900D01*
X+8016875Y+7851140D01*
X+7953375Y+7851140D01*
X+8080375Y+7881620D02*
X+8096250Y+7896860D01*
X+8143875Y+7896860D01*
X+8159750Y+7881620D01*
X+8159750Y+7866380D01*
X+8143875Y+7851140D01*
X+8159750Y+7835900D01*
X+8159750Y+7820660D01*
X+8143875Y+7805420D01*
X+8096250Y+7805420D01*
X+8080375Y+7820660D01*
X+8112125Y+7851140D02*
X+8143875Y+7851140D01*
X+6985000Y+8763000D02*
X+6858000Y+8763000D01*
X+6350000Y+8699500D02*
X+6858000Y+8699500D01*
X+6858000Y+8826500D01*
X+6350000Y+8826500D01*
X+6350000Y+8699500D01*
X+6350000Y+8763000D02*
X+6223000Y+8763000D01*
X+6413500Y+8821420D02*
X+6413500Y+8912860D01*
X+6492875Y+8912860D01*
X+6508750Y+8897620D01*
X+6508750Y+8882380D01*
X+6492875Y+8867140D01*
X+6413500Y+8867140D01*
X+6492875Y+8867140D02*
X+6508750Y+8851900D01*
X+6508750Y+8821420D01*
X+6635750Y+8897620D02*
X+6619875Y+8912860D01*
X+6572250Y+8912860D01*
X+6556375Y+8897620D01*
X+6556375Y+8836660D01*
X+6572250Y+8821420D01*
X+6619875Y+8821420D01*
X+6635750Y+8836660D01*
X+6635750Y+8851900D01*
X+6619875Y+8867140D01*
X+6556375Y+8867140D01*
X+6762750Y+8851900D02*
X+6667500Y+8851900D01*
X+6731000Y+8912860D01*
X+6731000Y+8821420D01*
X+6223000Y+8509000D02*
X+6350000Y+8509000D01*
X+6350000Y+8445500D02*
X+6858000Y+8445500D01*
X+6858000Y+8572500D01*
X+6350000Y+8572500D01*
X+6350000Y+8445500D01*
X+6858000Y+8509000D02*
X+6985000Y+8509000D01*
X+6413500Y+8613140D02*
X+6413500Y+8704580D01*
X+6492875Y+8704580D01*
X+6508750Y+8689340D01*
X+6508750Y+8674100D01*
X+6492875Y+8658860D01*
X+6413500Y+8658860D01*
X+6492875Y+8658860D02*
X+6508750Y+8643620D01*
X+6508750Y+8613140D01*
X+6635750Y+8689340D02*
X+6619875Y+8704580D01*
X+6572250Y+8704580D01*
X+6556375Y+8689340D01*
X+6556375Y+8628380D01*
X+6572250Y+8613140D01*
X+6619875Y+8613140D01*
X+6635750Y+8628380D01*
X+6635750Y+8643620D01*
X+6619875Y+8658860D01*
X+6556375Y+8658860D01*
X+6762750Y+8704580D02*
X+6683375Y+8704580D01*
X+6683375Y+8674100D01*
X+6746875Y+8674100D01*
X+6762750Y+8658860D01*
X+6762750Y+8628380D01*
X+6746875Y+8613140D01*
X+6699250Y+8613140D01*
X+6683375Y+8628380D01*
X+6985000Y+8255000D02*
X+6858000Y+8255000D01*
X+6350000Y+8191500D02*
X+6858000Y+8191500D01*
X+6858000Y+8318500D01*
X+6350000Y+8318500D01*
X+6350000Y+8191500D01*
X+6350000Y+8255000D02*
X+6223000Y+8255000D01*
X+6413500Y+8313420D02*
X+6413500Y+8404860D01*
X+6492875Y+8404860D01*
X+6508750Y+8389620D01*
X+6508750Y+8374380D01*
X+6492875Y+8359140D01*
X+6413500Y+8359140D01*
X+6492875Y+8359140D02*
X+6508750Y+8343900D01*
X+6508750Y+8313420D01*
X+6635750Y+8389620D02*
X+6619875Y+8404860D01*
X+6572250Y+8404860D01*
X+6556375Y+8389620D01*
X+6556375Y+8328660D01*
X+6572250Y+8313420D01*
X+6619875Y+8313420D01*
X+6635750Y+8328660D01*
X+6635750Y+8343900D01*
X+6619875Y+8359140D01*
X+6556375Y+8359140D01*
X+6762750Y+8389620D02*
X+6746875Y+8404860D01*
X+6699250Y+8404860D01*
X+6683375Y+8389620D01*
X+6683375Y+8328660D01*
X+6699250Y+8313420D01*
X+6746875Y+8313420D01*
X+6762750Y+8328660D01*
X+6762750Y+8343900D01*
X+6746875Y+8359140D01*
X+6683375Y+8359140D01*
X+6223000Y+8001000D02*
X+6350000Y+8001000D01*
X+6350000Y+7937500D02*
X+6858000Y+7937500D01*
X+6858000Y+8064500D01*
X+6350000Y+8064500D01*
X+6350000Y+7937500D01*
X+6858000Y+8001000D02*
X+6985000Y+8001000D01*
X+6413500Y+8105140D02*
X+6413500Y+8196580D01*
X+6492875Y+8196580D01*
X+6508750Y+8181340D01*
X+6508750Y+8166100D01*
X+6492875Y+8150860D01*
X+6413500Y+8150860D01*
X+6492875Y+8150860D02*
X+6508750Y+8135620D01*
X+6508750Y+8105140D01*
X+6635750Y+8181340D02*
X+6619875Y+8196580D01*
X+6572250Y+8196580D01*
X+6556375Y+8181340D01*
X+6556375Y+8120380D01*
X+6572250Y+8105140D01*
X+6619875Y+8105140D01*
X+6635750Y+8120380D01*
X+6635750Y+8135620D01*
X+6619875Y+8150860D01*
X+6556375Y+8150860D01*
X+6683375Y+8196580D02*
X+6762750Y+8196580D01*
X+6762750Y+8181340D01*
X+6683375Y+8105140D01*
X+6985000Y+7747000D02*
X+6858000Y+7747000D01*
X+6350000Y+7683500D02*
X+6858000Y+7683500D01*
X+6858000Y+7810500D01*
X+6350000Y+7810500D01*
X+6350000Y+7683500D01*
X+6350000Y+7747000D02*
X+6223000Y+7747000D01*
X+6413500Y+7551420D02*
X+6413500Y+7642860D01*
X+6492875Y+7642860D01*
X+6508750Y+7627620D01*
X+6508750Y+7612380D01*
X+6492875Y+7597140D01*
X+6413500Y+7597140D01*
X+6492875Y+7597140D02*
X+6508750Y+7581900D01*
X+6508750Y+7551420D01*
X+6635750Y+7627620D02*
X+6619875Y+7642860D01*
X+6572250Y+7642860D01*
X+6556375Y+7627620D01*
X+6556375Y+7566660D01*
X+6572250Y+7551420D01*
X+6619875Y+7551420D01*
X+6635750Y+7566660D01*
X+6635750Y+7581900D01*
X+6619875Y+7597140D01*
X+6556375Y+7597140D01*
X+6699250Y+7597140D02*
X+6683375Y+7612380D01*
X+6683375Y+7627620D01*
X+6699250Y+7642860D01*
X+6746875Y+7642860D01*
X+6762750Y+7627620D01*
X+6762750Y+7612380D01*
X+6746875Y+7597140D01*
X+6699250Y+7597140D01*
X+6683375Y+7581900D01*
X+6683375Y+7566660D01*
X+6699250Y+7551420D01*
X+6746875Y+7551420D01*
X+6762750Y+7566660D01*
X+6762750Y+7581900D01*
X+6746875Y+7597140D01*
D33*
X+7573000Y+6771000D02*
X+7573000Y+6691000D01*
D31*
X+7382500Y+6811480D02*
X+7382500Y+6902920D01*
X+7461875Y+6902920D01*
X+7477750Y+6887680D01*
X+7477750Y+6872440D01*
X+7461875Y+6857200D01*
X+7382500Y+6857200D01*
X+7461875Y+6857200D02*
X+7477750Y+6841960D01*
X+7477750Y+6811480D01*
X+7604750Y+6887680D02*
X+7588875Y+6902920D01*
X+7541250Y+6902920D01*
X+7525375Y+6887680D01*
X+7525375Y+6826720D01*
X+7541250Y+6811480D01*
X+7588875Y+6811480D01*
X+7604750Y+6826720D01*
X+7604750Y+6841960D01*
X+7588875Y+6857200D01*
X+7525375Y+6857200D01*
X+7731750Y+6872440D02*
X+7715875Y+6857200D01*
X+7668250Y+6857200D01*
X+7652375Y+6872440D01*
X+7652375Y+6887680D01*
X+7668250Y+6902920D01*
X+7715875Y+6902920D01*
X+7731750Y+6887680D01*
X+7731750Y+6826720D01*
X+7715875Y+6811480D01*
X+7668250Y+6811480D01*
D33*
X+7573000Y+7152000D02*
X+7573000Y+7072000D01*
D31*
X+7382500Y+7192480D02*
X+7382500Y+7283920D01*
X+7461875Y+7283920D01*
X+7477750Y+7268680D01*
X+7477750Y+7253440D01*
X+7461875Y+7238200D01*
X+7382500Y+7238200D01*
X+7461875Y+7238200D02*
X+7477750Y+7222960D01*
X+7477750Y+7192480D01*
X+7525375Y+7283920D02*
X+7604750Y+7283920D01*
X+7604750Y+7268680D01*
X+7525375Y+7192480D01*
X+7636500Y+7207720D02*
X+7636500Y+7268680D01*
X+7652375Y+7283920D01*
X+7715875Y+7283920D01*
X+7731750Y+7268680D01*
X+7731750Y+7207720D01*
X+7715875Y+7192480D01*
X+7652375Y+7192480D01*
X+7636500Y+7207720D01*
X+7636500Y+7192480D02*
X+7731750Y+7283920D01*
D33*
X+6684000Y+6945000D02*
X+6684000Y+7025000D01*
D31*
X+6493500Y+6813080D02*
X+6493500Y+6904520D01*
X+6572875Y+6904520D01*
X+6588750Y+6889280D01*
X+6588750Y+6874040D01*
X+6572875Y+6858800D01*
X+6493500Y+6858800D01*
X+6572875Y+6858800D02*
X+6588750Y+6843560D01*
X+6588750Y+6813080D01*
X+6636375Y+6904520D02*
X+6715750Y+6904520D01*
X+6715750Y+6889280D01*
X+6636375Y+6813080D01*
X+6779250Y+6874040D02*
X+6811000Y+6904520D01*
X+6811000Y+6813080D01*
D33*
X+7065000Y+7152000D02*
X+7065000Y+7072000D01*
D31*
X+6874500Y+7192480D02*
X+6874500Y+7283920D01*
X+6953875Y+7283920D01*
X+6969750Y+7268680D01*
X+6969750Y+7253440D01*
X+6953875Y+7238200D01*
X+6874500Y+7238200D01*
X+6953875Y+7238200D02*
X+6969750Y+7222960D01*
X+6969750Y+7192480D01*
X+7017375Y+7283920D02*
X+7096750Y+7283920D01*
X+7096750Y+7268680D01*
X+7017375Y+7192480D01*
X+7144375Y+7268680D02*
X+7160250Y+7283920D01*
X+7207875Y+7283920D01*
X+7223750Y+7268680D01*
X+7223750Y+7253440D01*
X+7207875Y+7238200D01*
X+7160250Y+7238200D01*
X+7144375Y+7222960D01*
X+7144375Y+7192480D01*
X+7223750Y+7192480D01*
D33*
X+7065000Y+4993000D02*
X+7065000Y+4913000D01*
D31*
X+6874500Y+5033480D02*
X+6874500Y+5124920D01*
X+6953875Y+5124920D01*
X+6969750Y+5109680D01*
X+6969750Y+5094440D01*
X+6953875Y+5079200D01*
X+6874500Y+5079200D01*
X+6953875Y+5079200D02*
X+6969750Y+5063960D01*
X+6969750Y+5033480D01*
X+7017375Y+5124920D02*
X+7096750Y+5124920D01*
X+7096750Y+5109680D01*
X+7017375Y+5033480D01*
X+7144375Y+5109680D02*
X+7160250Y+5124920D01*
X+7207875Y+5124920D01*
X+7223750Y+5109680D01*
X+7223750Y+5094440D01*
X+7207875Y+5079200D01*
X+7223750Y+5063960D01*
X+7223750Y+5048720D01*
X+7207875Y+5033480D01*
X+7160250Y+5033480D01*
X+7144375Y+5048720D01*
X+7176125Y+5079200D02*
X+7207875Y+5079200D01*
D33*
X+6938000Y+6517000D02*
X+6938000Y+6437000D01*
D31*
X+6747500Y+6557480D02*
X+6747500Y+6648920D01*
X+6826875Y+6648920D01*
X+6842750Y+6633680D01*
X+6842750Y+6618440D01*
X+6826875Y+6603200D01*
X+6747500Y+6603200D01*
X+6826875Y+6603200D02*
X+6842750Y+6587960D01*
X+6842750Y+6557480D01*
X+6890375Y+6648920D02*
X+6969750Y+6648920D01*
X+6969750Y+6633680D01*
X+6890375Y+6557480D01*
X+7096750Y+6587960D02*
X+7001500Y+6587960D01*
X+7065000Y+6648920D01*
X+7065000Y+6557480D01*
X-3683000Y+6096000D02*
X-3683000Y+5969000D01*
X-3746500Y+5461000D02*
X-3619500Y+5461000D01*
X-3619500Y+5969000D01*
X-3746500Y+5969000D01*
X-3746500Y+5461000D01*
X-3683000Y+5461000D02*
X-3683000Y+5334000D01*
X-3487420Y+5588000D02*
X-3578860Y+5588000D01*
X-3578860Y+5667375D01*
X-3563620Y+5683250D01*
X-3548380Y+5683250D01*
X-3533140Y+5667375D01*
X-3533140Y+5588000D01*
X-3533140Y+5667375D02*
X-3517900Y+5683250D01*
X-3487420Y+5683250D01*
X-3548380Y+5746750D02*
X-3578860Y+5778500D01*
X-3487420Y+5778500D01*
X-10520391Y+11811000D02*
X-10521651Y+11842791D01*
X-10531880Y+11906374D01*
X-10553188Y+11969957D01*
X-10587686Y+12033540D01*
X-10640162Y+12097107D01*
X-10703745Y+12148127D01*
X-10767328Y+12181630D01*
X-10830911Y+12202143D01*
X-10894494Y+12211666D01*
X-10922000Y+12212609D01*
X-11323609Y+11811000D02*
X-11322349Y+11842791D01*
X-11312120Y+11906374D01*
X-11290812Y+11969957D01*
X-11256314Y+12033540D01*
X-11203838Y+12097107D01*
X-11140255Y+12148127D01*
X-11076672Y+12181630D01*
X-11013089Y+12202143D01*
X-10949506Y+12211666D01*
X-10922000Y+12212609D01*
X-11323609Y+11811000D02*
X-11322349Y+11779209D01*
X-11312120Y+11715626D01*
X-11290812Y+11652043D01*
X-11256314Y+11588460D01*
X-11203838Y+11524893D01*
X-11140255Y+11473873D01*
X-11076672Y+11440370D01*
X-11013089Y+11419857D01*
X-10949506Y+11410334D01*
X-10922000Y+11409391D01*
X-10520391Y+11811000D02*
X-10521651Y+11779209D01*
X-10531880Y+11715626D01*
X-10553188Y+11652043D01*
X-10587686Y+11588460D01*
X-10640162Y+11524893D01*
X-10703745Y+11473873D01*
X-10767328Y+11440370D01*
X-10830911Y+11419857D01*
X-10894494Y+11410334D01*
X-10922000Y+11409391D01*
M02*
